<svg width="196" height="168" viewBox="0 0 196 168" fill="none" xmlns="http://www.w3.org/2000/svg">
<g clip-path="url(#clip0_7_88)">
<path d="M184.394 90.0637C184.073 81.585 182.465 76.0331 180.627 71.925C177.84 65.7431 172.772 59.6006 166.815 55.4137C143.495 38.955 110.71 33.6787 81.3564 37.3143C56.5501 40.3856 25.2055 50.0062 15.3442 71.9118C13.4914 76.02 11.8836 81.585 11.562 90.0506C11.562 90.0506 35.3576 143.01 102.028 143.01C168.714 143.023 184.394 90.0637 184.394 90.0637V90.0637Z" fill="white"/>
<path d="M99.1953 41.4618C123.848 41.4618 146.48 47.8537 162.926 59.4562C168.01 63.0393 172.496 68.4075 174.916 73.815C176.845 78.0937 177.932 83.2256 178.254 89.46C176.156 95.6419 159.756 137.786 102.043 137.786C44.5297 137.786 21.27 96.2062 17.7328 89.1319C18.0696 83.0419 19.1722 78.0281 21.0556 73.815C31.269 51.1481 67.2381 44.3756 82.2443 42.5118C87.8181 41.8162 93.499 41.4618 99.1953 41.4618V41.4618ZM99.1953 36.225C93.1775 36.225 87.2056 36.5925 81.3715 37.3275C56.5653 40.3987 25.2206 50.0193 15.3593 71.925C13.5065 76.0331 11.8987 81.5981 11.5771 90.0637C11.5771 90.0637 35.3728 143.023 102.043 143.023C168.714 143.023 184.394 90.0637 184.394 90.0637C184.073 81.585 182.465 76.0331 180.627 71.925C177.84 65.7431 172.772 59.6006 166.815 55.4137C148.149 42.2362 123.389 36.225 99.1953 36.225V36.225Z" fill="#4C7C7D"/>
<path d="M98.4429 124.412C142.419 124.412 178.068 109.251 178.068 90.5493C178.068 71.8476 142.419 56.6868 98.4429 56.6868C54.4672 56.6868 18.8179 71.8476 18.8179 90.5493C18.8179 109.251 54.4672 124.412 98.4429 124.412Z" fill="#FCD4B5"/>
<path d="M42.9214 121.354C41.1757 121.354 39.6904 120.199 39.5373 118.676C39.3995 117.272 39.721 115.867 40.012 114.647L40.2264 113.741C42.5232 102.217 58.6167 92.1637 69.3814 92.7937C71.2648 92.8987 72.6735 94.29 72.5357 95.8912C72.4132 97.5056 70.7748 98.6869 68.9067 98.6081C61.9395 98.175 48.6635 105.853 46.9026 114.712C46.8414 115.067 46.7648 115.421 46.6576 115.789C46.4585 116.642 46.2289 117.6 46.2901 118.177C46.4432 119.779 45.0651 121.196 43.1817 121.328C43.1204 121.354 43.0285 121.354 42.9214 121.354V121.354Z" fill="#B89278"/>
<path d="M36.0161 118.151C35.0361 118.151 34.0714 117.784 33.3976 117.088C29.4164 112.993 29.1408 106.746 32.6014 99.9337C35.5108 94.2112 41.5439 87.9112 47.9139 87.6094C49.8126 87.5437 51.3898 88.7512 51.497 90.3525C51.5239 90.7346 51.4623 91.1175 51.3157 91.4791C51.1691 91.8407 50.9405 92.1738 50.643 92.4593C50.3455 92.7448 49.985 92.977 49.5823 93.1426C49.1796 93.3081 48.7427 93.4036 48.2967 93.4237C45.8314 93.5419 41.4367 97.125 38.8183 102.257C36.4601 106.903 36.3836 111.064 38.6192 113.361C39.8136 114.594 39.6145 116.432 38.1751 117.456C37.5473 117.928 36.7664 118.151 36.0161 118.151V118.151Z" fill="#B89278"/>
<path d="M21.6527 107.533C20.8258 107.533 19.9989 107.284 19.3405 106.772C16.0024 104.226 16.7527 99.3695 17.993 95.7338C18.4217 94.4607 20.0602 92.3607 28.0839 84.0001L27.4867 83.4882L30.5952 81.4801C31.4527 80.9289 34.5764 79.1964 37.2255 79.1832C39.0936 79.2095 40.5942 80.522 40.5636 82.1364C40.5492 82.8994 40.1871 83.6273 39.5547 84.1644C38.9223 84.7016 38.0698 85.0053 37.1795 85.0107H37.1183C36.8733 85.0501 35.8627 85.4438 34.9439 85.9951C34.5917 86.402 34.1783 86.822 33.7649 87.2682C28.1145 93.1482 24.9755 96.6132 24.4549 97.5582C23.5055 100.406 23.7045 102.139 23.9495 102.493C25.343 103.569 25.4349 105.368 24.1945 106.562C23.5055 107.205 22.5867 107.533 21.6527 107.533Z" fill="#B89278"/>
<path d="M68.8931 96.6394C68.7552 96.6394 68.6174 96.6395 68.4796 96.6263C65.7387 96.3507 62.9977 95.9963 60.2568 95.642C58.5418 95.4188 56.8115 95.2088 55.0965 95.0119C48.9715 94.2901 43.7499 92.2557 39.5543 88.9744C36.2621 86.3757 30.7956 73.8807 33.0924 68.5126C33.2463 68.1532 33.4812 67.8233 33.7837 67.5418C34.0863 67.2602 34.4506 67.0325 34.8559 66.8716C35.2611 66.7107 35.6993 66.6198 36.1456 66.6041C36.5918 66.5884 37.0372 66.6482 37.4565 66.7801C37.8758 66.9119 38.2606 67.1133 38.5891 67.3726C38.9176 67.632 39.1833 67.9442 39.371 68.2916C39.5586 68.6389 39.6647 69.0146 39.683 69.397C39.7013 69.7795 39.6316 70.1613 39.4778 70.5207C38.3599 73.1194 42.2646 83.0551 44.1634 84.6957C47.2871 87.1501 51.2837 88.6857 56.0153 89.2501C57.7609 89.4601 59.5065 89.6701 61.2368 89.8932C63.9165 90.2344 66.5962 90.5757 69.2606 90.8513C71.1287 91.0351 72.4609 92.4919 72.2465 94.0801C72.1485 94.7841 71.7534 95.433 71.1356 95.9045C70.5179 96.376 69.7202 96.6374 68.8931 96.6394V96.6394Z" fill="#B89278"/>
<path d="M59.3686 84.7744H59.1848C56.842 84.6694 45.5108 80.5351 43.2139 74.9832C42.1267 72.3582 40.2433 63.5513 44.1633 59.8763C45.4342 58.6951 47.578 58.6032 48.9714 59.6926C50.3495 60.7819 50.4567 62.6194 49.1858 63.8007C48.2058 64.8376 48.4661 70.2713 49.5992 73.0276C50.5639 75.3638 57.7761 78.5663 59.8586 78.9863C61.742 79.0651 63.0129 80.4301 62.9211 82.0313C62.8292 83.5932 61.1754 84.7744 59.3686 84.7744V84.7744Z" fill="#B89278"/>
<path d="M57.3469 94.9069C56.4741 94.9069 55.6013 94.6182 54.9428 94.0538C53.6259 92.9119 53.6259 91.0744 54.9428 89.9325C57.8063 87.4913 60.0725 80.7451 59.0619 77.7001C58.0206 74.5894 54.6825 70.7307 50.5481 67.8694C50.0581 67.5282 49.4916 67.2394 48.925 66.9507C48.2513 66.5963 47.5775 66.2288 46.9344 65.8351L46.3525 65.4413C46.0463 65.2313 45.6022 64.9294 45.4338 64.89C43.6881 64.365 42.6622 62.7244 43.2288 61.2282C43.78 59.7188 45.5716 58.8525 47.3478 59.3119C48.7719 59.6663 49.7978 60.3751 50.5634 60.9001L51.0075 61.2019C51.4669 61.4907 51.9569 61.7532 52.4622 62.0026C53.2738 62.4226 54.0853 62.8557 54.8203 63.3675C58.9241 66.2025 63.9006 71.0457 65.6003 76.1382C67.3 81.2307 64.3906 90.1294 59.7509 94.0932C59.0772 94.6313 58.2044 94.9069 57.3469 94.9069V94.9069Z" fill="#B89278"/>
<path d="M69.1684 98.6213C68.4028 98.6213 67.6371 98.4113 66.994 97.9519C66.3028 97.4587 65.8678 96.7507 65.7846 95.9831C65.7014 95.2154 65.9766 94.4509 66.5499 93.8569C70.3781 89.9063 70.914 86.1788 70.9599 84.7481C71.3581 72.8306 69.0612 67.4888 55.4331 61.2019L55.1574 61.1231C54.1621 60.8081 51.8806 60.0731 51.3906 57.96C51.0384 56.385 52.2481 54.8494 54.0856 54.5475C55.3871 54.3375 56.6734 54.7838 57.4237 55.6238C57.4696 55.6369 57.5002 55.65 57.5309 55.6631C57.9596 55.7944 58.3577 55.9388 58.6487 56.07C75.3393 63.7613 78.1721 71.82 77.7281 84.9188C77.6515 87.4388 76.7481 92.4394 71.7409 97.5844C71.0978 98.2669 70.1331 98.6213 69.1684 98.6213V98.6213Z" fill="#B89278"/>
<path d="M84.7259 77.1226C82.8578 77.1226 81.3266 75.8101 81.3266 74.2088C81.3266 65.8876 80.8519 63.3282 70.1025 59.3251C69.7197 59.1938 69.3216 58.9969 68.8928 58.7869C68.7703 58.7213 68.6325 58.6426 68.4947 58.5769C67.6468 58.5634 66.8354 58.2787 66.2199 57.7787C65.6043 57.2787 65.229 56.5996 65.1676 55.8746C65.1062 55.1496 65.3632 54.4311 65.8881 53.8602C66.413 53.2893 67.1679 52.9071 68.0047 52.7888C69.8881 52.5132 71.4347 53.2876 72.3381 53.7601C72.5066 53.8388 72.6444 53.9307 72.7975 53.9832C86.6553 59.1282 88.0947 64.0894 88.0947 74.1957C88.1253 75.8101 86.6094 77.1226 84.7259 77.1226V77.1226Z" fill="#B89278"/>
<path d="M51.5725 125.318C51.1897 125.318 50.7763 125.265 50.3935 125.134C49.9747 125.002 49.5905 124.8 49.2629 124.54C48.9353 124.281 48.6707 123.968 48.4844 123.62C48.298 123.273 48.1935 122.897 48.1769 122.515C48.1603 122.133 48.2319 121.752 48.3875 121.393C51.0978 115.106 62.8272 108.15 66.5941 107.389C66.8238 107.349 67.1913 107.284 67.6047 107.218C67.9722 107.166 68.7072 107.061 69.1513 106.969C70.1619 106.313 71.586 106.181 72.7804 106.733C74.4341 107.494 75.0619 109.253 74.1891 110.67C73.1632 112.311 70.9275 112.639 68.7685 112.954C68.5082 112.993 68.3091 113.019 68.156 113.046C66.0122 113.544 56.5185 119.346 54.7728 123.388C54.5362 123.953 54.1018 124.442 53.529 124.787C52.9562 125.132 52.2729 125.318 51.5725 125.318V125.318Z" fill="#B89278"/>
<path d="M104.631 128.034C103.605 128.034 102.579 127.628 101.921 126.866C101.65 126.561 101.453 126.213 101.34 125.842C101.228 125.471 101.202 125.085 101.264 124.705C101.327 124.325 101.477 123.96 101.705 123.631C101.934 123.301 102.236 123.013 102.595 122.784C105.473 120.921 105.06 118.059 104.738 116.931C104.095 114.581 101.768 111.602 97.3883 110.919C96.9496 110.853 96.5306 110.713 96.1552 110.507C95.7799 110.301 95.4556 110.034 95.2009 109.721C94.9463 109.407 94.7663 109.054 94.6714 108.681C94.5764 108.308 94.5682 107.922 94.6474 107.546C94.7247 107.169 94.8885 106.808 95.1294 106.485C95.3703 106.162 95.6835 105.884 96.0509 105.665C96.4183 105.447 96.8325 105.293 97.2698 105.212C97.707 105.132 98.1584 105.127 98.598 105.197C104.861 106.168 109.868 110.237 111.338 115.579C112.609 120.212 110.833 124.753 106.668 127.444C106.055 127.838 105.336 128.034 104.631 128.034V128.034Z" fill="#B89278"/>
<path d="M118.183 129.019C117.831 129.019 117.433 128.966 117.081 128.848C116.658 128.725 116.268 128.531 115.933 128.278C115.599 128.025 115.326 127.717 115.131 127.373C114.936 127.029 114.822 126.655 114.797 126.273C114.771 125.89 114.835 125.508 114.983 125.147C117.785 118.217 118.091 106.641 107.449 103.11C107.033 102.972 106.653 102.765 106.331 102.501C106.008 102.237 105.75 101.921 105.571 101.571C105.391 101.22 105.295 100.843 105.286 100.461C105.277 100.079 105.357 99.699 105.52 99.3432C105.846 98.6237 106.492 98.0444 107.316 97.732C108.139 97.4196 109.074 97.3996 109.915 97.6763C125.043 102.69 125.089 117.994 121.43 127.05C120.909 128.258 119.592 129.019 118.183 129.019V129.019Z" fill="#B89278"/>
<path d="M130.295 128.034C129.658 128.032 129.035 127.877 128.496 127.587C127.957 127.297 127.524 126.883 127.245 126.393C126.966 125.903 126.853 125.355 126.918 124.812C126.984 124.27 127.225 123.754 127.615 123.323C133.419 116.944 130.479 112.284 124.813 104.58C122.501 101.43 120.035 98.7263 117.494 96.5081C116.177 95.3531 116.192 93.5156 117.524 92.3869C118.872 91.2581 121.015 91.2713 122.332 92.4131C125.211 94.9331 127.983 97.9781 130.555 101.469C135.899 108.728 141.963 116.97 132.974 126.893C132.301 127.641 131.305 128.034 130.295 128.034Z" fill="#B89278"/>
<path d="M153.14 119.096L151.027 118.834C149.787 118.637 148.822 117.889 148.424 116.931C147.98 116.458 147.628 115.999 147.291 115.566L146.847 114.988C146.097 114.07 144.78 113.295 143.371 112.481L142.774 112.14C141.38 111.313 140.584 110.683 140.048 110.093C139.558 109.988 138.854 109.843 137.812 109.62L135.822 109.213C135.592 109.174 135.148 109.148 134.658 109.095C131.488 108.82 128.227 108.531 127.124 106.168C126.435 104.672 127.277 102.979 129.038 102.388C130.294 101.955 131.703 102.231 132.622 102.979C133.326 103.123 134.658 103.241 135.347 103.307C136.251 103.386 137.016 103.478 137.43 103.556L139.405 103.963C143.601 104.83 144.703 105.066 145.53 106.615C145.668 106.72 145.989 106.956 146.617 107.336L147.168 107.651C148.929 108.675 150.92 109.843 152.405 111.655L152.957 112.376C153.416 112.98 153.676 113.295 154.013 113.531L154.84 114.096L155.682 116.524L153.14 119.096V119.096Z" fill="#B89278"/>
<path d="M162.344 115.933C161.41 115.933 160.491 115.618 159.817 114.988C158.791 114.03 158.347 112.928 158.01 112.048C157.872 111.694 157.658 111.156 157.52 111.024C153.478 107.048 148.7 103.884 144.06 102.139C139.88 100.564 135.103 100.59 130.034 100.603H128.289C126.42 100.603 124.905 99.2906 124.905 97.6894C124.905 96.075 126.42 94.7888 128.304 94.7888H130.004C135.577 94.7756 141.304 94.7494 146.801 96.8231C152.345 98.91 157.98 102.598 162.665 107.218C163.691 108.229 164.135 109.384 164.457 110.211C164.579 110.513 164.748 110.959 164.855 111.09C166.126 112.271 166.034 114.083 164.656 115.185C163.982 115.671 163.155 115.933 162.344 115.933V115.933Z" fill="#B89278"/>
<path d="M169.51 108.504C168.73 108.502 167.974 108.272 167.368 107.852C166.761 107.432 166.339 106.847 166.172 106.194C165.758 104.475 163.339 102.401 162.558 101.719C160.705 100.118 158.179 98.8313 154.841 97.7551C152.574 97.0332 150.232 96.9413 147.506 96.8363L145.623 96.7576C144.535 96.7051 143.356 96.8626 142.101 97.0201C140.707 97.2038 139.253 97.4138 137.706 97.3613C137.259 97.3537 136.819 97.2704 136.41 97.1163C136 96.9623 135.631 96.7404 135.322 96.4636C135.013 96.1867 134.771 95.8603 134.61 95.5031C134.449 95.1458 134.372 94.7648 134.383 94.3819C134.429 92.7676 136.022 91.5207 137.859 91.5338C138.839 91.5469 139.911 91.4026 141.059 91.2582C142.529 91.0482 144.214 90.8251 146.036 90.9301L147.828 91.0088C150.844 91.1269 153.953 91.2582 157.214 92.2951C161.486 93.6601 164.824 95.3926 167.382 97.5976C169.525 99.4482 172.098 101.968 172.818 104.974C173.216 106.549 172.021 108.098 170.199 108.426C169.969 108.478 169.724 108.504 169.51 108.504V108.504Z" fill="#B89278"/>
<path d="M161.042 89.8144C158.546 89.8144 156.019 89.7225 153.523 89.3813C152.252 89.2107 151.012 88.935 149.787 88.6594C149.021 88.4888 148.271 88.3182 147.475 88.1738C146.592 88.0189 145.816 87.5696 145.319 86.9247C144.823 86.2798 144.645 85.4921 144.826 84.735C145.007 83.9779 145.531 83.3134 146.283 82.8875C147.036 82.4617 147.954 82.3095 148.838 82.4644C149.726 82.6219 150.629 82.8188 151.517 83.0157C152.528 83.2388 153.523 83.475 154.565 83.6194C157.75 84.0525 161.241 83.9869 164.61 83.9344L166.202 83.9082C169.938 83.8557 173.95 82.7794 178.835 80.535C180.489 79.7738 182.541 80.2988 183.429 81.7163C184.317 83.1338 183.704 84.9057 182.051 85.6669C176.171 88.3707 171.163 89.67 166.309 89.7357L164.763 89.7619C163.538 89.7882 162.297 89.8144 161.042 89.8144V89.8144Z" fill="#B89278"/>
<path d="M160 97.952C158.882 97.952 157.627 97.8339 156.432 97.3089C155.632 96.9572 155.027 96.3486 154.749 95.6158C154.47 94.883 154.542 94.0856 154.947 93.3976C155.351 92.7165 156.05 92.1986 156.895 91.9556C157.74 91.7125 158.663 91.7637 159.464 92.0983C159.755 92.1508 160.521 92.1114 161.011 92.0983C161.455 92.072 161.883 92.0589 162.297 92.0589C166.14 92.0589 169.111 91.9801 171.898 91.8226C174.256 91.6783 176.629 91.2714 179.11 90.5364L179.753 90.3658C180.013 90.3001 180.534 90.1689 180.886 90.0508C181.267 89.6053 181.786 89.2607 182.385 89.0564C182.983 88.8521 183.637 88.7965 184.27 88.8958C186.108 89.1976 187.333 90.7201 186.981 92.2951C186.445 94.7364 183.459 95.4976 181.683 95.957L181.3 96.062C178.237 96.9545 175.313 97.4664 172.357 97.637C169.387 97.8076 166.293 97.8995 162.297 97.8995C162.021 97.8995 161.715 97.9126 161.424 97.9258C160.965 97.9258 160.505 97.952 160 97.952V97.952Z" fill="#B89278"/>
<path d="M100.159 88.0688C97.0201 90.3525 93.5288 92.3475 89.8385 93.3581C80.0997 96.0356 77.3435 87.5569 80.4519 80.6925C82.6722 75.7838 85.2294 70.0219 88.5522 65.6119C90.6654 62.8163 93.2379 60.2831 96.1626 58.065C103.313 52.6838 115.273 50.7675 122.056 57.6844C123.143 58.8131 124.338 60.6375 124.552 62.1469C125.44 68.145 120.831 72.87 115.931 76.6106C110.801 80.535 105.396 84.2494 100.159 88.0688Z" fill="#F79329"/>
<path d="M86.4256 96.7706C82.9497 96.7706 79.9943 95.4581 78.1109 93.0825C75.4465 89.7356 75.125 84.4594 77.3147 79.6425L77.5903 79.0387C79.8259 74.1037 82.3525 68.5125 85.7365 64.0369C88.0274 61.0089 90.7944 58.2662 93.9593 55.8862C98.5837 52.395 104.801 50.3212 110.573 50.3212C116.285 50.3212 121.154 52.2375 124.692 55.8337C125.978 57.1594 127.616 59.5087 127.968 61.7794C129.117 69.51 122.961 75.1931 118.23 78.7894C115.029 81.2306 111.707 83.6062 108.384 85.9687C106.378 87.3994 104.372 88.83 102.397 90.2737C98.4153 93.1744 94.6637 95.0906 90.9122 96.1275C89.3197 96.5606 87.819 96.7706 86.4256 96.7706V96.7706ZM110.558 56.1487C106.378 56.1487 101.845 57.6844 98.4153 60.27C95.7224 62.2985 93.3677 64.6347 91.4175 67.2131C88.4162 71.19 86.0275 76.4794 83.899 81.165L83.6234 81.7687C82.2606 84.7481 82.3065 88.0687 83.7 89.8144C84.6953 91.0612 86.3643 91.2712 88.799 90.6019C91.6472 89.8275 94.725 88.2262 97.9559 85.8769C99.9465 84.42 101.983 82.9762 104.02 81.5194C107.266 79.1962 110.543 76.8731 113.697 74.4712C119.455 70.0744 121.767 66.4125 121.2 62.5537C121.093 61.7925 120.312 60.4669 119.455 59.6137C116.698 56.7394 113.085 56.1487 110.558 56.1487V56.1487Z" fill="#855C52"/>
<path d="M119.639 88.8037C116.132 90.6412 112.319 92.1374 108.491 92.6493C98.3695 93.9749 97.2057 85.2337 101.539 78.8812C104.632 74.3268 108.215 68.9849 112.304 65.0868C114.912 62.6008 117.906 60.4326 121.2 58.6424C129.255 54.298 141.413 53.9962 146.849 61.753C147.737 63.013 148.564 64.9687 148.503 66.4912C148.273 72.5287 142.852 76.5843 137.34 79.603C131.536 82.7924 125.503 85.7455 119.639 88.8037V88.8037Z" fill="#F79329"/>
<path d="M106.514 95.6813C102.425 95.6813 99.1638 94.1719 97.3109 91.4157C94.8303 87.7013 95.3203 82.2019 98.6125 77.3982L98.9494 76.8732C102.073 72.2925 105.595 67.1082 109.775 63.1313C112.593 60.4538 115.824 58.1044 119.392 56.1882C123.557 53.9307 128.502 52.6838 133.311 52.6838C140.4 52.6838 146.403 55.44 149.772 60.2569C150.813 61.74 151.992 64.2732 151.915 66.57C151.624 74.3663 144.504 79.1438 139.175 82.0575C135.516 84.0657 131.749 85.9819 127.982 87.8982C125.792 89.0138 123.587 90.1425 121.413 91.2713C117.033 93.5682 112.853 94.9857 109.01 95.4975C108.122 95.6419 107.279 95.6813 106.514 95.6813V95.6813ZM133.28 58.5113C129.789 58.5113 126.052 59.4563 122.99 61.11C119.955 62.7461 117.203 64.7386 114.813 67.0294C111.108 70.56 107.754 75.4819 104.814 79.8132L104.447 80.3513C102.471 83.2388 101.951 86.6775 103.191 88.5281C103.574 89.1056 104.339 89.8669 106.498 89.8669C106.958 89.8669 107.448 89.8275 107.953 89.775C110.908 89.3813 114.247 88.2131 117.845 86.3231C120.05 85.1681 122.255 84.0394 124.491 82.9107C128.181 81.0338 131.887 79.1438 135.485 77.175C141.962 73.6182 144.933 70.2975 145.086 66.4125C145.117 65.6513 144.581 64.2338 143.907 63.2625C141.181 59.3382 136.618 58.5113 133.28 58.5113V58.5113Z" fill="#855C52"/>
<path d="M131.749 96.9806C127.859 98.1487 123.771 98.9231 119.897 98.7262C109.683 98.2012 110.694 89.46 116.467 84.0131C120.616 80.1281 125.424 75.5475 130.386 72.4631C133.54 70.5075 137.001 68.9325 140.66 67.7775C149.588 64.9819 161.562 66.885 164.961 75.4425C165.528 76.8337 165.834 78.8944 165.405 80.3644C163.706 86.2312 157.428 89.2237 151.287 91.1794C144.856 93.24 138.241 95.0381 131.749 96.9806V96.9806Z" fill="#F79329"/>
<path d="M121.137 101.666C120.663 101.666 120.173 101.653 119.698 101.627C112.96 101.286 110.434 98.0438 109.546 96.1406C107.601 92.0194 109.377 86.3625 113.971 82.0444L114.385 81.6638C118.565 77.7263 123.327 73.2637 128.396 70.1006C131.81 67.9875 135.546 66.2812 139.497 65.0344C142.376 64.1287 145.53 63.6562 148.639 63.6562C158.041 63.6562 165.528 67.8169 168.177 74.4975C168.821 76.125 169.372 78.8287 168.713 81.06C166.524 88.6462 158.393 92.0194 152.467 93.9094C148.44 95.1956 144.336 96.3769 140.232 97.5712C137.767 98.28 135.317 98.9888 132.867 99.7238C128.61 101.01 124.659 101.666 121.137 101.666V101.666ZM148.639 69.4837C146.326 69.4837 143.968 69.8381 141.825 70.5075C138.441 71.5706 135.271 73.0275 132.377 74.8125C127.86 77.6213 123.373 81.8475 119.376 85.5881L118.963 85.9688C116.222 88.5281 114.875 91.9669 115.824 93.9488C116.36 95.0644 117.784 95.6944 120.096 95.8125C123.159 95.97 126.619 95.4319 130.616 94.2244C133.081 93.4894 135.577 92.7675 138.058 92.0456C142.085 90.8775 146.143 89.7094 150.093 88.4494C157.306 86.1394 161.011 83.4356 162.098 79.6556C162.313 78.9075 162.144 77.4375 161.731 76.3744C159.204 69.9825 151.089 69.4837 148.639 69.4837V69.4837Z" fill="#855C52"/>
<path d="M65.8293 110.985C64.8186 102.454 70.6221 93.3974 79.1052 89.2499C93.2386 82.3462 113.237 88.8693 107.709 104.934C105.381 111.72 97.7711 116.104 90.3293 118.414C84.633 120.199 77.6046 120.96 71.9849 118.597C67.8658 116.865 66.1968 114.122 65.8293 110.985V110.985Z" fill="white"/>
<path d="M94.9848 108.754C87.8645 110.158 78.3095 105.446 80.0245 98.4113C81.5711 92.0325 92.0142 89.67 97.9554 92.5706C104.616 95.8388 103.805 105.053 97.3736 107.979C96.6232 108.334 95.827 108.583 94.9848 108.754Z" fill="#FBBC40"/>
<path d="M76.7769 4.47558C77.3588 2.95308 77.1138 0.97121 75.1231 0.78746C69.3656 0.28871 63.7766 7.33683 61.6787 10.9856C58.6316 16.3537 58.2641 22.8112 61.1734 28.2843C62.965 31.6575 65.8897 34.5581 67.4516 38.01C68.2478 39.7556 68.6306 41.5537 68.4316 43.4175C68.2478 45.045 66.8391 47.3156 67.7731 48.9037C69.7637 52.2506 74.2963 47.5912 75.5825 45.99C82.7794 37.0912 74.1891 28.7437 72.7344 19.7137C71.9381 14.7393 73.3469 9.60746 76.3328 5.34183C76.5166 5.07933 76.6697 4.79058 76.7769 4.47558V4.47558Z" fill="#40C0E7"/>
<path d="M129.053 4.47558C129.635 2.95308 129.39 0.97121 127.399 0.78746C121.642 0.28871 116.038 7.33683 113.97 10.9856C110.908 16.3537 110.556 22.8112 113.45 28.2843C115.241 31.6575 118.166 34.5581 119.743 38.01C120.524 39.7556 120.907 41.5537 120.708 43.4175C120.539 45.045 119.131 47.3156 120.065 48.9037C122.04 52.2506 126.573 47.5912 127.859 45.99C135.056 37.0912 126.465 28.7437 125.011 19.7137C124.214 14.7393 125.623 9.60746 128.609 5.34183C128.793 5.07933 128.946 4.79058 129.053 4.47558Z" fill="#40C0E7"/>
<path d="M101.768 4.47558C102.35 2.95308 102.12 0.97121 100.114 0.78746C94.3569 0.28871 88.7679 7.33683 86.6854 10.9856C83.6229 16.3537 83.2554 22.8112 86.1495 28.2843C87.941 31.6575 90.881 34.5581 92.4429 38.01C93.2238 39.7556 93.6066 41.5537 93.4229 43.4175C93.2544 45.045 91.8304 47.3156 92.7798 48.9037C94.7704 52.2506 99.2723 47.5912 100.574 45.99C107.771 37.0912 99.1957 28.7437 97.7257 19.7137C96.9294 14.7393 98.3535 9.60746 101.339 5.34183C101.508 5.07933 101.646 4.79058 101.768 4.47558Z" fill="#40C0E7"/>
<path d="M178.191 90.0637C178.191 90.195 178.222 90.3 178.222 90.4312C178.222 109.147 142.574 124.32 98.5816 124.32C54.6041 124.32 18.9566 109.147 18.9566 90.4312C18.9566 90.4312 18.5125 86.7168 18.9566 82.425C19.2935 79.1962 20.5338 75.0881 20.5338 75.0881L11.8363 85.8375C11.8363 85.9425 11.4994 87.255 11.5607 90.0637C11.5607 90.6281 11.6985 92.2162 11.7291 92.7937C12.7397 110.447 23.9332 125.265 35.7544 134.623C39.0925 137.274 42.5685 139.821 46.2129 142.091C53.18 146.436 60.1013 149.467 67.2216 151.659C67.1757 153.392 67.3288 155.124 68.125 156.516C72.6575 164.587 88.0619 166.622 96.9432 167.147C107.585 167.79 133.31 165.454 133.785 152.893C133.816 151.961 133.953 150.819 133.953 149.664C139.083 147.696 144.136 145.254 149.22 142.091C152.864 139.834 156.34 137.274 159.678 134.623C170.703 125.895 182.31 110.25 183.78 95.4187C184.194 93.6993 184.378 91.9012 184.439 90.0768H178.191V90.0637Z" fill="#4C7C7D"/>
<path d="M88.4234 147.677C88.4319 147.643 88.4361 147.618 88.4361 147.601C88.4446 147.584 88.4319 147.562 88.3981 147.537C88.3811 147.478 88.3938 147.44 88.4361 147.423C88.4785 147.406 88.5208 147.389 88.5631 147.372C88.6054 146.864 88.69 146.403 88.817 145.988C88.9524 145.565 89.0963 145.155 89.2486 144.757C89.4094 144.359 89.566 143.961 89.7184 143.563C89.8792 143.157 90.0104 142.717 90.1119 142.243C90.2219 142.133 90.3108 142.002 90.3785 141.85C90.4547 141.697 90.5266 141.545 90.5943 141.393C90.6705 141.232 90.7551 141.079 90.8482 140.936C90.9498 140.792 91.0852 140.673 91.2545 140.58C91.3307 140.589 91.3984 140.605 91.4576 140.631C91.5253 140.648 91.5888 140.669 91.6481 140.694C91.7073 140.72 91.7708 140.741 91.8385 140.758C91.9062 140.775 91.9781 140.783 92.0543 140.783C92.0882 140.826 92.1178 140.876 92.1432 140.936C92.1686 140.986 92.2024 141.033 92.2447 141.075L92.4732 141.037C92.5833 141.13 92.6806 141.249 92.7652 141.393C92.8499 141.528 92.9091 141.672 92.943 141.824C92.9768 141.968 92.9726 142.112 92.9303 142.256C92.888 142.391 92.7906 142.497 92.6383 142.573C92.6467 142.624 92.6467 142.662 92.6383 142.688C92.6298 142.713 92.6171 142.738 92.6002 142.764C92.5917 142.781 92.5875 142.802 92.5875 142.827C92.5875 142.844 92.6044 142.869 92.6383 142.903C92.5452 142.979 92.4606 143.077 92.3844 143.195C92.3082 143.305 92.2447 143.424 92.1939 143.551C92.1432 143.678 92.1008 143.805 92.067 143.932C92.0416 144.059 92.0247 144.177 92.0162 144.287C92.2617 144.033 92.5494 143.796 92.8795 143.576C93.2096 143.356 93.4973 143.149 93.7428 142.954C93.9374 142.819 94.1067 142.692 94.2506 142.573C94.4029 142.446 94.5553 142.332 94.7076 142.23C94.86 142.12 95.0165 142.019 95.1773 141.926C95.3466 141.824 95.5159 141.714 95.6852 141.596C95.7698 141.562 95.8333 141.553 95.8756 141.57C95.9264 141.587 95.9729 141.608 96.0152 141.634C96.0237 141.575 96.011 141.541 95.9772 141.532C95.9433 141.515 95.9306 141.473 95.9391 141.405C96.0829 141.363 96.2099 141.312 96.3199 141.253C96.4384 141.194 96.5611 141.139 96.6881 141.088C96.7727 141.181 96.8574 141.283 96.942 141.393C97.0266 141.494 97.1409 141.549 97.2848 141.558C97.3356 141.668 97.3948 141.752 97.4625 141.812C97.5387 141.862 97.6106 141.913 97.6783 141.964C97.7545 142.015 97.818 142.078 97.8688 142.154C97.9195 142.222 97.9492 142.332 97.9576 142.484C97.9238 142.552 97.8814 142.628 97.8307 142.713C97.7883 142.789 97.7503 142.886 97.7164 143.005C97.5133 143.191 97.3059 143.356 97.0943 143.5C96.8912 143.635 96.6796 143.767 96.4596 143.894C96.248 144.021 96.0279 144.152 95.7994 144.287C95.5794 144.423 95.3551 144.579 95.1266 144.757C95.0758 144.833 95.0123 144.901 94.9361 144.96C94.86 145.019 94.7796 145.078 94.6949 145.138C94.6188 145.188 94.5426 145.243 94.4664 145.303C94.3987 145.362 94.3437 145.434 94.3014 145.519C94.2675 145.519 94.2379 145.523 94.2125 145.531C94.1871 145.531 94.1575 145.535 94.1236 145.544C94.0898 145.612 94.039 145.667 93.9713 145.709C93.912 145.751 93.8697 145.806 93.8443 145.874C93.9967 146.204 94.1956 146.454 94.441 146.623C94.6865 146.792 94.9615 146.915 95.2662 146.991C95.5709 147.067 95.901 147.11 96.2564 147.118C96.6119 147.127 96.9801 147.131 97.3609 147.131C97.4033 147.122 97.4202 147.101 97.4117 147.067C97.4117 147.025 97.4371 147.008 97.4879 147.017C97.6148 147.059 97.7206 147.11 97.8053 147.169C97.8899 147.228 97.9703 147.292 98.0465 147.359C98.1227 147.427 98.1946 147.499 98.2623 147.575C98.3385 147.643 98.4231 147.715 98.5162 147.791C98.4993 148.189 98.3808 148.515 98.1607 148.769C97.9492 149.014 97.6656 149.213 97.3102 149.365C96.8193 149.382 96.3919 149.369 96.0279 149.327C95.664 149.285 95.3043 149.192 94.9488 149.048C94.9234 149.039 94.8981 149.014 94.8727 148.972C94.8557 148.929 94.8388 148.9 94.8219 148.883C94.7542 148.84 94.678 148.824 94.5934 148.832C94.5087 148.84 94.4368 148.832 94.3775 148.807C94.3014 148.773 94.1744 148.697 93.9967 148.578C93.8274 148.46 93.6708 148.35 93.527 148.248C93.3492 148.104 93.1757 147.965 93.0064 147.829C92.8456 147.685 92.7018 147.529 92.5748 147.359C92.5494 147.317 92.5113 147.296 92.4606 147.296C92.4182 147.296 92.3759 147.283 92.3336 147.258C92.0374 147.444 91.7877 147.677 91.5846 147.956C91.3899 148.227 91.1995 148.506 91.0133 148.794C90.8271 149.073 90.6282 149.34 90.4166 149.594C90.2135 149.839 89.9553 150.03 89.6422 150.165C89.5491 150.165 89.4687 150.148 89.401 150.114C89.3333 150.089 89.2698 150.051 89.2106 150C89.1513 149.958 89.0921 149.915 89.0328 149.873C88.9736 149.831 88.9059 149.801 88.8297 149.784C88.8297 149.666 88.8043 149.556 88.7535 149.454C88.7112 149.344 88.6647 149.247 88.6139 149.162C88.5716 149.069 88.5377 148.98 88.5123 148.896C88.4954 148.811 88.5208 148.726 88.5885 148.642C88.4954 148.565 88.4065 148.502 88.3219 148.451C88.3811 148.392 88.4065 148.337 88.3981 148.286C88.3981 148.235 88.3854 148.185 88.36 148.134C88.3346 148.083 88.3134 148.032 88.2965 147.981C88.288 147.922 88.305 147.859 88.3473 147.791C88.3811 147.783 88.3938 147.766 88.3854 147.74C88.3854 147.715 88.3981 147.694 88.4234 147.677ZM98.2623 146.991C98.2623 146.898 98.275 146.813 98.3004 146.737C98.3258 146.661 98.33 146.564 98.3131 146.445C98.5755 145.887 98.8717 145.37 99.2018 144.896C99.5403 144.414 99.9423 143.991 100.408 143.627C100.484 143.568 100.543 143.508 100.586 143.449C100.636 143.382 100.683 143.318 100.725 143.259C100.776 143.2 100.831 143.149 100.89 143.106C100.949 143.056 101.026 143.022 101.119 143.005C101.33 142.759 101.584 142.535 101.88 142.332C102.177 142.129 102.486 141.934 102.807 141.748C103.129 141.562 103.45 141.371 103.772 141.177C104.102 140.982 104.398 140.771 104.661 140.542C104.754 140.601 104.826 140.622 104.877 140.605C104.936 140.58 104.995 140.576 105.054 140.593C105.13 140.754 105.228 140.868 105.346 140.936C105.473 140.995 105.6 141.058 105.727 141.126C105.863 141.185 105.985 141.261 106.095 141.354C106.214 141.439 106.303 141.558 106.362 141.71C106.303 141.71 106.273 141.731 106.273 141.773C106.282 141.816 106.294 141.862 106.311 141.913C106.328 141.964 106.337 142.01 106.337 142.053C106.337 142.095 106.298 142.116 106.222 142.116C106.222 142.175 106.252 142.205 106.311 142.205C106.37 142.205 106.4 142.235 106.4 142.294C106.4 142.345 106.387 142.387 106.362 142.421C106.345 142.446 106.345 142.493 106.362 142.561C106.159 142.696 105.93 142.827 105.676 142.954C105.431 143.073 105.169 143.2 104.889 143.335C104.618 143.47 104.339 143.618 104.051 143.779C103.772 143.932 103.493 144.109 103.213 144.312C102.934 144.516 102.651 144.74 102.363 144.985C102.084 145.231 101.813 145.493 101.55 145.772C101.288 146.043 101.043 146.327 100.814 146.623C100.586 146.911 100.391 147.194 100.23 147.474C100.247 147.516 100.268 147.554 100.294 147.588C100.327 147.622 100.353 147.66 100.37 147.702C100.691 147.719 100.992 147.719 101.271 147.702C101.55 147.677 101.83 147.694 102.109 147.753C102.143 147.728 102.164 147.694 102.172 147.651C102.181 147.609 102.206 147.579 102.249 147.562C102.824 147.503 103.362 147.41 103.861 147.283C104.36 147.148 104.868 147.012 105.384 146.877C105.232 146.818 105.097 146.771 104.978 146.737C104.927 146.687 104.927 146.644 104.978 146.61C105.037 146.568 105.084 146.526 105.118 146.483C104.982 146.407 104.868 146.306 104.775 146.179C104.69 146.052 104.64 145.887 104.623 145.684C104.682 145.633 104.712 145.574 104.712 145.506C104.712 145.438 104.682 145.383 104.623 145.341C104.58 145.324 104.555 145.324 104.546 145.341C104.538 145.358 104.53 145.375 104.521 145.392C104.521 145.409 104.513 145.425 104.496 145.442C104.487 145.459 104.466 145.459 104.432 145.442C104.441 145.349 104.462 145.273 104.496 145.214C104.53 145.155 104.555 145.083 104.572 144.998L105.626 144.3C105.736 144.384 105.871 144.473 106.032 144.566C106.193 144.66 106.362 144.753 106.54 144.846C106.717 144.939 106.899 145.036 107.086 145.138C107.272 145.231 107.445 145.324 107.606 145.417C107.758 145.485 107.89 145.569 108 145.671C108.11 145.764 108.215 145.866 108.317 145.976C108.419 146.077 108.52 146.179 108.622 146.28C108.723 146.382 108.846 146.466 108.99 146.534C108.973 146.67 108.981 146.78 109.015 146.864C109.049 146.949 109.058 147.05 109.041 147.169C108.88 147.457 108.685 147.702 108.457 147.905C108.228 148.1 107.97 148.269 107.682 148.413C107.403 148.557 107.102 148.68 106.781 148.781C106.459 148.874 106.129 148.967 105.791 149.061C105.452 149.145 105.109 149.238 104.762 149.34C104.424 149.433 104.089 149.543 103.759 149.67C103.615 149.67 103.493 149.674 103.391 149.683C103.29 149.691 103.192 149.704 103.099 149.721C103.006 149.738 102.913 149.755 102.82 149.771C102.727 149.788 102.625 149.801 102.515 149.81C102.473 149.801 102.443 149.81 102.426 149.835C102.418 149.86 102.401 149.882 102.376 149.898C102.206 149.924 102.054 149.937 101.919 149.937C101.783 149.937 101.669 149.937 101.576 149.937C101.457 149.937 101.335 149.953 101.208 149.987C101.081 150.021 100.962 150.034 100.852 150.025C100.09 149.992 99.4938 149.721 99.0621 149.213C98.6305 148.705 98.3935 148.007 98.3512 147.118C98.3596 147.076 98.3512 147.05 98.3258 147.042C98.3004 147.025 98.2792 147.008 98.2623 146.991Z" fill="#FBBC40"/>
</g>
<defs>
<clipPath id="clip0_7_88">
<rect width="196" height="168" fill="white"/>
</clipPath>
</defs>
</svg>
