<svg width="342" height="133" viewBox="0 0 342 133" fill="none" xmlns="http://www.w3.org/2000/svg">
<g clip-path="url(#clip0_7_128)">
<path d="M147.704 71.3004C147.446 64.5881 146.158 60.1928 144.686 56.9406C142.454 52.0466 138.394 47.1838 133.623 43.8692C114.942 30.8393 88.6814 26.6623 65.1682 29.5405C45.2979 31.9719 20.1902 39.5882 12.2911 56.9302C10.8069 60.1824 9.51905 64.5881 9.26147 71.29C9.26147 71.29 28.3223 113.216 81.7268 113.216C135.144 113.227 147.704 71.3004 147.704 71.3004V71.3004Z" fill="white"/>
<path d="M79.4574 32.824C99.205 32.824 117.334 37.8842 130.507 47.0695C134.579 49.9061 138.173 54.1559 140.111 58.4368C141.656 61.8242 142.527 65.8869 142.785 70.8225C141.104 75.7165 127.968 109.081 81.7388 109.081C35.6691 109.081 17.0376 76.1633 14.2042 70.5627C14.4741 65.7415 15.3572 61.7722 16.8659 58.4368C25.047 40.4922 53.859 35.1307 65.8793 33.6552C70.344 33.1045 74.8945 32.824 79.4574 32.824V32.824ZM79.4574 28.6781C74.637 28.6781 69.8534 28.969 65.1802 29.5509C45.3098 31.9823 20.2021 39.5986 12.303 56.9406C10.8189 60.1929 9.53102 64.5985 9.27344 71.3004C9.27344 71.3004 28.3342 113.227 81.7388 113.227C135.143 113.227 147.703 71.3004 147.703 71.3004C147.446 64.5881 146.158 60.1929 144.686 56.9406C142.454 52.0466 138.394 47.1838 133.622 43.8692C118.671 33.437 98.837 28.6781 79.4574 28.6781V28.6781Z" fill="#353535"/>
<path d="M78.8547 98.4927C114.08 98.4927 142.636 86.4904 142.636 71.6849C142.636 56.8793 114.08 44.8771 78.8547 44.8771C43.6293 44.8771 15.0735 56.8793 15.0735 71.6849C15.0735 86.4904 43.6293 98.4927 78.8547 98.4927Z" fill="#FCD4B5"/>
<path d="M34.3811 96.0717C32.9828 96.0717 31.7931 95.1574 31.6704 93.952C31.56 92.8402 31.8176 91.7284 32.0506 90.7621L32.2224 90.0452C34.0622 80.9222 46.9534 72.963 55.5761 73.4617C57.0848 73.5448 58.2132 74.6462 58.1028 75.9139C58.0047 77.192 56.6923 78.1271 55.1959 78.0648C49.615 77.7219 38.9807 83.8004 37.5702 90.8141C37.5211 91.0946 37.4598 91.3752 37.3739 91.6661C37.2145 92.3415 37.0305 93.1 37.0795 93.5572C37.2022 94.8249 36.0983 95.947 34.5896 96.051C34.5406 96.0717 34.467 96.0717 34.3811 96.0717V96.0717Z" fill="#B89278"/>
<path d="M28.8496 93.5364C28.0646 93.5364 27.2919 93.2455 26.7522 92.6948C23.5631 89.4529 23.3423 84.5069 26.1144 79.1142C28.4448 74.5839 33.2775 69.5964 38.38 69.3574C39.9009 69.3055 41.1643 70.2614 41.2502 71.529C41.2717 71.8316 41.2223 72.1347 41.1049 72.4209C40.9875 72.7072 40.8044 72.971 40.5661 73.197C40.3278 73.423 40.039 73.6068 39.7165 73.7379C39.3939 73.8689 39.0439 73.9446 38.6866 73.9605C36.7119 74.054 33.1916 76.8906 31.0942 80.9534C29.2053 84.6316 29.144 87.9255 30.9348 89.7438C31.8915 90.7205 31.732 92.1752 30.5791 92.9857C30.0762 93.3598 29.4506 93.5364 28.8496 93.5364V93.5364Z" fill="#B89278"/>
<path d="M17.3443 85.1304C16.682 85.1304 16.0196 84.933 15.4922 84.5278C12.8183 82.512 13.4193 78.6675 14.4128 75.7893C14.7563 74.7814 16.0687 73.1189 22.4959 66.5001L22.0175 66.0948L24.5075 64.5051C25.1943 64.0687 27.6965 62.6971 29.8185 62.6867C31.3149 62.7075 32.5169 63.7465 32.4924 65.0246C32.4809 65.6287 32.1908 66.2049 31.6842 66.6302C31.1777 67.0554 30.4948 67.2959 29.7817 67.3001H29.7326C29.5364 67.3313 28.7268 67.643 27.9909 68.0794C27.7088 68.4015 27.3776 68.734 27.0464 69.0873C22.5204 73.7423 20.006 76.4855 19.5889 77.2336C18.8285 79.4883 18.9879 80.8599 19.1842 81.1404C20.3003 81.9925 20.3739 83.416 19.3804 84.3615C18.8285 84.8707 18.0925 85.1304 17.3443 85.1304Z" fill="#B89278"/>
<path d="M55.1847 76.5062C55.0743 76.5062 54.9639 76.5062 54.8535 76.4958C52.658 76.2776 50.4624 75.9971 48.2669 75.7165C46.8931 75.5399 45.5071 75.3736 44.1334 75.2178C39.2271 74.6463 35.0445 73.0357 31.6838 70.4381C29.0466 68.3807 24.6678 58.4889 26.5077 54.2391C26.6309 53.9546 26.8191 53.6934 27.0614 53.4705C27.3038 53.2477 27.5956 53.0674 27.9202 52.94C28.2448 52.8126 28.5958 52.7407 28.9533 52.7283C29.3107 52.7158 29.6675 52.7632 30.0034 52.8675C30.3392 52.9719 30.6475 53.1313 30.9106 53.3366C31.1737 53.542 31.3865 53.7892 31.5369 54.0641C31.6872 54.3391 31.7722 54.6365 31.7868 54.9393C31.8015 55.2421 31.7457 55.5444 31.6224 55.8289C30.727 57.8862 33.8548 65.7519 35.3757 67.0507C37.8779 68.9938 41.0792 70.2095 44.8693 70.6563C46.2676 70.8225 47.6659 70.9888 49.0519 71.1654C51.1984 71.4356 53.3448 71.7057 55.4791 71.9239C56.9755 72.0694 58.0426 73.2228 57.8709 74.48C57.7924 75.0374 57.4759 75.5511 56.981 75.9244C56.4862 76.2976 55.8473 76.5046 55.1847 76.5062V76.5062Z" fill="#B89278"/>
<path d="M47.5554 67.1131H47.4082C45.5316 67.03 36.455 63.7569 34.6152 59.3617C33.7443 57.2836 32.2357 50.3115 35.3757 47.4021C36.3937 46.4669 38.1109 46.3942 39.2271 47.2566C40.331 48.119 40.4168 49.5737 39.3988 50.5089C38.6138 51.3298 38.8223 55.6315 39.73 57.8135C40.5027 59.663 46.2798 62.1983 47.9479 62.5308C49.4566 62.5932 50.4746 63.6738 50.401 64.9415C50.3274 66.178 49.0028 67.1131 47.5554 67.1131V67.1131Z" fill="#B89278"/>
<path d="M45.9362 75.1347C45.2371 75.1347 44.5379 74.9061 44.0105 74.4593C42.9557 73.5553 42.9557 72.1006 44.0105 71.1966C46.3042 69.264 48.1195 63.9232 47.31 61.5126C46.4759 59.05 43.802 55.9951 40.4903 53.73C40.0978 53.4598 39.6439 53.2312 39.1901 53.0026C38.6504 52.7221 38.1107 52.4312 37.5956 52.1194L37.1295 51.8077C36.8842 51.6415 36.5285 51.4025 36.3936 51.3713C34.9953 50.9557 34.1735 49.6569 34.6273 48.4723C35.0689 47.2774 36.5039 46.5916 37.9268 46.9553C39.0675 47.2358 39.8893 47.7969 40.5025 48.2126L40.8582 48.4515C41.2262 48.6801 41.6187 48.888 42.0235 49.0854C42.6736 49.4179 43.3236 49.7608 43.9124 50.166C47.1996 52.4104 51.1859 56.2445 52.5474 60.2761C53.9089 64.3076 51.5784 71.3525 47.8619 74.4905C47.3222 74.9165 46.6231 75.1347 45.9362 75.1347V75.1347Z" fill="#B89278"/>
<path d="M55.4054 78.0752C54.7922 78.0752 54.1789 77.9089 53.6637 77.5452C53.11 77.1548 52.7617 76.5943 52.695 75.9866C52.6283 75.3789 52.8488 74.7736 53.308 74.3034C56.3744 71.1758 56.8037 68.2248 56.8405 67.0923C57.1594 57.6576 55.3196 53.4286 44.4032 48.4515L44.1824 48.3891C43.3851 48.1398 41.5576 47.5579 41.1651 45.885C40.8829 44.6381 41.8519 43.4224 43.3238 43.1834C44.3664 43.0172 45.3967 43.3705 45.9977 44.0355C46.0345 44.0459 46.059 44.0562 46.0836 44.0666C46.427 44.1705 46.7459 44.2848 46.979 44.3887C60.3485 50.4777 62.6176 56.8575 62.2619 67.2273C62.2006 69.2223 61.4769 73.1812 57.4661 77.2543C56.9509 77.7946 56.1782 78.0752 55.4054 78.0752V78.0752Z" fill="#B89278"/>
<path d="M67.8674 61.0554C66.371 61.0554 65.1444 60.0163 65.1444 58.7486C65.1444 52.161 64.7642 50.1348 56.1537 46.9657C55.847 46.8618 55.5281 46.7059 55.1847 46.5397C55.0866 46.4877 54.9762 46.4254 54.8658 46.3734C54.1866 46.3627 53.5367 46.1373 53.0436 45.7415C52.5505 45.3456 52.2499 44.808 52.2007 44.234C52.1516 43.6601 52.3574 43.0913 52.7779 42.6393C53.1984 42.1873 53.8031 41.8848 54.4733 41.7911C55.982 41.5729 57.2208 42.186 57.9445 42.56C58.0794 42.6224 58.1898 42.6951 58.3124 42.7367C69.4128 46.8098 70.5658 50.7375 70.5658 58.7382C70.5903 60.0163 69.376 61.0554 67.8674 61.0554V61.0554Z" fill="#B89278"/>
<path d="M41.3107 99.2098C41.0041 99.2098 40.6729 99.1682 40.3663 99.0643C40.0308 98.9597 39.7231 98.8 39.4607 98.5944C39.1983 98.3888 38.9863 98.1414 38.837 97.8662C38.6878 97.5911 38.6041 97.2937 38.5908 96.9912C38.5774 96.6886 38.6348 96.3867 38.7595 96.103C40.9305 91.1258 50.3259 85.6188 53.3433 85.0162C53.5273 84.985 53.8217 84.933 54.1528 84.8811C54.4472 84.8395 55.0359 84.7564 55.3916 84.6837C56.2012 84.1641 57.3419 84.0602 58.2986 84.4966C59.6233 85.0993 60.1262 86.4916 59.427 87.6138C58.6052 88.9126 56.8145 89.1724 55.085 89.4218C54.8765 89.453 54.717 89.4737 54.5944 89.4945C52.8772 89.8894 45.2725 94.482 43.8742 97.6823C43.6847 98.1296 43.3367 98.5164 42.8779 98.7898C42.419 99.0632 41.8717 99.2099 41.3107 99.2098V99.2098Z" fill="#B89278"/>
<path d="M83.8118 101.361C82.99 101.361 82.1682 101.039 81.6408 100.436C81.4241 100.194 81.266 99.9186 81.1757 99.6249C81.0855 99.3312 81.0649 99.0252 81.1151 98.7247C81.1652 98.4243 81.2852 98.1352 81.4681 97.8742C81.651 97.6132 81.8931 97.3856 82.1805 97.2044C84.4864 95.7289 84.1553 93.4637 83.8977 92.5701C83.3825 90.7102 81.5182 88.3516 78.0102 87.8113C77.6588 87.7585 77.3231 87.6475 77.0225 87.4846C76.7218 87.3218 76.462 87.1102 76.2581 86.8622C76.0541 86.6141 75.9099 86.3343 75.8338 86.0389C75.7578 85.7436 75.7512 85.4384 75.8147 85.1409C75.8765 84.842 76.0078 84.5565 76.2007 84.3009C76.3937 84.0453 76.6446 83.8246 76.9389 83.6516C77.2332 83.4787 77.565 83.3568 77.9152 83.2932C78.2654 83.2296 78.6271 83.2254 78.9792 83.2809C83.9958 84.0499 88.0067 87.2709 89.1842 91.4999C90.2022 95.1678 88.7794 98.763 85.4432 100.893C84.9525 101.205 84.3761 101.361 83.8118 101.361V101.361Z" fill="#B89278"/>
<path d="M94.6673 102.14C94.3852 102.14 94.0663 102.098 93.7842 102.005C93.4456 101.907 93.1332 101.754 92.8651 101.553C92.597 101.353 92.3784 101.109 92.2222 100.837C92.0659 100.564 91.975 100.268 91.9547 99.9658C91.9343 99.6633 91.985 99.3604 92.1038 99.0746C94.3484 93.5884 94.5937 84.4239 86.0691 81.6288C85.7359 81.5197 85.4314 81.3558 85.1731 81.1467C84.9149 80.9375 84.708 80.6871 84.5644 80.41C84.4207 80.1329 84.3432 79.8344 84.3362 79.5318C84.3292 79.2292 84.3929 78.9284 84.5237 78.6467C84.7852 78.0771 85.3024 77.6185 85.9621 77.3711C86.6219 77.1238 87.3704 77.108 88.0439 77.3271C100.162 81.2963 100.199 93.4118 97.2677 100.581C96.8506 101.537 95.7958 102.14 94.6673 102.14V102.14Z" fill="#B89278"/>
<path d="M104.369 101.361C103.859 101.359 103.36 101.236 102.928 101.006C102.496 100.777 102.149 100.449 101.926 100.061C101.702 99.6729 101.612 99.2394 101.664 98.8098C101.717 98.3802 101.91 97.9716 102.222 97.6303C106.871 92.5805 104.516 88.8918 99.9778 82.7925C98.1257 80.2988 96.1509 78.1583 94.1148 76.4023C93.06 75.4879 93.0722 74.0332 94.1394 73.1396C95.2187 72.246 96.9359 72.2564 97.9908 73.1604C100.297 75.1554 102.517 77.566 104.577 80.3299C108.858 86.0759 113.715 92.6013 106.515 100.457C105.976 101.049 105.178 101.361 104.369 101.361Z" fill="#B89278"/>
<path d="M122.669 94.2846L120.976 94.0768C119.983 93.9209 119.21 93.3287 118.891 92.5702C118.535 92.1961 118.253 91.8324 117.983 91.4895L117.628 91.0324C117.027 90.305 115.972 89.692 114.843 89.0477L114.365 88.7776C113.249 88.123 112.611 87.6242 112.182 87.1566C111.789 87.0735 111.225 86.9592 110.391 86.7826L108.796 86.4605C108.612 86.4293 108.257 86.4085 107.864 86.367C105.325 86.1488 102.713 85.9202 101.829 84.0499C101.278 82.8653 101.952 81.5249 103.363 81.0574C104.368 80.7145 105.497 80.9327 106.233 81.5249C106.797 81.6392 107.864 81.7327 108.416 81.7847C109.14 81.847 109.753 81.9198 110.084 81.9821L111.667 82.3042C115.027 82.99 115.91 83.177 116.573 84.4031C116.683 84.4863 116.941 84.6733 117.444 84.9746L117.885 85.224C119.296 86.0345 120.89 86.9592 122.08 88.3931L122.522 88.9646C122.89 89.4426 123.098 89.692 123.368 89.879L124.03 90.3258L124.705 92.2481L122.669 94.2846V94.2846Z" fill="#B89278"/>
<path d="M130.041 91.7804C129.293 91.7804 128.557 91.5311 128.017 91.0323C127.195 90.2738 126.839 89.401 126.57 88.7048C126.459 88.4243 126.287 87.9982 126.177 87.8943C122.939 84.746 119.112 82.2418 115.396 80.8599C112.047 79.613 108.22 79.6338 104.16 79.6442H102.762C101.266 79.6442 100.051 78.6051 100.051 77.3375C100.051 76.0594 101.266 75.0411 102.774 75.0411H104.136C108.6 75.0307 113.188 75.01 117.591 76.6517C122.031 78.3038 126.545 81.2236 130.298 84.8811C131.12 85.6811 131.476 86.5955 131.733 87.2501C131.832 87.4891 131.966 87.8424 132.052 87.9463C133.07 88.8814 132.997 90.3154 131.893 91.1882C131.353 91.5726 130.691 91.7804 130.041 91.7804V91.7804Z" fill="#B89278"/>
<path d="M135.781 85.8994C135.156 85.8975 134.551 85.7153 134.065 85.3828C133.579 85.0504 133.241 84.5875 133.107 84.0706C132.776 82.7094 130.838 81.0677 130.212 80.5274C128.728 79.2597 126.704 78.2415 124.031 77.3894C122.215 76.818 120.339 76.7452 118.155 76.6621L116.647 76.5997C115.776 76.5582 114.831 76.6829 113.826 76.8076C112.709 76.953 111.544 77.1193 110.305 77.0777C109.947 77.0717 109.595 77.0057 109.267 76.8838C108.939 76.7618 108.643 76.5862 108.396 76.367C108.148 76.1478 107.955 75.8894 107.826 75.6066C107.697 75.3238 107.635 75.0222 107.644 74.719C107.68 73.441 108.956 72.4539 110.428 72.4643C111.213 72.4747 112.072 72.3604 112.991 72.2461C114.169 72.0798 115.518 71.9032 116.978 71.9863L118.413 72.0487C120.829 72.1422 123.319 72.2461 125.932 73.0669C129.354 74.1476 132.028 75.5191 134.076 77.2647C135.793 78.7298 137.854 80.7248 138.43 83.1043C138.749 84.3512 137.793 85.5772 136.333 85.837C136.149 85.8786 135.953 85.8994 135.781 85.8994V85.8994Z" fill="#B89278"/>
<path d="M128.998 71.1031C126.999 71.1031 124.975 71.0303 122.976 70.7602C121.957 70.6251 120.964 70.4069 119.983 70.1887C119.369 70.0536 118.768 69.9185 118.131 69.8043C117.423 69.6816 116.802 69.3259 116.404 68.8154C116.006 68.3048 115.864 67.6813 116.009 67.0819C116.153 66.4825 116.573 65.9564 117.176 65.6193C117.779 65.2822 118.515 65.1617 119.222 65.2843C119.934 65.409 120.657 65.5649 121.369 65.7207C122.178 65.8974 122.976 66.0844 123.81 66.1987C126.361 66.5416 129.157 66.4896 131.856 66.4481L133.131 66.4273C136.124 66.3857 139.338 65.5337 143.251 63.7569C144.575 63.1542 146.219 63.5699 146.93 64.6921C147.642 65.8142 147.151 67.217 145.826 67.8196C141.116 69.9601 137.106 70.9888 133.217 71.0407L131.978 71.0615C130.997 71.0823 130.004 71.1031 128.998 71.1031V71.1031Z" fill="#B89278"/>
<path d="M128.163 77.5453C127.268 77.5453 126.262 77.4518 125.305 77.0362C124.665 76.7578 124.18 76.2759 123.957 75.6958C123.734 75.1157 123.791 74.4844 124.116 73.9398C124.439 73.4006 124.999 72.9906 125.676 72.7981C126.353 72.6057 127.092 72.6463 127.734 72.9111C127.967 72.9527 128.58 72.9215 128.973 72.9111C129.329 72.8903 129.672 72.8799 130.003 72.8799C133.082 72.8799 135.461 72.8176 137.694 72.6929C139.583 72.5786 141.484 72.2565 143.471 71.6746L143.986 71.5395C144.194 71.4876 144.612 71.3837 144.894 71.2902C145.199 70.9375 145.614 70.6647 146.094 70.503C146.573 70.3413 147.097 70.2972 147.604 70.3758C149.076 70.6148 150.057 71.8201 149.775 73.067C149.346 74.9996 146.954 75.6023 145.531 75.966L145.225 76.0491C142.772 76.7556 140.429 77.1609 138.062 77.296C135.682 77.431 133.204 77.5038 130.003 77.5038C129.782 77.5038 129.537 77.5142 129.304 77.5245C128.936 77.5245 128.568 77.5453 128.163 77.5453V77.5453Z" fill="#B89278"/>
<path d="M80.2296 69.7211C77.7151 71.5291 74.9185 73.1084 71.9625 73.9085C64.1616 76.0282 61.9538 69.3159 64.4437 63.8816C66.2222 59.9955 68.2706 55.434 70.9322 51.9427C72.6249 49.7295 74.6855 47.7241 77.0282 45.9681C82.7563 41.708 92.3357 40.1909 97.7694 45.6668C98.6402 46.5604 99.597 48.0047 99.7687 49.1996C100.48 53.9481 96.7881 57.6888 92.8631 60.6501C88.7542 63.7569 84.4244 66.6974 80.2296 69.7211Z" fill="#F79329"/>
<path d="M69.2287 76.61C66.4444 76.61 64.0772 75.571 62.5685 73.6903C60.4343 71.0407 60.1767 66.8636 61.9307 63.0503L62.1515 62.5723C63.9423 58.6654 65.9661 54.239 68.6768 50.6958C70.5118 48.2987 72.7282 46.1274 75.2634 44.2432C78.9676 41.4793 83.9475 39.8376 88.5716 39.8376C93.1467 39.8376 97.0472 41.3546 99.8805 44.2017C100.911 45.2511 102.223 47.1111 102.505 48.9086C103.425 55.0287 98.4945 59.5279 94.7044 62.3749C92.1409 64.3075 89.4793 66.1882 86.8176 68.0586C85.2108 69.1911 83.6041 70.3237 82.0218 71.4667C78.8327 73.763 75.8276 75.28 72.8226 76.1009C71.5469 76.4438 70.3449 76.61 69.2287 76.61V76.61ZM88.5594 44.4511C85.2108 44.4511 81.5802 45.6668 78.8327 47.7137C76.6757 49.3196 74.7895 51.1691 73.2273 53.2104C70.8233 56.3587 68.9098 60.5461 67.2049 64.2556L66.9841 64.7336C65.8925 67.0922 65.9293 69.7211 67.0455 71.103C67.8427 72.0901 69.1797 72.2564 71.1299 71.7264C73.4113 71.1134 75.8767 69.8457 78.4648 67.9858C80.0593 66.8325 81.6906 65.6895 83.3219 64.5361C85.9223 62.697 88.5471 60.8579 91.0738 58.9564C95.6857 55.4755 97.5378 52.5765 97.084 49.5217C96.9981 48.919 96.3726 47.8696 95.6857 47.1942C93.4779 44.9186 90.5832 44.4511 88.5594 44.4511V44.4511Z" fill="#855C52"/>
<path d="M95.833 70.3029C93.0241 71.7576 89.97 72.9421 86.9036 73.3473C78.796 74.3968 77.8638 67.4766 81.335 62.4476C83.8126 58.842 86.6828 54.613 89.9577 51.527C92.0473 49.559 94.445 47.8425 97.0841 46.4252C103.536 42.9859 113.275 42.747 117.629 48.8878C118.34 49.8853 119.003 51.4335 118.954 52.6388C118.77 57.4185 114.428 60.6292 110.012 63.0191C105.363 65.544 100.531 67.8819 95.833 70.3029V70.3029Z" fill="#F79329"/>
<path d="M85.3197 75.7477C82.0448 75.7477 79.4322 74.5527 77.9481 72.3707C75.961 69.4302 76.3535 65.0765 78.9906 61.2735L79.2605 60.8579C81.7627 57.2316 84.5838 53.1273 87.9323 49.9789C90.1891 47.8592 92.7772 45.9993 95.6351 44.4823C98.9713 42.6951 102.933 41.708 106.785 41.708C112.464 41.708 117.272 43.89 119.97 47.7034C120.804 48.8775 121.749 50.8829 121.687 52.7013C121.454 58.8733 115.751 62.6555 111.482 64.9622C108.551 66.552 105.533 68.069 102.516 69.586C100.762 70.4692 98.9959 71.3628 97.2541 72.2564C93.7462 74.0748 90.3977 75.197 87.319 75.6022C86.6076 75.7165 85.933 75.7477 85.3197 75.7477V75.7477ZM106.76 46.3214C103.963 46.3214 100.971 47.0695 98.5175 48.3788C96.0865 49.674 93.8818 51.2514 91.9677 53.0649C88.9994 55.86 86.3132 59.7565 83.9582 63.1854L83.6638 63.6114C82.0816 65.8974 81.6645 68.6197 82.6581 70.0848C82.9647 70.542 83.578 71.1446 85.3074 71.1446C85.6754 71.1446 86.0679 71.1135 86.4727 71.0719C88.8399 70.7602 91.5138 69.8354 94.3963 68.3391C96.1625 67.4248 97.9288 66.5312 99.7195 65.6376C102.676 64.1517 105.644 62.6555 108.526 61.0969C113.715 58.281 116.094 55.6522 116.217 52.5766C116.241 51.9739 115.812 50.8517 115.272 50.0828C113.089 46.976 109.434 46.3214 106.76 46.3214V46.3214Z" fill="#855C52"/>
<path d="M105.533 76.7763C102.418 77.7011 99.1429 78.3141 96.0397 78.1583C87.8585 77.7426 88.6681 70.8225 93.2922 66.5104C96.6162 63.4347 100.468 59.8084 104.442 57.3666C106.968 55.8184 109.74 54.5715 112.672 53.6572C119.823 51.4439 129.414 52.9506 132.137 59.7253C132.591 60.8267 132.837 62.458 132.493 63.6218C131.132 68.2664 126.103 70.6354 121.184 72.1836C116.033 73.815 110.734 75.2385 105.533 76.7763V76.7763Z" fill="#F79329"/>
<path d="M97.0335 80.4858C96.6533 80.4858 96.2608 80.4754 95.8805 80.4546C90.4837 80.1845 88.4598 77.618 87.7484 76.1113C86.1907 72.8487 87.6135 68.3703 91.2932 64.9518L91.6244 64.6505C94.9729 61.5333 98.7875 58.0005 102.847 55.4963C105.583 53.8234 108.575 52.4727 111.74 51.4855C114.046 50.7686 116.573 50.3945 119.063 50.3945C126.594 50.3945 132.592 53.6884 134.714 58.9772C135.229 60.2656 135.67 62.4061 135.143 64.1725C133.389 70.1783 126.876 72.8487 122.129 74.3449C118.903 75.3632 115.616 76.2984 112.329 77.2439C110.354 77.805 108.391 78.3661 106.429 78.948C103.019 79.9663 99.8546 80.4858 97.0335 80.4858V80.4858ZM119.063 55.008C117.21 55.008 115.322 55.2885 113.604 55.8184C110.894 56.6601 108.355 57.8134 106.036 59.2266C102.418 61.4502 98.8243 64.7959 95.623 67.7573L95.2918 68.0586C93.0962 70.0848 92.0169 72.8071 92.7773 74.3761C93.2066 75.2593 94.3473 75.758 96.1994 75.8516C98.6526 75.9762 101.425 75.5502 104.626 74.5943C106.601 74.0124 108.6 73.4409 110.587 72.8695C113.813 71.9447 117.063 71.0199 120.228 70.0224C126.005 68.1937 128.973 66.0532 129.844 63.0607C130.016 62.4684 129.881 61.3047 129.55 60.463C127.526 55.4028 121.025 55.008 119.063 55.008V55.008Z" fill="#855C52"/>
<path d="M52.7306 87.8631C51.9211 81.1092 56.5697 73.9396 63.3649 70.6562C74.6861 65.1907 90.705 70.3549 86.2771 83.073C84.4127 88.445 78.3167 91.9154 72.3556 93.7442C67.7928 95.1573 62.1629 95.76 57.6614 93.8896C54.3619 92.5181 53.025 90.3464 52.7306 87.8631V87.8631Z" fill="white"/>
<path d="M76.0847 86.0967C70.3812 87.2085 62.7275 83.4783 64.1012 77.9089C65.34 72.8591 73.7052 70.9888 78.4642 73.2851C83.7998 75.8723 83.1497 83.1666 77.9981 85.4837C77.3971 85.7642 76.7593 85.9616 76.0847 86.0967Z" fill="#FBBC40"/>
<path d="M61.4999 3.54316C61.966 2.33785 61.7698 0.768864 60.1752 0.623395C55.5633 0.228552 51.0864 5.80832 49.406 8.69691C46.9651 12.9467 46.6708 18.0589 49.0012 22.3918C50.4363 25.0621 52.779 27.3585 54.0301 30.0912C54.668 31.4732 54.9746 32.8967 54.8151 34.3721C54.6679 35.6606 53.5395 37.4582 54.2877 38.7154C55.8822 41.365 59.5129 37.6764 60.5432 36.4087C66.308 29.3639 59.427 22.7554 58.2618 15.6067C57.624 11.6686 58.7524 7.60589 61.1442 4.22894C61.2914 4.02113 61.414 3.79254 61.4999 3.54316V3.54316Z" fill="#40C0E7"/>
<path d="M103.374 3.54316C103.84 2.33785 103.644 0.768864 102.049 0.623395C97.4376 0.228552 92.9484 5.80832 91.2925 8.69691C88.8394 12.9467 88.5573 18.0589 90.8755 22.3918C92.3105 25.0621 94.6533 27.3585 95.9166 30.0912C96.5422 31.4732 96.8488 32.8967 96.6894 34.3721C96.5545 35.6606 95.426 37.4582 96.1742 38.7154C97.7565 41.365 101.387 37.6764 102.417 36.4087C108.182 29.3639 101.301 22.7554 100.136 15.6067C99.4982 11.6686 100.627 7.60589 103.018 4.22894C103.166 4.02113 103.288 3.79254 103.374 3.54316Z" fill="#40C0E7"/>
<path d="M81.5184 3.54316C81.9845 2.33785 81.8005 0.768864 80.1937 0.623395C75.5818 0.228552 71.1049 5.80832 69.4368 8.69691C66.9836 12.9467 66.6893 18.0589 69.0075 22.3918C70.4425 25.0621 72.7975 27.3585 74.0486 30.0912C74.6742 31.4732 74.9808 32.8967 74.8336 34.3721C74.6987 35.6606 73.558 37.4582 74.3185 38.7154C75.913 41.365 79.5191 37.6764 80.5617 36.4087C86.3265 29.3639 79.4578 22.7554 78.2803 15.6067C77.6425 11.6686 78.7832 7.60589 81.175 4.22894C81.3099 4.02113 81.4203 3.79254 81.5184 3.54316Z" fill="#40C0E7"/>
<path d="M142.735 71.3004C142.735 71.4043 142.759 71.4875 142.759 71.5914C142.759 86.4084 114.205 98.42 78.9659 98.42C43.739 98.42 15.1847 86.4084 15.1847 71.5914C15.1847 71.5914 14.829 68.6508 15.1847 65.2531C15.4545 62.697 16.448 59.4447 16.448 59.4447L9.48114 67.9547C9.48114 68.0378 9.21129 69.0768 9.26036 71.3004C9.26036 71.7472 9.37075 73.0045 9.39528 73.4617C10.2048 87.4371 19.171 99.1681 28.64 106.577C31.314 108.676 34.0982 110.691 37.0175 112.489C42.5983 115.928 48.1424 118.328 53.8459 120.064C53.8091 121.435 53.9318 122.807 54.5696 123.908C58.2002 130.298 70.5394 131.909 77.6535 132.325C86.1781 132.834 106.784 130.984 107.165 121.04C107.189 120.303 107.3 119.399 107.3 118.484C111.409 116.926 115.456 114.993 119.528 112.489C122.448 110.702 125.232 108.676 127.906 106.577C136.737 99.6669 146.034 87.2812 147.212 75.5398C147.543 74.1786 147.69 72.7551 147.739 71.3108H142.735V71.3004Z" fill="#353535"/>
<path d="M68.8547 114.718C68.8632 114.685 68.8674 114.659 68.8674 114.642C68.8759 114.625 68.8632 114.604 68.8293 114.579C68.8124 114.52 68.8251 114.481 68.8674 114.465C68.9097 114.448 68.9521 114.431 68.9944 114.414C69.0367 113.906 69.1213 113.445 69.2483 113.03C69.3837 112.607 69.5276 112.196 69.6799 111.798C69.8407 111.401 69.9973 111.003 70.1497 110.605C70.3105 110.199 70.4417 109.759 70.5432 109.285C70.6532 109.175 70.7421 109.044 70.8098 108.891C70.886 108.739 70.9579 108.587 71.0256 108.434C71.1018 108.273 71.1864 108.121 71.2795 107.977C71.3811 107.833 71.5165 107.715 71.6858 107.622C71.762 107.63 71.8297 107.647 71.8889 107.673C71.9566 107.689 72.0201 107.711 72.0793 107.736C72.1386 107.761 72.2021 107.783 72.2698 107.799C72.3375 107.816 72.4094 107.825 72.4856 107.825C72.5194 107.867 72.5491 107.918 72.5745 107.977C72.5999 108.028 72.6337 108.075 72.676 108.117L72.9045 108.079C73.0146 108.172 73.1119 108.29 73.1965 108.434C73.2812 108.57 73.3404 108.714 73.3743 108.866C73.4081 109.01 73.4039 109.154 73.3616 109.298C73.3193 109.433 73.2219 109.539 73.0696 109.615C73.078 109.666 73.078 109.704 73.0696 109.729C73.0611 109.755 73.0484 109.78 73.0315 109.805C73.023 109.822 73.0188 109.843 73.0188 109.869C73.0188 109.886 73.0357 109.911 73.0696 109.945C72.9765 110.021 72.8918 110.118 72.8157 110.237C72.7395 110.347 72.676 110.465 72.6252 110.592C72.5745 110.719 72.5321 110.846 72.4983 110.973C72.4729 111.1 72.456 111.219 72.4475 111.329C72.693 111.075 72.9807 110.838 73.3108 110.618C73.6409 110.398 73.9286 110.19 74.1741 109.996C74.3687 109.86 74.538 109.733 74.6819 109.615C74.8342 109.488 74.9866 109.374 75.1389 109.272C75.2913 109.162 75.4478 109.061 75.6086 108.967C75.7779 108.866 75.9472 108.756 76.1165 108.637C76.2011 108.604 76.2646 108.595 76.3069 108.612C76.3577 108.629 76.4042 108.65 76.4465 108.675C76.455 108.616 76.4423 108.582 76.4084 108.574C76.3746 108.557 76.3619 108.515 76.3704 108.447C76.5142 108.405 76.6412 108.354 76.7512 108.295C76.8697 108.235 76.9924 108.18 77.1194 108.13C77.204 108.223 77.2887 108.324 77.3733 108.434C77.4579 108.536 77.5722 108.591 77.7161 108.599C77.7668 108.709 77.8261 108.794 77.8938 108.853C77.97 108.904 78.0419 108.955 78.1096 109.006C78.1858 109.056 78.2493 109.12 78.3 109.196C78.3508 109.264 78.3805 109.374 78.3889 109.526C78.3551 109.594 78.3127 109.67 78.262 109.755C78.2196 109.831 78.1816 109.928 78.1477 110.047C77.9446 110.233 77.7372 110.398 77.5256 110.542C77.3225 110.677 77.1109 110.808 76.8909 110.935C76.6793 111.062 76.4592 111.193 76.2307 111.329C76.0107 111.464 75.7864 111.621 75.5579 111.798C75.5071 111.875 75.4436 111.942 75.3674 112.002C75.2913 112.061 75.2109 112.12 75.1262 112.179C75.05 112.23 74.9739 112.285 74.8977 112.344C74.83 112.404 74.775 112.476 74.7327 112.56C74.6988 112.56 74.6692 112.564 74.6438 112.573C74.6184 112.573 74.5888 112.577 74.5549 112.586C74.5211 112.653 74.4703 112.708 74.4026 112.751C74.3433 112.793 74.301 112.848 74.2756 112.916C74.428 113.246 74.6269 113.495 74.8723 113.665C75.1178 113.834 75.3928 113.957 75.6975 114.033C76.0022 114.109 76.3323 114.151 76.6877 114.16C77.0432 114.168 77.4114 114.173 77.7922 114.173C77.8346 114.164 77.8515 114.143 77.843 114.109C77.843 114.067 77.8684 114.05 77.9192 114.058C78.0461 114.101 78.1519 114.151 78.2366 114.211C78.3212 114.27 78.4016 114.333 78.4778 114.401C78.554 114.469 78.6259 114.541 78.6936 114.617C78.7698 114.685 78.8544 114.757 78.9475 114.833C78.9306 115.23 78.8121 115.556 78.592 115.81C78.3805 116.056 78.0969 116.255 77.7415 116.407C77.2506 116.424 76.8232 116.411 76.4592 116.369C76.0953 116.326 75.7356 116.233 75.3801 116.09C75.3547 116.081 75.3293 116.056 75.304 116.013C75.287 115.971 75.2701 115.941 75.2532 115.924C75.1855 115.882 75.1093 115.865 75.0247 115.874C74.94 115.882 74.8681 115.874 74.8088 115.848C74.7327 115.814 74.6057 115.738 74.428 115.62C74.2587 115.501 74.1021 115.391 73.9583 115.29C73.7805 115.146 73.607 115.006 73.4377 114.871C73.2769 114.727 73.1331 114.57 73.0061 114.401C72.9807 114.359 72.9426 114.338 72.8918 114.338C72.8495 114.338 72.8072 114.325 72.7649 114.299C72.4687 114.486 72.219 114.718 72.0159 114.998C71.8212 115.269 71.6308 115.548 71.4446 115.836C71.2584 116.115 71.0595 116.382 70.8479 116.635C70.6448 116.881 70.3866 117.071 70.0735 117.207C69.9804 117.207 69.9 117.19 69.8323 117.156C69.7646 117.131 69.7011 117.092 69.6418 117.042C69.5826 116.999 69.5234 116.957 69.4641 116.915C69.4049 116.872 69.3372 116.843 69.261 116.826C69.261 116.707 69.2356 116.597 69.1848 116.496C69.1425 116.386 69.0959 116.288 69.0452 116.204C69.0028 116.111 68.969 116.022 68.9436 115.937C68.9267 115.853 68.9521 115.768 69.0198 115.683C68.9267 115.607 68.8378 115.544 68.7532 115.493C68.8124 115.434 68.8378 115.379 68.8293 115.328C68.8293 115.277 68.8167 115.226 68.7913 115.175C68.7659 115.125 68.7447 115.074 68.7278 115.023C68.7193 114.964 68.7362 114.9 68.7786 114.833C68.8124 114.824 68.8251 114.807 68.8167 114.782C68.8167 114.757 68.8293 114.735 68.8547 114.718ZM78.6936 114.033C78.6936 113.94 78.7063 113.855 78.7317 113.779C78.7571 113.703 78.7613 113.605 78.7444 113.487C79.0068 112.928 79.303 112.412 79.6331 111.938C79.9716 111.456 80.3736 111.033 80.8391 110.669C80.9153 110.609 80.9745 110.55 81.0168 110.491C81.0676 110.423 81.1142 110.36 81.1565 110.3C81.2073 110.241 81.2623 110.19 81.3215 110.148C81.3808 110.097 81.4569 110.063 81.55 110.047C81.7616 109.801 82.0155 109.577 82.3118 109.374C82.608 109.171 82.9169 108.976 83.2385 108.79C83.5601 108.604 83.8818 108.413 84.2034 108.218C84.5334 108.024 84.8297 107.812 85.092 107.584C85.1851 107.643 85.2571 107.664 85.3079 107.647C85.3671 107.622 85.4264 107.618 85.4856 107.634C85.5618 107.795 85.6591 107.909 85.7776 107.977C85.9045 108.036 86.0315 108.1 86.1584 108.168C86.2939 108.227 86.4166 108.303 86.5266 108.396C86.6451 108.481 86.734 108.599 86.7932 108.752C86.734 108.752 86.7043 108.773 86.7043 108.815C86.7128 108.857 86.7255 108.904 86.7424 108.955C86.7594 109.006 86.7678 109.052 86.7678 109.094C86.7678 109.137 86.7297 109.158 86.6536 109.158C86.6536 109.217 86.6832 109.247 86.7424 109.247C86.8017 109.247 86.8313 109.276 86.8313 109.336C86.8313 109.386 86.8186 109.429 86.7932 109.463C86.7763 109.488 86.7763 109.534 86.7932 109.602C86.5901 109.738 86.3616 109.869 86.1077 109.996C85.8622 110.114 85.5999 110.241 85.3206 110.377C85.0497 110.512 84.7704 110.66 84.4827 110.821C84.2034 110.973 83.9241 111.151 83.6448 111.354C83.3655 111.557 83.0819 111.782 82.7942 112.027C82.5149 112.272 82.2441 112.535 81.9817 112.814C81.7193 113.085 81.4739 113.368 81.2454 113.665C81.0168 113.952 80.8222 114.236 80.6614 114.515C80.6783 114.558 80.6995 114.596 80.7249 114.63C80.7587 114.663 80.7841 114.701 80.801 114.744C81.1226 114.761 81.4231 114.761 81.7024 114.744C81.9817 114.718 82.261 114.735 82.5403 114.795C82.5741 114.769 82.5953 114.735 82.6038 114.693C82.6122 114.651 82.6376 114.621 82.6799 114.604C83.2555 114.545 83.7929 114.452 84.2922 114.325C84.7916 114.189 85.2994 114.054 85.8157 113.919C85.6633 113.859 85.5279 113.813 85.4094 113.779C85.3586 113.728 85.3586 113.686 85.4094 113.652C85.4687 113.61 85.5152 113.567 85.5491 113.525C85.4137 113.449 85.2994 113.347 85.2063 113.22C85.1217 113.093 85.0709 112.928 85.054 112.725C85.1132 112.674 85.1428 112.615 85.1428 112.548C85.1428 112.48 85.1132 112.425 85.054 112.382C85.0116 112.366 84.9862 112.366 84.9778 112.382C84.9693 112.399 84.9609 112.416 84.9524 112.433C84.9524 112.45 84.9439 112.467 84.927 112.484C84.9185 112.501 84.8974 112.501 84.8635 112.484C84.872 112.391 84.8931 112.315 84.927 112.256C84.9609 112.196 84.9862 112.124 85.0032 112.04L86.0569 111.341C86.1669 111.426 86.3023 111.515 86.4631 111.608C86.6239 111.701 86.7932 111.794 86.9709 111.887C87.1487 111.98 87.3306 112.078 87.5168 112.179C87.703 112.272 87.8765 112.366 88.0374 112.459C88.1897 112.526 88.3209 112.611 88.4309 112.713C88.5409 112.806 88.6467 112.907 88.7483 113.017C88.8499 113.119 88.9514 113.22 89.053 113.322C89.1545 113.423 89.2773 113.508 89.4211 113.576C89.4042 113.711 89.4127 113.821 89.4465 113.906C89.4804 113.991 89.4889 114.092 89.4719 114.211C89.3111 114.498 89.1165 114.744 88.8879 114.947C88.6594 115.142 88.4013 115.311 88.1135 115.455C87.8342 115.599 87.5338 115.721 87.2122 115.823C86.8905 115.916 86.5605 116.009 86.2219 116.102C85.8834 116.187 85.5406 116.28 85.1936 116.382C84.8551 116.475 84.5208 116.585 84.1907 116.712C84.0468 116.712 83.9241 116.716 83.8225 116.724C83.7209 116.733 83.6236 116.745 83.5305 116.762C83.4374 116.779 83.3443 116.796 83.2512 116.813C83.1581 116.83 83.0566 116.843 82.9465 116.851C82.9042 116.843 82.8746 116.851 82.8577 116.877C82.8492 116.902 82.8323 116.923 82.8069 116.94C82.6376 116.965 82.4853 116.978 82.3499 116.978C82.2144 116.978 82.1002 116.978 82.0071 116.978C81.8886 116.978 81.7659 116.995 81.6389 117.029C81.512 117.063 81.3935 117.076 81.2834 117.067C80.5217 117.033 79.925 116.762 79.4934 116.255C79.0618 115.747 78.8248 115.048 78.7825 114.16C78.7909 114.118 78.7825 114.092 78.7571 114.084C78.7317 114.067 78.7105 114.05 78.6936 114.033Z" fill="#FBBC40"/>
</g>
<path d="M163.446 56.2862C163.475 56.1716 163.49 56.0857 163.49 56.0284C163.519 55.9712 163.476 55.8995 163.362 55.8133C163.305 55.6127 163.348 55.4839 163.491 55.4269C163.635 55.3699 163.778 55.3129 163.921 55.2559C164.068 53.5375 164.358 51.9769 164.791 50.5742C165.252 49.1429 165.742 47.7547 166.261 46.4095C166.808 45.0643 167.341 43.7191 167.86 42.3739C168.407 41.0001 168.854 39.5114 169.201 37.908C169.575 37.5365 169.876 37.0931 170.107 36.578C170.366 36.0629 170.61 35.5478 170.841 35.0327C171.1 34.489 171.387 33.974 171.703 33.4877C172.048 33.0015 172.507 32.6014 173.081 32.2876C173.339 32.3168 173.568 32.3746 173.768 32.461C173.997 32.5187 174.212 32.5908 174.412 32.6772C174.612 32.7636 174.827 32.8357 175.056 32.8935C175.285 32.9512 175.529 32.9804 175.786 32.981C175.901 33.1245 176.001 33.2966 176.086 33.4973C176.172 33.6693 176.286 33.8271 176.429 33.9707L177.203 33.8435C177.574 34.1594 177.903 34.5611 178.188 35.0487C178.474 35.5077 178.673 35.9951 178.787 36.511C178.9 36.9982 178.885 37.4851 178.74 37.9718C178.596 38.4298 178.266 38.7872 177.75 39.0439C177.778 39.2158 177.778 39.3447 177.749 39.4306C177.72 39.5165 177.677 39.6023 177.619 39.6881C177.591 39.7454 177.576 39.8169 177.576 39.9029C177.576 39.9602 177.633 40.0462 177.747 40.1611C177.432 40.4182 177.144 40.747 176.886 41.1475C176.627 41.5193 176.411 41.9199 176.239 42.3492C176.066 42.7785 175.922 43.2079 175.806 43.6373C175.719 44.0668 175.661 44.4677 175.632 44.84C176.464 43.9825 177.44 43.1825 178.559 42.4402C179.678 41.6978 180.653 40.9981 181.485 40.3411C182.145 39.8842 182.719 39.4558 183.207 39.0558C183.723 38.6272 184.24 38.2416 184.756 37.899C185.273 37.5277 185.803 37.1851 186.348 36.8712C186.922 36.5287 187.496 36.1576 188.069 35.7578C188.356 35.6438 188.571 35.6157 188.714 35.6733C188.886 35.7309 189.043 35.8029 189.186 35.8891C189.215 35.6887 189.173 35.574 189.058 35.5451C188.944 35.4876 188.901 35.3442 188.93 35.1151C189.418 34.973 189.848 34.802 190.22 34.6023C190.622 34.4027 191.038 34.2174 191.468 34.0464C191.753 34.3622 192.039 34.7065 192.325 35.0796C192.611 35.4239 192.997 35.611 193.484 35.6407C193.655 36.0135 193.855 36.3004 194.083 36.5014C194.341 36.6738 194.584 36.8462 194.813 37.0186C195.07 37.191 195.285 37.4063 195.456 37.6645C195.627 37.8941 195.727 38.2667 195.754 38.7824C195.639 39.0113 195.495 39.2688 195.323 39.5549C195.179 39.8124 195.049 40.1415 194.934 40.5423C194.245 41.171 193.542 41.7281 192.825 42.2135C192.136 42.6703 191.419 43.1128 190.674 43.5408C189.956 43.969 189.211 44.4113 188.436 44.868C187.691 45.3247 186.93 45.853 186.155 46.4529C185.983 46.7103 185.768 46.939 185.509 47.1389C185.251 47.3389 184.979 47.5388 184.692 47.7387C184.434 47.91 184.175 48.0957 183.917 48.2956C183.687 48.4957 183.501 48.7387 183.357 49.0249C183.242 49.0246 183.142 49.0387 183.056 49.0672C182.97 49.067 182.87 49.0811 182.755 49.1095C182.64 49.3384 182.468 49.5242 182.238 49.667C182.037 49.8098 181.894 49.9956 181.807 50.2246C182.321 51.3429 182.992 52.1895 183.821 52.7642C184.651 53.3389 185.581 53.7563 186.612 54.0164C187.642 54.2764 188.759 54.4221 189.962 54.4534C191.165 54.4846 192.411 54.5017 193.7 54.5045C193.844 54.4762 193.901 54.4047 193.873 54.29C193.873 54.1468 193.959 54.0897 194.131 54.1187C194.56 54.2629 194.918 54.4355 195.204 54.6367C195.49 54.8378 195.762 55.0533 196.019 55.283C196.276 55.5127 196.519 55.7567 196.748 56.015C197.005 56.2448 197.291 56.4889 197.606 56.7474C197.545 58.0936 197.142 59.1956 196.395 60.0534C195.677 60.8825 194.716 61.5536 193.512 62.0666C191.85 62.1203 190.404 62.0741 189.173 61.9282C187.941 61.7823 186.724 61.4645 185.522 60.9749C185.436 60.9461 185.351 60.86 185.265 60.7166C185.208 60.5732 185.151 60.4728 185.094 60.4154C184.865 60.2717 184.607 60.2138 184.321 60.2419C184.034 60.2699 183.791 60.2407 183.59 60.1543C183.333 60.0392 182.904 59.7804 182.303 59.3781C181.731 58.9758 181.202 58.6022 180.716 58.2574C180.115 57.7691 179.529 57.2952 178.957 56.8356C178.414 56.3474 177.928 55.8164 177.5 55.2426C177.414 55.0992 177.285 55.0273 177.113 55.0269C176.97 55.0266 176.827 54.9833 176.684 54.8971C175.68 55.5251 174.833 56.311 174.144 57.2548C173.483 58.17 172.836 59.1139 172.204 60.0865C171.572 61.0304 170.896 61.9313 170.178 62.7891C169.489 63.6184 168.614 64.261 167.553 64.717C167.238 64.7163 166.966 64.6584 166.737 64.5433C166.508 64.4569 166.294 64.3275 166.093 64.1552C165.893 64.0116 165.693 63.8679 165.493 63.7242C165.293 63.5806 165.064 63.4798 164.806 63.4219C164.807 63.0209 164.722 62.6483 164.551 62.3042C164.408 61.9315 164.251 61.6017 164.08 61.3149C163.938 60.9995 163.824 60.6984 163.738 60.4118C163.682 60.1252 163.768 59.8389 163.998 59.553C163.683 59.2945 163.383 59.079 163.097 58.9065C163.298 58.7064 163.384 58.5204 163.356 58.3485C163.356 58.1766 163.314 58.0046 163.228 57.8326C163.143 57.6605 163.071 57.4885 163.015 57.3165C162.986 57.1159 163.044 56.9012 163.188 56.6723C163.302 56.6439 163.346 56.5867 163.317 56.5007C163.317 56.4148 163.36 56.3433 163.446 56.2862ZM199.139 62.7664C198.911 62.5367 198.74 62.2642 198.626 61.9488C198.54 61.6336 198.312 61.3752 197.94 61.1739C197.883 60.7441 197.799 60.2569 197.685 59.7124C197.6 59.1393 197.501 58.5662 197.388 57.993C197.304 57.3913 197.233 56.8039 197.177 56.2308C197.15 55.6292 197.18 55.085 197.267 54.5982C197.325 54.3405 197.411 54.0972 197.526 53.8683C197.67 53.6394 197.799 53.4249 197.914 53.2246C198.058 52.9958 198.159 52.7668 198.216 52.5378C198.303 52.3088 198.318 52.0797 198.261 51.8504C198.433 51.8221 198.533 51.7364 198.562 51.5932C198.62 51.4215 198.763 51.3645 198.992 51.4223C199.194 50.7925 199.41 50.2057 199.641 49.662C199.871 49.1182 200.116 48.5888 200.375 48.0737C200.634 47.5587 200.893 47.0436 201.151 46.5285C201.439 45.9849 201.698 45.3839 201.929 44.7255C201.443 44.2661 201.086 43.7784 200.858 43.2623C200.658 42.7176 200.502 42.1729 200.389 41.6284C200.275 41.0839 200.191 40.5394 200.134 39.9951C200.078 39.422 199.965 38.8488 199.794 38.2756C200.139 37.7607 200.556 37.3462 201.043 37.0322C201.531 36.6895 202.062 36.4185 202.635 36.2192C203.237 35.9914 203.882 35.8209 204.57 35.7078C205.257 35.5661 205.988 35.4102 206.762 35.24C208.138 34.8133 209.37 34.4865 210.459 34.2598C211.549 34.0043 212.609 33.8061 213.64 33.6651C214.672 33.4955 215.747 33.3546 216.864 33.2425C217.982 33.1017 219.271 32.904 220.733 32.6493C220.761 32.7353 220.804 32.7784 220.861 32.7785C220.947 32.7787 221.047 32.7789 221.162 32.7792C221.247 32.9799 221.405 33.0805 221.634 33.081C221.634 32.9951 221.62 32.9234 221.591 32.8661C221.592 32.7801 221.592 32.7085 221.592 32.6512C221.649 32.6513 221.721 32.6658 221.807 32.6947C221.921 32.7236 222.007 32.7524 222.064 32.7812C222.15 32.81 222.222 32.8101 222.279 32.7816C222.337 32.7245 222.351 32.6242 222.323 32.4809C222.665 33.0833 223.108 33.5855 223.652 33.9877C224.195 34.3613 224.796 34.6921 225.454 34.98C225.482 35.2378 225.482 35.424 225.453 35.5386C225.453 35.6531 225.438 35.7677 225.409 35.8822C225.38 35.9681 225.366 36.0826 225.365 36.2259C225.365 36.3405 225.393 36.5124 225.45 36.7417C224.99 37.5141 224.459 38.1145 223.856 38.5429C223.283 38.9713 222.666 39.2994 222.007 39.5271C221.347 39.7549 220.645 39.9252 219.9 40.0382C219.184 40.1512 218.439 40.2785 217.665 40.42C216.92 40.533 216.16 40.7032 215.386 40.9307C214.612 41.1582 213.853 41.5002 213.107 41.957C212.878 41.8705 212.663 41.8414 212.462 41.8696C212.291 41.8692 212.104 41.8975 211.904 41.9543C211.703 42.0112 211.474 42.068 211.216 42.1247C210.986 42.1815 210.7 42.1809 210.356 42.1228C210.127 42.3228 209.854 42.4655 209.539 42.5507C209.252 42.636 208.951 42.7213 208.636 42.8066C208.779 43.122 208.835 43.4372 208.806 43.7523C208.805 44.0674 208.848 44.3396 208.933 44.5689C210.136 44.6862 211.468 44.6891 212.929 44.5777C214.39 44.4376 215.823 44.3405 217.227 44.2863C217.255 44.4295 217.24 44.5298 217.183 44.5869C217.126 44.6441 217.097 44.7443 217.096 44.8875C217.354 45.06 217.597 45.2753 217.826 45.5337C218.054 45.792 218.283 46.0503 218.511 46.3086C218.769 46.5383 219.026 46.7394 219.283 46.9118C219.541 47.0556 219.842 47.1136 220.185 47.0857C220.328 47.3725 220.428 47.6735 220.484 47.9887C220.541 48.3039 220.497 48.6332 220.353 48.9767C219.779 49.3478 219.22 49.7333 218.675 50.1332C218.13 50.5044 217.556 50.8469 216.954 51.1607C216.38 51.4745 215.75 51.731 215.062 51.93C214.374 52.129 213.629 52.2133 212.827 52.1829C212.683 52.1826 212.555 52.1823 212.44 52.1821C212.354 52.1819 212.24 52.1244 212.097 52.0095C211.81 52.1521 211.423 52.2085 210.936 52.1788C210.478 52.1205 210.091 52.1626 209.776 52.3052C209.375 52.1611 208.902 52.0884 208.358 52.0872C207.842 52.0861 207.384 52.0135 206.984 51.8694C206.466 52.6131 205.978 53.3998 205.517 54.2295C205.057 55.0306 204.654 55.8891 204.309 56.805C205.483 56.9794 206.457 57.0532 207.23 57.0262C208.004 56.9992 208.734 56.9435 209.422 56.8591C210.11 56.7747 210.812 56.6903 211.528 56.6059C212.273 56.5216 213.175 56.4949 214.235 56.5259C214.952 56.1837 215.769 55.9563 216.686 55.8437C217.631 55.7025 218.506 55.5039 219.308 55.2479C219.595 55.3344 219.838 55.5068 220.038 55.7651C220.238 55.9947 220.423 56.2386 220.595 56.4968C220.795 56.7264 220.995 56.9273 221.195 57.0996C221.395 57.2719 221.653 57.3298 221.968 57.2732C222.111 57.4167 222.196 57.5888 222.225 57.7894C222.281 57.99 222.324 58.1763 222.352 58.3483C222.409 58.5203 222.481 58.6636 222.566 58.7784C222.652 58.8645 222.809 58.8935 223.039 58.8654C222.492 59.9814 221.874 60.8394 221.185 61.4395C220.525 62.0396 219.765 62.5106 218.905 62.8525C218.074 63.1658 217.128 63.4072 216.067 63.5767C215.036 63.7177 213.875 63.9014 212.586 64.1277C212.271 64.1843 211.998 64.1838 211.769 64.126C211.569 64.0396 211.354 63.9961 211.125 63.9957C210.323 64.1371 209.363 64.2783 208.245 64.4191C207.156 64.5599 206.053 64.6148 204.936 64.5837C203.819 64.5526 202.745 64.4071 201.715 64.147C200.684 63.8869 199.826 63.4267 199.139 62.7664ZM226.769 62.6977C226.654 62.5829 226.554 62.4538 226.469 62.3104C226.383 62.1383 226.312 61.9233 226.255 61.6654C225.855 61.1775 225.541 60.6182 225.314 59.9875C225.086 59.3568 224.93 58.712 224.845 58.0529C224.761 57.3652 224.748 56.6777 224.807 55.9903C224.865 55.3029 224.967 54.6586 225.112 54.0574C225.198 53.7711 225.27 53.4705 225.328 53.1555C225.473 52.6116 225.617 52.0819 225.762 51.5666C225.906 51.0227 226.122 50.5791 226.409 50.236C226.295 49.9206 226.31 49.5769 226.454 49.2048C226.598 48.8328 226.742 48.4893 226.886 48.1745C226.944 48.0887 226.987 48.0172 227.016 47.96C227.044 47.8741 227.073 47.8025 227.102 47.7453C227.448 46.7435 227.779 45.7845 228.097 44.8686C228.442 43.924 228.774 43.0224 229.091 42.1637C229.667 40.5894 230.215 39.0437 230.734 37.5266C231.281 36.0096 231.772 34.3922 232.205 32.6744C232.435 32.503 232.636 32.3889 232.808 32.3319C232.865 32.3034 232.937 32.2749 233.023 32.2465C233.109 32.218 233.209 32.2039 233.323 32.2042C233.924 32.5206 234.625 32.8229 235.427 33.1111C236.257 33.3707 236.959 33.5012 237.532 33.5024L238.261 34.1485C238.632 34.579 238.946 35.038 239.203 35.5256C239.488 35.9845 239.573 36.5863 239.457 37.3308C239.284 37.5883 239.141 37.7455 239.026 37.8025C238.853 38.461 238.665 39.0479 238.464 39.563C238.262 40.0496 238.06 40.5218 237.859 40.9797C237.629 41.4948 237.413 42.01 237.211 42.5252C237.009 43.0403 236.836 43.6702 236.691 44.4147C236.519 44.6148 236.404 44.7864 236.346 44.9295C236.317 45.0727 236.274 45.2158 236.217 45.3589C236.159 45.5307 236.087 45.7167 236.001 45.9171C235.914 46.0887 235.785 46.246 235.613 46.3889C235.496 47.2766 235.323 48.0067 235.092 48.5791C234.862 49.1229 234.632 49.6667 234.401 50.2105C233.998 51.2122 233.624 52.214 233.278 53.2158C232.932 54.189 232.729 55.3058 232.669 56.5661C233.013 56.4809 233.328 56.4386 233.614 56.4392C233.987 56.44 234.345 56.4981 234.688 56.6134C235.721 56.1001 236.838 55.7874 238.042 55.6754C239.274 55.5635 240.491 55.4946 241.695 55.4686C242.697 55.4708 243.628 55.4298 244.488 55.3458C244.774 55.5469 244.96 55.6619 245.046 55.6907C245.132 55.6909 245.275 55.6912 245.475 55.6917C245.561 55.6918 245.647 55.692 245.733 55.6922C245.819 55.6924 245.934 55.707 246.077 55.7359C246.477 56.1379 246.863 56.4252 247.235 56.5978C247.607 56.7419 248.008 56.886 248.437 57.0302C248.809 57.1742 249.167 57.3325 249.51 57.5052C249.883 57.6492 250.24 57.8505 250.583 58.1091L250.965 60.3013C251.194 60.6169 251.294 60.832 251.265 60.9465C251.264 61.1757 251.206 61.3761 251.091 61.5477L251.176 62.1065C250.632 62.2199 250.273 62.348 250.101 62.4908C249.929 62.605 249.742 62.7622 249.542 62.9623C249.226 62.9902 248.926 63.0039 248.639 63.0033C248.066 63.002 247.479 63.0867 246.877 63.2572C246.018 62.9403 245.073 62.7806 244.042 62.7784C243.641 62.7775 243.225 62.7909 242.796 62.8186C242.395 62.8464 241.993 62.8885 241.592 62.9449C241.162 63.0013 240.733 63.0576 240.303 63.114C239.873 63.1417 239.443 63.1551 239.014 63.1541C238.67 63.2107 238.426 63.2531 238.283 63.2815C238.14 63.3098 237.996 63.3524 237.853 63.4094C236.878 63.7224 235.818 64.0352 234.671 64.3478C233.553 64.6605 232.422 64.8155 231.276 64.813C229.586 64.8094 228.226 64.3767 227.196 63.5151C227.082 63.257 226.997 63.085 226.94 62.9989C226.883 62.9128 226.826 62.8125 226.769 62.6977ZM254.612 62.7585C254.498 62.6437 254.398 62.5145 254.312 62.3711C254.227 62.199 254.156 61.984 254.099 61.7261C253.699 61.2383 253.385 60.679 253.157 60.0483C252.929 59.4176 252.773 58.7727 252.689 58.1137C252.604 57.426 252.592 56.7384 252.65 56.0511C252.709 55.3637 252.811 54.7194 252.955 54.1181C253.042 53.8319 253.114 53.5312 253.172 53.2163C253.317 52.6723 253.461 52.1427 253.605 51.6274C253.75 51.0834 253.966 50.6399 254.253 50.2967C254.139 49.9814 254.154 49.6377 254.298 49.2656C254.442 48.8935 254.586 48.5501 254.73 48.2353C254.787 48.1495 254.83 48.0779 254.859 48.0207C254.888 47.9348 254.917 47.8633 254.946 47.8061C255.292 46.8042 255.623 45.8453 255.94 44.9293C256.286 43.9847 256.617 43.0831 256.934 42.2244C257.511 40.6502 258.058 39.1045 258.577 37.5874C259.125 36.0703 259.615 34.4529 260.049 32.7351C260.278 32.5637 260.479 32.4496 260.651 32.3927C260.709 32.3642 260.78 32.3357 260.866 32.3072C260.952 32.2788 261.053 32.2646 261.167 32.2649C261.768 32.5813 262.469 32.8836 263.271 33.1718C264.101 33.4315 264.802 33.5619 265.375 33.5631L266.104 34.2093C266.476 34.6398 266.79 35.0988 267.047 35.5863C267.332 36.0453 267.417 36.647 267.3 37.3916C267.128 37.649 266.984 37.8062 266.87 37.8633C266.696 38.5218 266.509 39.1086 266.307 39.6238C266.106 40.1103 265.904 40.5825 265.703 41.0404C265.472 41.5556 265.256 42.0707 265.055 42.5859C264.853 43.1011 264.68 43.7309 264.535 44.4754C264.363 44.6755 264.248 44.8472 264.19 44.9903C264.161 45.1334 264.118 45.2766 264.06 45.4197C264.003 45.5914 263.931 45.7775 263.844 45.9778C263.758 46.1495 263.629 46.3068 263.456 46.4496C263.34 47.3374 263.166 48.0675 262.936 48.6399C262.706 49.1837 262.475 49.7274 262.245 50.2712C261.842 51.2729 261.467 52.2747 261.121 53.2766C260.775 54.2498 260.572 55.3665 260.512 56.6268C260.856 56.5416 261.172 56.4993 261.458 56.5C261.83 56.5008 262.188 56.5589 262.532 56.6742C263.564 56.1608 264.682 55.8481 265.885 55.7362C267.117 55.6243 268.335 55.5553 269.538 55.5293C270.541 55.5315 271.472 55.4906 272.331 55.4065C272.617 55.6076 272.803 55.7226 272.889 55.7515C272.975 55.7517 273.118 55.752 273.319 55.7524C273.405 55.7526 273.491 55.7528 273.577 55.753C273.663 55.7532 273.777 55.7677 273.92 55.7967C274.321 56.1986 274.707 56.4859 275.079 56.6586C275.451 56.8026 275.852 56.9467 276.281 57.0909C276.653 57.2349 277.011 57.3933 277.354 57.5659C277.726 57.7099 278.084 57.9112 278.427 58.1698L278.809 60.362C279.037 60.6776 279.137 60.8927 279.108 61.0072C279.108 61.2364 279.05 61.4368 278.935 61.6084L279.02 62.1672C278.475 62.2806 278.117 62.4087 277.945 62.5516C277.773 62.6658 277.586 62.8229 277.385 63.023C277.07 63.051 276.769 63.0646 276.483 63.064C275.91 63.0628 275.322 63.1474 274.72 63.318C273.862 63.001 272.917 62.8414 271.886 62.8391C271.485 62.8383 271.069 62.8517 270.639 62.8794C270.238 62.9072 269.837 62.9493 269.436 63.0057C269.006 63.062 268.576 63.1184 268.147 63.1747C267.717 63.2024 267.287 63.2158 266.857 63.2149C266.514 63.2714 266.27 63.3139 266.127 63.3422C265.983 63.3705 265.84 63.4132 265.697 63.4702C264.722 63.7831 263.661 64.0959 262.515 64.4085C261.397 64.7212 260.265 64.8763 259.119 64.8738C257.429 64.8701 256.07 64.4374 255.04 63.5758C254.926 63.3178 254.841 63.1457 254.783 63.0596C254.726 62.9736 254.669 62.8732 254.612 62.7585ZM285.07 65.8328C282.55 65.4835 281.021 64.1481 280.482 61.8266L280.526 61.3541C280.641 61.0106 280.771 60.6241 280.915 60.1948C281.059 59.7081 281.218 59.2358 281.391 58.7778C281.563 58.2912 281.851 57.8622 282.253 57.4906C282.339 57.233 282.498 56.8466 282.728 56.3315C282.987 55.7878 283.404 54.9866 283.979 53.928C284.439 53.0983 284.799 52.4402 285.058 51.9538C285.345 51.4674 285.575 51.0955 285.748 50.8381C285.462 50.3218 285.062 49.8197 284.548 49.3316C284.091 48.4712 283.692 47.6539 283.35 46.8797C283.037 46.077 282.795 45.3603 282.624 44.7297C282.597 44.0421 282.484 43.3401 282.285 42.6235C282.2 42.2509 282.115 41.8783 282.03 41.5057C281.945 41.1332 281.903 40.7464 281.903 40.3453C281.789 40.1445 281.69 39.8865 281.604 39.5712L281.691 39.0558C281.835 38.8269 281.864 38.5262 281.779 38.1536C281.723 37.7525 281.638 37.3512 281.524 36.9499C281.439 36.5774 281.354 36.1905 281.269 35.7892C281.212 35.3594 281.199 34.944 281.229 34.543C281.258 34.1421 281.359 33.7556 281.532 33.3835C281.733 33.0116 282.063 32.6972 282.522 32.4404L282.953 32.1405L283.382 32.3993C283.696 32.6005 283.997 32.773 284.283 32.9169C284.569 33.0607 284.855 33.2046 285.141 33.3485C285.485 33.5211 285.828 33.708 286.171 33.9093C286.515 34.0819 286.887 34.2833 287.287 34.5133L287.716 34.815L287.672 35.2876C287.672 35.3449 287.686 35.4165 287.715 35.5025C287.743 35.5885 287.786 35.6602 287.843 35.7176L288.316 35.8476L288.357 36.4492L288.356 36.9648C288.356 37.2227 288.369 37.4089 288.398 37.5235C288.426 37.6095 288.483 37.7099 288.569 37.8247L288.783 38.3838C288.782 38.8994 288.824 39.3578 288.909 39.759C288.994 40.1603 289.093 40.5615 289.207 40.9628C289.349 41.3642 289.463 41.7798 289.548 42.2096C289.633 42.6109 289.646 43.0549 289.588 43.5418C289.76 43.4562 289.932 43.3277 290.104 43.1562C290.162 43.099 290.219 43.0418 290.277 42.9847C290.363 42.9276 290.449 42.8705 290.535 42.8134L293.551 38.7379L293.467 38.2221L294.543 37.1932C294.83 36.9646 295.103 36.7361 295.361 36.5075C295.619 36.2502 295.835 35.9642 296.007 35.6495L296.266 35.2634C297.559 33.5474 299.223 32.4911 301.257 32.0945L301.988 31.9243L302.202 32.6122C302.344 33.0136 302.615 33.3722 303.016 33.6882C303.445 33.9756 303.902 34.2631 304.389 34.5506L304.861 34.8524C305.032 35.1965 305.117 35.4545 305.117 35.6264C305.117 35.7983 305.102 35.9415 305.073 36.056L305.287 36.6151C304.97 37.4451 304.625 38.0459 304.251 38.4175C303.878 38.7604 303.491 39.089 303.089 39.4032C302.773 39.6604 302.486 39.9176 302.228 40.1748C301.97 40.4321 301.769 40.7181 301.625 41.0329L301.28 41.4618C300.563 41.8326 300.103 42.3759 299.901 43.0916L299.728 43.6928L299.084 43.6914C299.055 43.6913 298.983 43.7628 298.868 43.9058C298.754 44.0201 298.581 44.3205 298.351 44.807C298.092 45.1502 297.905 45.3789 297.791 45.4933C297.705 45.579 297.633 45.6505 297.575 45.7076C297.518 45.8507 297.46 45.9795 297.403 46.094C297.374 46.2085 297.33 46.3516 297.273 46.5234L297.014 46.8666C296.756 47.0952 296.569 47.3239 296.454 47.5529C296.339 47.7531 296.21 47.9963 296.066 48.2825C295.951 48.54 295.821 48.8119 295.677 49.098C295.534 49.3555 295.332 49.6129 295.074 49.8702L295.159 50.343L294.815 50.643C294.585 50.8431 294.384 51.1004 294.211 51.4152C294.039 51.7012 293.866 52.0016 293.694 52.3164C293.521 52.6597 293.334 53.0031 293.133 53.3464C292.932 53.6897 292.673 54.0043 292.357 54.29C292.156 54.8052 291.969 55.2058 291.796 55.4919C291.652 55.7781 291.394 56.1213 291.02 56.5215C290.674 57.8957 289.854 59.3692 288.562 60.9419C288.532 61.257 288.431 61.5718 288.259 61.8866C288.115 62.1727 287.957 62.4445 287.784 62.7019C287.727 62.8164 287.655 62.9452 287.569 63.0882C287.511 63.2027 287.468 63.2885 287.439 63.3457L287.309 63.8181C287.137 64.1328 286.95 64.3902 286.749 64.5903C286.577 64.7905 286.404 64.9763 286.232 65.1478C286.146 65.2049 286.06 65.2763 285.974 65.3621C285.916 65.4479 285.859 65.5194 285.802 65.5765L285.07 65.8328ZM313.146 38.3939C313.117 38.5371 313.045 38.6229 312.931 38.6513C312.845 38.6511 312.773 38.7225 312.715 38.8657C312.6 39.1805 312.528 39.3809 312.499 39.4667C312.47 39.524 312.442 39.5669 312.413 39.5955C312.384 39.5954 312.341 39.624 312.284 39.6811C312.255 39.7383 312.183 39.9101 312.068 40.1963C311.866 40.5969 311.608 41.0117 311.292 41.4407C311.004 41.8411 310.817 42.2417 310.731 42.6426C310.329 42.9855 309.826 43.4284 309.224 43.9713C308.65 44.4857 308.105 44.8426 307.589 45.042C307.331 44.9268 306.916 44.7541 306.344 44.5236C305.8 44.2646 305.271 43.977 304.756 43.6608C304.269 43.316 303.898 42.9714 303.641 42.6271C303.384 42.2542 303.413 41.8961 303.729 41.5531C304.246 41.0099 304.691 40.3664 305.065 39.6224C305.468 38.8498 305.813 38.0342 306.102 37.1754C306.419 36.2881 306.679 35.3863 306.881 34.4701C307.112 33.5253 307.315 32.6234 307.489 31.7644C307.603 31.8792 307.717 31.9224 307.832 31.894C307.975 31.8371 308.09 31.7657 308.176 31.68C308.291 31.5656 308.392 31.4369 308.478 31.2939C308.593 31.1509 308.679 31.0365 308.736 30.9507C308.908 31.0943 309.194 31.2668 309.595 31.4682C310.024 31.6697 310.468 31.8711 310.925 32.0727C311.383 32.2455 311.813 32.404 312.213 32.5481C312.614 32.6922 312.9 32.7788 313.072 32.8078C313.415 33.3528 313.6 33.8545 313.628 34.3129C313.655 34.7427 313.726 35.2012 313.839 35.6884C313.667 35.8313 313.566 36.0745 313.537 36.4182C313.508 36.7333 313.479 36.9624 313.45 37.1055C313.42 37.3346 313.363 37.4777 313.277 37.5348C313.219 37.5634 313.162 37.6778 313.104 37.8782C313.075 37.9354 313.075 38.0214 313.104 38.136C313.161 38.2507 313.175 38.3367 313.146 38.3939ZM309.737 45.0896C309.824 44.6601 309.882 44.3165 309.911 44.0588C309.94 43.7724 309.841 43.4714 309.612 43.1558C309.728 42.6977 309.815 42.3398 309.872 42.0821C309.959 41.8245 309.974 41.4664 309.918 41.008C310.177 40.2638 310.565 39.6344 311.082 39.1199C311.627 38.6055 312.216 38.1771 312.846 37.8347C313.477 37.4637 314.137 37.1643 314.825 36.9367C315.513 36.6803 316.158 36.4669 316.76 36.2963C316.76 36.1818 316.703 36.1243 316.588 36.1241C316.474 36.1238 316.445 36.0522 316.503 35.9091C318.051 35.626 319.598 35.214 321.146 34.6731C322.723 34.1323 324.328 33.6488 325.962 33.2227C327.596 32.7965 329.272 32.5424 330.991 32.4602C332.71 32.3494 334.514 32.5681 336.404 33.1165C336.518 33.4605 336.674 33.7903 336.874 34.1058C337.074 34.4214 337.274 34.7369 337.474 35.0525C337.702 35.3394 337.902 35.6263 338.073 35.9132C338.245 36.2 338.344 36.501 338.372 36.8161C338.715 37.132 338.987 37.4763 339.186 37.8492C339.415 38.1934 339.457 38.6662 339.312 39.2674C338.997 39.4959 338.667 39.7243 338.322 39.9528C337.978 40.1812 337.62 40.3952 337.247 40.595C335.958 40.277 334.67 40.1596 333.38 40.2428C332.091 40.3259 330.931 40.4236 329.899 40.536C329.585 40.1915 329.213 40.0332 328.783 40.0609C328.353 40.0599 327.895 40.1305 327.408 40.2727C326.949 40.3863 326.49 40.5142 326.032 40.6564C325.573 40.77 325.143 40.7977 324.743 40.7395C324.427 41.0253 324.011 41.2249 323.495 41.3384C322.979 41.4232 322.435 41.4936 321.862 41.5497C321.833 41.6928 321.861 41.7932 321.947 41.8506C322.033 41.9081 322.047 42.0227 321.989 42.1945C322.189 42.4527 322.461 42.6395 322.805 42.7549C323.148 42.8415 323.492 42.9282 323.835 43.0149C324.207 43.1017 324.537 43.2313 324.823 43.4038C325.109 43.5476 325.294 43.7915 325.38 44.1355C325.895 44.1652 326.339 44.3094 326.711 44.5681C327.083 44.798 327.397 45.0852 327.654 45.4295C327.911 45.7738 328.097 46.1466 328.21 46.5479C328.324 46.9206 328.366 47.2644 328.337 47.5794C328.451 47.8661 328.565 47.981 328.68 47.9239C328.823 47.867 328.981 47.9389 329.152 48.1398C329.266 48.5697 329.523 49.0286 329.923 49.5165C330.351 49.9758 330.68 50.4778 330.908 51.0226C330.963 51.8821 331.004 52.6556 331.031 53.3431C331.087 54.0308 330.971 54.7037 330.683 55.3619C330.194 56.6213 329.489 57.7512 328.57 58.7518C327.652 59.7525 326.604 60.6382 325.428 61.4091C324.28 62.1514 323.062 62.8075 321.771 63.3777C320.481 63.9191 319.205 64.3747 317.944 64.7443C317.83 64.7154 317.686 64.7151 317.514 64.7434C317.371 64.7717 317.343 64.6857 317.429 64.4854C317.171 64.714 316.87 64.8565 316.526 64.9131C316.21 64.9697 315.852 64.9832 315.451 64.9537C315.079 64.9529 314.692 64.9377 314.291 64.9082C313.919 64.8788 313.547 64.8923 313.174 64.9487C312.945 64.7191 312.731 64.4894 312.531 64.2598C312.36 64.0303 312.217 63.7579 312.103 63.4425C311.96 63.4135 311.889 63.3274 311.889 63.1842C311.918 63.0124 311.861 62.9263 311.718 62.926C311.718 62.8114 311.732 62.7255 311.761 62.6683C311.79 62.6111 311.819 62.5539 311.847 62.4966C311.962 62.4109 312.005 62.3537 311.977 62.325C311.977 62.2677 311.934 62.2247 311.848 62.1958C311.791 62.1384 311.719 62.081 311.634 62.0235C311.576 61.9661 311.562 61.8944 311.591 61.8086C311.735 61.5511 311.778 61.2504 311.722 60.9065C311.694 60.534 311.666 60.1616 311.638 59.7891C311.611 59.4167 311.64 59.073 311.727 58.7581C311.813 58.4145 312.057 58.1286 312.459 57.9003C313.633 58.0174 314.736 57.9626 315.768 57.7356C316.828 57.5088 317.817 57.1958 318.735 56.7968C319.681 56.3978 320.57 55.9701 321.402 55.5135C322.262 55.0284 323.094 54.5862 323.897 54.187C323.983 53.9007 324.113 53.6575 324.285 53.4573C324.486 53.2572 324.687 53.0715 324.888 52.9001C325.089 52.7 325.275 52.4999 325.448 52.2997C325.62 52.0709 325.75 51.7991 325.836 51.4841C325.865 51.3696 325.865 51.2837 325.837 51.2263C325.808 51.169 325.765 51.1259 325.708 51.0971C325.651 51.0397 325.594 50.9823 325.537 50.9249C325.48 50.8675 325.451 50.7815 325.451 50.6669C325.365 50.6381 325.28 50.6092 325.194 50.5804C325.136 50.5516 325.079 50.5372 325.022 50.5371C324.278 50.163 323.491 49.8462 322.661 49.5866C321.831 49.327 321.129 49.039 320.557 48.7226C320.213 48.951 319.869 49.0076 319.525 48.8922C319.182 48.7769 318.767 48.6614 318.28 48.5458C317.077 48.4859 315.932 48.3688 314.843 48.1945C313.784 48.0203 312.753 47.7173 311.752 47.2854C311.695 47.1134 311.623 46.9701 311.538 46.8553C311.452 46.7119 311.252 46.6685 310.936 46.7251C310.737 46.4382 310.522 46.1799 310.294 45.9502C310.094 45.692 309.908 45.4051 309.737 45.0896Z" fill="#4C7C7D"/>
<path d="M186.911 94.0171C186.912 93.702 186.955 93.4156 187.042 93.158C187.128 92.9004 187.143 92.571 187.087 92.1698C187.979 90.2812 188.986 88.536 190.106 86.9342C191.256 85.3039 192.619 83.8746 194.198 82.6463C194.456 82.4463 194.657 82.2462 194.801 82.046C194.973 81.8172 195.131 81.6027 195.275 81.4025C195.447 81.2024 195.633 81.0309 195.834 80.8881C196.035 80.7167 196.293 80.6027 196.608 80.5461C197.326 79.7169 198.187 78.9596 199.192 78.2743C200.196 77.589 201.243 76.9325 202.333 76.3046C203.423 75.6768 204.512 75.0346 205.602 74.3782C206.721 73.7217 207.725 73.0078 208.615 72.2363C208.93 72.4375 209.173 72.5096 209.345 72.4527C209.546 72.3672 209.746 72.3533 209.947 72.4111C210.203 72.9559 210.532 73.3433 210.932 73.5734C211.362 73.7748 211.791 73.9906 212.22 74.2207C212.678 74.4222 213.093 74.681 213.464 74.9969C213.865 75.2842 214.165 75.6859 214.364 76.202C214.164 76.2015 214.063 76.2729 214.063 76.4162C214.091 76.5594 214.134 76.7171 214.191 76.8891C214.248 77.0611 214.276 77.2187 214.276 77.3619C214.275 77.5052 214.146 77.5765 213.888 77.5759C213.888 77.7764 213.988 77.8769 214.189 77.8774C214.389 77.8778 214.489 77.9783 214.489 78.1788C214.488 78.3507 214.445 78.4938 214.359 78.6082C214.301 78.694 214.301 78.8516 214.358 79.0809C213.669 79.5377 212.895 79.98 212.035 80.4078C211.203 80.8071 210.314 81.2348 209.368 81.6911C208.45 82.1474 207.504 82.6466 206.529 83.1888C205.582 83.7024 204.635 84.3019 203.689 84.9873C202.742 85.6727 201.781 86.4297 200.805 87.2583C199.858 88.087 198.939 88.973 198.049 89.9164C197.159 90.8311 196.326 91.789 195.551 92.7899C194.775 93.7621 194.114 94.7203 193.568 95.6645C193.625 95.8078 193.696 95.9369 193.782 96.0516C193.896 96.1665 193.982 96.2956 194.039 96.4389C195.127 96.4986 196.144 96.5008 197.089 96.4456C198.035 96.3617 198.98 96.4211 199.925 96.6236C200.04 96.538 200.112 96.4235 200.141 96.2804C200.17 96.1372 200.256 96.0371 200.399 95.9801C202.347 95.7839 204.167 95.4727 205.858 95.0467C207.549 94.5921 209.269 94.1375 211.017 93.683C210.502 93.4813 210.044 93.3228 209.643 93.2073C209.472 93.0351 209.472 92.8919 209.644 92.7776C209.845 92.6349 210.003 92.492 210.118 92.349C209.66 92.0902 209.274 91.7456 208.96 91.3152C208.674 90.8849 208.504 90.3259 208.448 89.6383C208.649 89.4669 208.75 89.2666 208.75 89.0374C208.751 88.8082 208.651 88.6218 208.451 88.4782C208.307 88.4206 208.222 88.4204 208.193 88.4776C208.164 88.5348 208.135 88.5921 208.106 88.6493C208.106 88.7066 208.078 88.7638 208.02 88.821C207.991 88.8782 207.92 88.878 207.805 88.8205C207.835 88.5055 207.907 88.2478 208.022 88.0475C208.137 87.8473 208.223 87.604 208.281 87.3176L211.853 84.9621C212.225 85.2494 212.682 85.5512 213.226 85.8675C213.769 86.1838 214.342 86.5001 214.943 86.8165C215.543 87.1329 216.159 87.4637 216.788 87.8088C217.418 88.1253 218.004 88.4417 218.548 88.758C219.063 88.9883 219.506 89.2757 219.878 89.6203C220.25 89.9362 220.607 90.2807 220.95 90.6539C221.293 90.9984 221.636 91.3429 221.979 91.6874C222.322 92.0319 222.737 92.3192 223.223 92.5495C223.165 93.0077 223.193 93.3801 223.306 93.6668C223.42 93.9535 223.448 94.2973 223.39 94.6983C222.844 95.671 222.183 96.5003 221.408 97.1861C220.633 97.8433 219.758 98.4143 218.783 98.8992C217.837 99.3841 216.819 99.7972 215.73 100.139C214.641 100.451 213.523 100.764 212.376 101.077C211.23 101.361 210.069 101.673 208.894 102.014C207.747 102.327 206.615 102.697 205.497 103.124C205.01 103.123 204.594 103.136 204.251 103.164C203.907 103.192 203.577 103.234 203.262 103.291C202.947 103.348 202.632 103.404 202.316 103.461C202.001 103.518 201.657 103.56 201.285 103.588C201.142 103.559 201.041 103.587 200.984 103.673C200.955 103.759 200.898 103.83 200.811 103.887C200.238 103.972 199.723 104.014 199.264 104.013C198.806 104.012 198.419 104.011 198.104 104.01C197.703 104.009 197.288 104.066 196.858 104.179C196.428 104.293 196.027 104.335 195.654 104.306C193.076 104.186 191.059 103.264 189.602 101.543C188.145 99.8206 187.348 97.4556 187.211 94.4475C187.24 94.3043 187.211 94.2183 187.126 94.1895C187.04 94.132 186.968 94.0745 186.911 94.0171ZM222.819 100.584C222.675 100.612 222.547 100.512 222.433 100.282C222.319 100.024 222.19 99.7803 222.048 99.5508L222.52 99.5518C222.321 98.9212 222.265 98.3482 222.352 97.8327C222.468 97.2887 222.598 96.7734 222.742 96.2867C222.887 95.7714 223.002 95.2847 223.089 94.8265C223.205 94.3398 223.163 93.8384 222.963 93.3223C223.107 93.4086 223.207 93.3801 223.264 93.237C223.351 93.0654 223.408 92.865 223.438 92.6359C223.495 92.3782 223.51 92.1204 223.482 91.8625C223.483 91.5761 223.469 91.3469 223.441 91.1749C223.815 90.2877 224.104 89.3717 224.306 88.4268C224.537 87.482 224.74 86.5514 224.914 85.6352C225.088 84.6902 225.276 83.7883 225.478 82.9294C225.709 82.0418 225.998 81.2117 226.343 80.439C226.744 80.3826 227.16 80.4408 227.589 80.6136C228.047 80.7579 228.347 80.9447 228.49 81.1742C229.38 80.4886 230.169 79.6596 230.859 78.6872C231.548 77.7147 232.238 76.7709 232.927 75.8557C233.646 74.912 234.449 74.083 235.339 73.3688C236.229 72.6546 237.332 72.2273 238.65 72.087C239.337 72.5754 240.109 73.1071 240.967 73.6819C241.825 74.228 242.526 74.917 243.068 75.749C243.297 75.8927 243.512 76.0507 243.712 76.223C243.941 76.3667 244.169 76.5105 244.398 76.6542L244.397 77.2987C244.797 77.672 245.126 78.1167 245.382 78.6329C245.668 79.1205 245.91 79.651 246.109 80.2244C246.337 80.7691 246.551 81.3282 246.75 81.9015C246.949 82.4749 247.177 83.0053 247.434 83.4929C247.377 83.6646 247.348 83.8221 247.347 83.9653C247.376 84.08 247.404 84.209 247.432 84.3522C247.489 84.467 247.532 84.6103 247.56 84.7822C247.589 84.9255 247.603 85.1117 247.602 85.3409C247.484 86.8589 246.98 88.0896 246.09 89.0329C245.229 89.9477 244.167 90.7045 242.905 91.3033C241.672 91.8736 240.354 92.372 238.949 92.7986C237.545 93.1966 236.269 93.6378 235.122 94.1223C235.122 94.2369 235.179 94.2943 235.293 94.2945C235.437 94.2949 235.479 94.3809 235.422 94.5526C236.28 95.0701 236.938 95.4869 237.396 95.803C237.882 96.1192 238.325 96.3923 238.726 96.6223C239.155 96.8238 239.613 96.9967 240.1 97.141C240.615 97.2853 241.316 97.4587 242.204 97.6612C243.092 97.8636 243.779 98.037 244.265 98.1813C244.781 98.297 245.239 98.3983 245.64 98.4851C246.041 98.5433 246.47 98.6015 246.928 98.6598C247.387 98.7181 248.002 98.791 248.776 98.8787C249.09 99.1944 249.347 99.5674 249.547 99.9975C249.746 100.428 249.889 100.858 249.974 101.288C250.059 101.717 250.072 102.133 250.014 102.534C249.984 102.906 249.869 103.207 249.668 103.435C249.696 103.55 249.768 103.607 249.883 103.608C250.026 103.579 250.169 103.58 250.312 103.609C250.111 103.751 249.939 103.923 249.795 104.123C249.652 104.323 249.508 104.523 249.364 104.724C249.221 104.924 249.049 105.11 248.848 105.281C248.675 105.453 248.446 105.552 248.159 105.58C247.127 105.979 245.81 105.991 244.206 105.615C242.603 105.239 240.556 104.576 238.066 103.625C236.835 103.164 235.834 102.746 235.061 102.372C234.288 101.998 233.616 101.639 233.044 101.294C232.472 100.92 231.943 100.532 231.456 100.13C230.97 99.6992 230.413 99.1967 229.784 98.6224C229.698 98.6508 229.641 98.708 229.612 98.7939C229.612 98.8798 229.568 98.937 229.482 98.9655C229.337 100.111 229.106 101.041 228.789 101.757C228.501 102.472 228.07 103.202 227.495 103.946C227.037 103.859 226.722 103.901 226.549 104.072C226.406 104.244 226.219 104.401 225.99 104.544C225.703 104.6 225.488 104.586 225.345 104.499C225.202 104.442 225.074 104.37 224.959 104.284C224.845 104.198 224.716 104.111 224.573 104.025C224.43 103.939 224.201 103.91 223.886 103.938C223.8 103.68 223.715 103.436 223.629 103.207C223.544 102.949 223.315 102.834 222.943 102.861C223.029 102.604 223.058 102.389 223.03 102.217C223.002 102.016 222.959 101.844 222.902 101.701C222.845 101.529 222.788 101.357 222.731 101.185C222.703 101.013 222.732 100.813 222.819 100.584ZM237.213 80.9784C236.84 81.5218 236.423 82.0222 235.964 82.4796C235.504 82.9083 235.045 83.3656 234.586 83.8516C234.155 84.309 233.767 84.8237 233.422 85.3959C233.077 85.9394 232.832 86.5977 232.687 87.3709C233.891 87.2303 235.152 86.9036 236.471 86.3908C237.79 85.8494 239.037 85.3365 240.212 84.8521C240.072 83.7919 239.701 82.9461 239.101 82.3145C238.501 81.6544 237.871 81.209 237.213 80.9784ZM252.334 83.0739C252.277 82.7014 252.206 82.472 252.12 82.3859C252.322 81.8707 252.466 81.3697 252.553 80.8829C252.669 80.3676 252.756 79.8808 252.814 79.4226C252.872 79.0217 252.93 78.6494 252.989 78.3058C253.075 77.9622 253.176 77.633 253.291 77.3181C253.779 77.2046 254.137 77.0049 254.367 76.7189C254.625 76.4044 254.827 76.1327 254.97 75.9038C255.486 75.8763 255.815 75.9486 255.958 76.1208C256.13 76.2931 256.315 76.5799 256.515 76.9814C256.657 77.2968 256.857 77.641 257.114 78.014C257.371 78.3583 257.757 78.6313 258.273 78.8329C258.358 79.1482 258.457 79.4492 258.571 79.7359C258.685 80.0226 258.814 80.3237 258.956 80.6391C259.213 81.2412 259.455 81.872 259.682 82.5313C259.91 83.162 260.038 83.7639 260.065 84.3368C259.72 84.9949 259.446 85.7535 259.244 86.6124C259.07 87.4714 258.954 88.3448 258.894 89.2327C258.864 90.092 258.891 90.9228 258.975 91.7251C259.059 92.5274 259.201 93.2009 259.4 93.7456L259.656 94.4336L260.602 94.3498C261.634 94.0942 262.565 93.8098 263.397 93.4965C264.228 93.1545 265.003 92.7552 265.72 92.2984C266.437 91.8416 267.125 91.3275 267.786 90.756C268.446 90.1559 269.135 89.4556 269.853 88.6551C270.542 87.8545 271.16 86.9535 271.706 85.9521C272.253 84.922 272.699 83.8631 273.045 82.7753C273.42 81.6876 273.709 80.5997 273.912 79.5116C274.115 78.4235 274.246 77.4068 274.305 76.4616C274.85 76.205 275.152 75.7903 275.21 75.2175L275.082 74.6586C274.997 74.5152 274.954 74.3862 274.954 74.2716C274.983 74.1285 275.027 73.9997 275.084 73.8852C275.315 73.2268 275.803 72.7409 276.548 72.4275C277.063 72.7723 277.535 73.1458 277.964 73.5477C278.421 73.9498 278.836 74.3517 279.207 74.7536C279.263 75.5271 279.376 76.2006 279.547 76.7739C279.717 77.3185 279.902 77.8488 280.102 78.3649C280.301 78.8523 280.472 79.3254 280.614 79.784C280.785 80.2427 280.898 80.8015 280.954 81.4605C280.666 82.3193 280.449 83.1352 280.304 83.9083C280.188 84.6529 280.072 85.4404 279.956 86.2709L279.869 86.7433C279.351 87.6302 278.833 88.5458 278.316 89.4899C277.827 90.4055 277.424 91.2068 277.107 91.8936C276.935 92.0651 276.777 92.2652 276.633 92.4941C276.518 92.723 276.403 92.9519 276.288 93.1808C276.231 93.2667 276.144 93.4097 276.029 93.61C275.943 93.8103 275.857 93.9533 275.771 94.0391L274.74 93.6501L274.48 94.9816L273.792 95.152L273.275 95.7524C272.613 96.8968 271.909 97.8549 271.163 98.6267C270.445 99.3986 269.627 100.084 268.709 100.684C267.82 101.283 266.802 101.854 265.655 102.396C264.536 102.909 263.246 103.465 261.784 104.063C261.211 103.976 260.71 103.932 260.28 103.931C259.879 103.902 259.478 103.872 259.077 103.843C258.676 103.842 258.29 103.827 257.917 103.797C257.545 103.768 257.115 103.724 256.629 103.665C256.514 103.407 256.357 103.221 256.157 103.106C255.957 102.991 255.771 102.933 255.599 102.933C255.027 102.645 254.598 102.243 254.312 101.727C254.027 101.21 253.728 100.637 253.414 100.006C253.271 99.6619 253.115 99.3178 252.943 98.9737C252.801 98.6296 252.615 98.2998 252.387 97.9842L253.247 97.7282L252.133 96.4367C252.047 96.3506 251.947 96.2645 251.832 96.1783C251.747 96.0922 251.661 95.9917 251.575 95.8769L251.577 95.0605C251.467 92.7113 251.415 90.5485 251.419 88.5719C251.452 86.5668 251.728 84.8056 252.247 83.2885L252.334 83.0739ZM283.399 83.6573C282.197 83.1677 281.196 82.478 280.395 81.5882C279.624 80.6985 278.996 79.6516 278.512 78.4474C278.8 77.6746 279.26 77.031 279.891 76.5168C280.522 75.9739 281.225 75.5171 281.999 75.1464C282.802 74.7757 283.648 74.4768 284.536 74.2496C285.425 74.0223 286.285 73.8237 287.116 73.6536C287.288 73.7113 287.374 73.7115 287.374 73.6542C287.374 73.5969 287.445 73.6257 287.588 73.7406C288.62 73.4278 289.81 73.1296 291.157 72.846C292.504 72.5339 293.936 72.4224 295.454 72.5117C295.655 72.3975 295.899 72.3408 296.185 72.3414C296.472 72.3134 296.773 72.2997 297.088 72.3004C297.403 72.3011 297.704 72.3017 297.99 72.3024C298.277 72.2743 298.52 72.2176 298.721 72.1321C298.892 72.333 299.15 72.4624 299.493 72.5205C299.837 72.5499 300.195 72.6939 300.567 72.9525C300.681 72.9814 300.681 72.9384 300.567 72.8236C300.453 72.6801 300.467 72.5799 300.611 72.5229C300.983 72.5237 301.312 72.6104 301.598 72.7829C301.884 72.9554 302.142 73.1565 302.37 73.3861C302.628 73.5872 302.857 73.7739 303.057 73.9462C303.286 74.1186 303.529 74.2051 303.787 74.2056C304.044 74.5213 304.344 74.8227 304.687 75.1099C305.059 75.3686 305.402 75.6415 305.716 75.9286C306.06 76.2158 306.331 76.5315 306.531 76.8757C306.759 77.2199 306.873 77.6069 306.872 78.0366C306.843 78.2084 306.9 78.3088 307.043 78.3377C307.186 78.3667 307.286 78.4529 307.343 78.5962C307.37 79.6562 307.196 80.5725 306.822 81.3451C306.476 82.1178 306.031 82.8329 305.485 83.4906C304.939 84.1196 304.351 84.7199 303.719 85.2914C303.117 85.8631 302.557 86.4777 302.04 87.1354C302.382 87.5659 302.768 87.9678 303.197 88.3411C303.655 88.6858 304.112 89.0306 304.57 89.3753C305.028 89.7201 305.456 90.0934 305.857 90.4953C306.285 90.8687 306.643 91.2991 306.928 91.7867C307.014 91.9588 307.199 92.0738 307.486 92.1317C307.571 92.4756 307.685 92.834 307.827 93.2067C307.998 93.5508 308.155 93.8949 308.298 94.239C308.44 94.5544 308.525 94.841 308.554 95.0989C308.582 95.3568 308.51 95.5715 308.337 95.743C308.538 95.858 308.652 96.0444 308.68 96.3023C308.708 96.5315 308.708 96.7177 308.679 96.8609C308.047 97.6329 307.616 98.1763 307.386 98.4909C307.156 98.8055 306.984 99.0343 306.869 99.1773C306.754 99.3202 306.639 99.4489 306.524 99.5632C306.409 99.6776 306.151 99.9062 305.749 100.249C304.229 101.162 302.637 101.99 300.974 102.731C299.34 103.443 297.635 103.927 295.858 104.181C295.714 104.381 295.499 104.538 295.212 104.652C294.954 104.795 294.653 104.908 294.309 104.994C293.965 105.079 293.593 105.15 293.192 105.206C292.819 105.263 292.475 105.319 292.16 105.376C292.017 105.318 291.931 105.218 291.903 105.074C291.903 104.96 291.832 104.874 291.689 104.816C291.659 105.16 291.501 105.331 291.215 105.331C290.957 105.359 290.628 105.301 290.227 105.157C289.826 105.012 289.411 104.811 288.982 104.552C288.553 104.294 288.181 104.049 287.867 103.819C287.723 104.077 287.536 104.349 287.306 104.635C287.105 104.921 286.89 105.121 286.66 105.235C286.259 105.177 285.959 105.133 285.758 105.104C285.586 105.075 285.414 105.146 285.242 105.318C285.013 105.203 284.842 105.073 284.727 104.93C284.613 104.815 284.499 104.686 284.384 104.542C284.27 104.427 284.141 104.327 283.998 104.241C283.855 104.126 283.641 104.025 283.355 103.938C283.412 103.795 283.37 103.58 283.227 103.294C283.084 102.978 282.884 102.792 282.627 102.734C282.77 102.505 282.714 102.218 282.457 101.874C282.2 101.501 282 101.085 281.858 100.627C281.887 100.426 281.902 100.226 281.902 100.025C281.931 99.796 281.96 99.5956 281.989 99.4238C282.047 99.2234 282.119 99.0517 282.205 98.9086C282.292 98.7656 282.435 98.6656 282.636 98.6088C282.608 98.2363 282.494 97.878 282.294 97.5338C282.553 97.3338 282.725 97.0907 282.812 96.8045C282.898 96.4895 282.97 96.1746 283.028 95.8596C283.115 95.5447 283.216 95.2441 283.331 94.9579C283.446 94.6431 283.633 94.3857 283.891 94.1857C283.834 94.0997 283.777 94.0279 283.72 93.9705C283.663 93.9131 283.634 93.8128 283.635 93.6695C284.066 92.9543 284.368 92.3534 284.541 91.8668C284.714 91.3516 284.844 90.8649 284.931 90.4067C285.047 89.92 285.162 89.4046 285.278 88.8606C285.394 88.3166 285.624 87.6296 285.97 86.7996C285.943 86.2839 286.001 85.8257 286.145 85.425C286.289 85.0243 286.433 84.6379 286.577 84.2658C286.75 83.8651 286.88 83.45 286.967 83.0205C287.053 82.591 287.04 82.0897 286.927 81.5165C286.44 81.5728 286.081 81.7438 285.852 82.0298C285.65 82.3158 285.521 82.7023 285.462 83.1891C285.204 83.4177 284.874 83.5316 284.473 83.5307C284.072 83.5012 283.714 83.5434 283.399 83.6573ZM302.287 91.9915C301.2 91.3875 300.198 91.0273 299.281 90.9107C298.394 90.7942 297.534 90.8066 296.703 90.948C295.901 91.0609 295.127 91.2311 294.382 91.4586C293.636 91.6861 292.891 91.8564 292.146 91.9693C291.772 92.9425 291.383 94.0159 290.979 95.1895C290.576 96.3631 290.186 97.508 289.811 98.6244C290.843 98.4834 291.789 98.2707 292.649 97.9861C293.509 97.7015 294.34 97.3882 295.143 97.0462C295.946 96.6756 296.734 96.3192 297.509 95.9771C298.283 95.6064 299.086 95.2644 299.917 94.9511C300.004 94.6076 300.191 94.3359 300.478 94.136C300.764 93.9361 301.051 93.7505 301.338 93.5792C301.625 93.3793 301.869 93.165 302.07 92.9363C302.271 92.7076 302.343 92.3926 302.287 91.9915ZM299.308 78.5357C297.533 78.4745 295.785 78.6283 294.065 78.9969C292.346 79.3656 290.898 79.9067 289.722 80.6203C290.294 81.1085 290.88 81.5395 291.481 81.9132C292.11 82.2869 292.582 82.7893 292.895 83.4202C294.272 82.8789 295.476 82.194 296.509 81.3656C297.542 80.5084 298.475 79.5652 299.308 78.5357Z" fill="#353535"/>
<defs>
<clipPath id="clip0_7_128">
<rect width="157" height="133" fill="white"/>
</clipPath>
</defs>
</svg>
