<svg width="324" height="121" viewBox="0 0 324 121" fill="none" xmlns="http://www.w3.org/2000/svg">
<g clip-path="url(#clip0_7_128)">
<path d="M94.0786 63.0378C93.9146 58.8993 93.0943 56.1895 92.1568 54.1843C90.7349 51.167 88.1489 48.1689 85.1099 46.1253C73.2114 38.0918 56.4849 35.5165 41.5083 37.2911C28.8521 38.7901 12.8599 43.4859 7.82861 54.1779C6.8833 56.1831 6.06299 58.8993 5.89893 63.0314C5.89893 63.0314 18.0396 88.8806 52.0552 88.8806C86.0786 88.887 94.0786 63.0378 94.0786 63.0378V63.0378Z" fill="white"/>
<path d="M50.6099 39.3155C63.188 39.3155 74.7349 42.4353 83.1255 48.0984C85.7193 49.8473 88.0083 52.4675 89.2427 55.1069C90.2271 57.1953 90.7818 59.7002 90.9458 62.7431C89.8755 65.7605 81.5083 86.3309 52.063 86.3309C22.7192 86.3309 10.8521 66.0359 9.04736 62.583C9.21924 59.6105 9.78174 57.1633 10.7427 55.1069C15.9536 44.0433 34.3052 40.7376 41.9614 39.828C44.8052 39.4884 47.7036 39.3155 50.6099 39.3155V39.3155ZM50.6099 36.7594C47.5396 36.7594 44.4927 36.9387 41.5161 37.2975C28.8599 38.7966 12.8677 43.4923 7.83643 54.1844C6.89111 56.1895 6.0708 58.9058 5.90674 63.0378C5.90674 63.0378 18.0474 88.887 52.063 88.887C86.0786 88.887 94.0786 63.0378 94.0786 63.0378C93.9146 58.8994 93.0943 56.1895 92.1568 54.1844C90.7349 51.167 88.1489 48.1689 85.1099 46.1253C75.5864 39.6934 62.9536 36.7594 50.6099 36.7594V36.7594Z" fill="#4C7C7D"/>
<path d="M50.2258 79.8029C72.6624 79.8029 90.8508 72.403 90.8508 63.2748C90.8508 54.1466 72.6624 46.7467 50.2258 46.7467C27.7893 46.7467 9.60083 54.1466 9.60083 63.2748C9.60083 72.403 27.7893 79.8029 50.2258 79.8029Z" fill="#FCD4B5"/>
<path d="M21.8986 78.3103C21.008 78.3103 20.2502 77.7466 20.1721 77.0034C20.1017 76.318 20.2658 75.6325 20.4142 75.0367L20.5236 74.5947C21.6955 68.97 29.9064 64.0628 35.3986 64.3703C36.3596 64.4216 37.0783 65.1006 37.008 65.8822C36.9455 66.6702 36.1096 67.2467 35.1564 67.2083C31.6017 66.9969 24.8283 70.7445 23.9299 75.0688C23.8986 75.2417 23.8596 75.4147 23.8049 75.5941C23.7033 76.0105 23.5861 76.4781 23.6174 76.76C23.6955 77.5416 22.9924 78.2335 22.0314 78.2975C22.0002 78.3103 21.9533 78.3103 21.8986 78.3103V78.3103Z" fill="#B89278"/>
<path d="M18.3755 76.7472C17.8755 76.7472 17.3834 76.5678 17.0396 76.2283C15.0084 74.2295 14.8677 71.1802 16.6334 67.8553C18.1177 65.0622 21.1959 61.9872 24.4459 61.8398C25.4146 61.8078 26.2193 62.3972 26.274 63.1787C26.2877 63.3652 26.2563 63.5521 26.1815 63.7286C26.1067 63.9051 25.9901 64.0677 25.8383 64.2071C25.6865 64.3464 25.5026 64.4598 25.2971 64.5406C25.0916 64.6214 24.8687 64.668 24.6412 64.6778C23.3834 64.7355 21.1412 66.4844 19.8052 68.9892C18.6021 71.257 18.563 73.2878 19.7037 74.4089C20.313 75.0111 20.2115 75.908 19.4771 76.4076C19.1568 76.6383 18.7584 76.7472 18.3755 76.7472V76.7472Z" fill="#B89278"/>
<path d="M11.0472 71.5646C10.6254 71.5646 10.2035 71.4429 9.86756 71.193C8.16444 69.9502 8.54725 67.5799 9.18006 65.8054C9.39881 65.184 10.2347 64.159 14.3285 60.0782L14.0238 59.8283L15.6098 58.8482C16.0473 58.5791 17.641 57.7335 18.9926 57.7271C19.9457 57.7399 20.7113 58.3805 20.6957 59.1685C20.6884 59.5409 20.5036 59.8962 20.181 60.1584C19.8583 60.4206 19.4234 60.5688 18.9691 60.5715H18.9379C18.8129 60.5907 18.2973 60.7829 17.8285 61.0519C17.6488 61.2505 17.4379 61.4555 17.2269 61.6733C14.3441 64.5433 12.7426 66.2346 12.4769 66.6958C11.9926 68.086 12.0941 68.9316 12.2191 69.1046C12.9301 69.6299 12.9769 70.5075 12.3441 71.0905C11.9926 71.4044 11.5238 71.5646 11.0472 71.5646Z" fill="#B89278"/>
<path d="M35.1495 66.2474C35.0791 66.2474 35.0088 66.2474 34.9385 66.241C33.5401 66.1064 32.1416 65.9335 30.7432 65.7605C29.8682 65.6516 28.9854 65.5491 28.1104 65.453C24.9854 65.1007 22.3213 64.1077 20.1807 62.5061C18.501 61.2377 15.712 55.1389 16.8838 52.5188C16.9623 52.3434 17.0822 52.1824 17.2365 52.0449C17.3909 51.9075 17.5768 51.7964 17.7835 51.7178C17.9903 51.6393 18.2139 51.595 18.4416 51.5873C18.6692 51.5796 18.8965 51.6088 19.1104 51.6732C19.3243 51.7375 19.5207 51.8358 19.6883 51.9624C19.8559 52.089 19.9914 52.2414 20.0872 52.4109C20.1829 52.5805 20.237 52.7638 20.2464 52.9505C20.2557 53.1372 20.2201 53.3235 20.1417 53.4989C19.5713 54.7674 21.5635 59.6169 22.5323 60.4177C24.126 61.6157 26.1651 62.3652 28.5791 62.6407C29.4698 62.7432 30.3604 62.8457 31.2432 62.9546C32.6104 63.1211 33.9776 63.2877 35.337 63.4222C36.2901 63.5119 36.9698 64.223 36.8604 64.9982C36.8104 65.3418 36.6088 65.6585 36.2936 65.8886C35.9785 66.1188 35.5715 66.2464 35.1495 66.2474V66.2474Z" fill="#B89278"/>
<path d="M30.29 60.4561H30.1963C29.0009 60.4049 23.2197 58.3869 22.0478 55.6771C21.4931 54.3958 20.5322 50.0972 22.5322 48.3035C23.1806 47.7269 24.2744 47.6821 24.9853 48.2138C25.6884 48.7455 25.7431 49.6424 25.0947 50.2189C24.5947 50.725 24.7275 53.3772 25.3056 54.7225C25.7978 55.8628 29.4775 57.426 30.54 57.631C31.5009 57.6694 32.1494 58.3357 32.1025 59.1172C32.0556 59.8796 31.2119 60.4561 30.29 60.4561V60.4561Z" fill="#B89278"/>
<path d="M29.2586 65.4018C28.8132 65.4018 28.3679 65.2608 28.032 64.9854C27.3601 64.428 27.3601 63.5311 28.032 62.9738C29.4929 61.7822 30.6492 58.4894 30.1336 57.0032C29.6023 55.4849 27.8992 53.6015 25.7898 52.2049C25.5398 52.0383 25.2507 51.8974 24.9617 51.7565C24.6179 51.5835 24.2742 51.4041 23.9461 51.2119L23.6492 51.0197C23.4929 50.9172 23.2664 50.7699 23.1804 50.7507C22.2898 50.4944 21.7664 49.6936 22.0554 48.9633C22.3367 48.2266 23.2507 47.8038 24.157 48.028C24.8836 48.201 25.407 48.5469 25.7976 48.8032L26.0242 48.9505C26.2586 49.0915 26.5086 49.2196 26.7664 49.3413C27.1804 49.5463 27.5945 49.7577 27.9695 50.0075C30.0632 51.3913 32.6023 53.7552 33.4695 56.2408C34.3367 58.7265 32.8523 63.0699 30.4851 65.0046C30.1414 65.2672 29.6961 65.4018 29.2586 65.4018V65.4018Z" fill="#B89278"/>
<path d="M35.2899 67.2147C34.8993 67.2147 34.5086 67.1122 34.1805 66.888C33.8278 66.6472 33.606 66.3017 33.5635 65.927C33.521 65.5523 33.6614 65.1791 33.954 64.8892C35.9071 62.9609 36.1805 61.1416 36.204 60.4433C36.4071 54.6264 35.2352 52.0191 28.2821 48.9505L28.1415 48.912C27.6336 48.7583 26.4696 48.3995 26.2196 47.3681C26.0399 46.5994 26.6571 45.8498 27.5946 45.7025C28.2586 45.6 28.9149 45.8178 29.2977 46.2278C29.3211 46.2342 29.3368 46.2406 29.3524 46.247C29.5711 46.3111 29.7743 46.3816 29.9227 46.4456C38.4383 50.1997 39.8837 54.1331 39.6571 60.5266C39.618 61.7566 39.1571 64.1974 36.6024 66.7086C36.2743 67.0417 35.7821 67.2147 35.2899 67.2147V67.2147Z" fill="#B89278"/>
<path d="M43.2274 56.7213C42.2743 56.7213 41.4931 56.0807 41.4931 55.2991C41.4931 51.2375 41.2509 49.9883 35.7665 48.0344C35.5712 47.9703 35.3681 47.8743 35.1493 47.7718C35.0868 47.7397 35.0165 47.7013 34.9462 47.6693C34.5136 47.6626 34.0996 47.5237 33.7856 47.2796C33.4715 47.0356 33.28 46.7041 33.2487 46.3502C33.2174 45.9964 33.3485 45.6457 33.6163 45.367C33.8841 45.0884 34.2693 44.9019 34.6962 44.8441C35.6571 44.7096 36.4462 45.0875 36.9071 45.3182C36.9931 45.3566 37.0634 45.4014 37.1415 45.4271C44.2118 47.9383 44.9462 50.3599 44.9462 55.2927C44.9618 56.0807 44.1884 56.7213 43.2274 56.7213V56.7213Z" fill="#B89278"/>
<path d="M26.3125 80.2451C26.1172 80.2451 25.9063 80.2194 25.711 80.1554C25.4973 80.0909 25.3013 79.9924 25.1341 79.8657C24.967 79.7389 24.832 79.5863 24.7369 79.4167C24.6418 79.2471 24.5885 79.0637 24.5801 78.8772C24.5716 78.6906 24.6081 78.5045 24.6875 78.3296C26.0703 75.261 32.0547 71.8657 33.9766 71.4941C34.0938 71.4749 34.2813 71.4429 34.4922 71.4108C34.6797 71.3852 35.0547 71.334 35.2813 71.2891C35.7969 70.9688 36.5235 70.9047 37.1328 71.1738C37.9766 71.5454 38.2969 72.4038 37.8516 73.0957C37.3281 73.8965 36.1875 74.0566 35.086 74.2104C34.9531 74.2296 34.8516 74.2424 34.7735 74.2552C33.6797 74.4986 28.836 77.3302 27.9453 79.3033C27.8246 79.5791 27.603 79.8176 27.3107 79.9861C27.0184 80.1547 26.6698 80.2451 26.3125 80.2451V80.2451Z" fill="#B89278"/>
<path d="M53.3832 81.5711C52.8598 81.5711 52.3363 81.3725 52.0004 81.001C51.8623 80.852 51.7616 80.6821 51.7042 80.501C51.6467 80.3199 51.6335 80.1313 51.6655 79.946C51.6975 79.7608 51.7739 79.5825 51.8904 79.4216C52.0069 79.2607 52.1611 79.1204 52.3441 79.0086C53.8129 78.099 53.602 76.7024 53.4379 76.1515C53.1098 75.0047 51.9223 73.5505 49.6879 73.2174C49.4641 73.1849 49.2503 73.1164 49.0588 73.016C48.8673 72.9156 48.7018 72.7852 48.5719 72.6322C48.442 72.4793 48.3501 72.3068 48.3017 72.1247C48.2532 71.9426 48.2491 71.7544 48.2895 71.571C48.3289 71.3867 48.4125 71.2107 48.5354 71.0531C48.6583 70.8955 48.8181 70.7594 49.0055 70.6528C49.193 70.5462 49.4043 70.4711 49.6274 70.4318C49.8505 70.3926 50.0808 70.39 50.3051 70.4243C53.5004 70.8983 56.0551 72.8843 56.8051 75.4916C57.4535 77.753 56.5473 79.9696 54.4223 81.2829C54.1098 81.475 53.7426 81.5711 53.3832 81.5711V81.5711Z" fill="#B89278"/>
<path d="M60.2977 82.0516C60.118 82.0516 59.9149 82.026 59.7352 81.9683C59.5195 81.9082 59.3206 81.8136 59.1498 81.69C58.979 81.5664 58.8398 81.4162 58.7403 81.2482C58.6407 81.0802 58.5828 80.8976 58.5699 80.7112C58.5569 80.5247 58.5892 80.3379 58.6649 80.1617C60.0946 76.7792 60.2508 71.1289 54.8211 69.4056C54.6089 69.3384 54.4149 69.2373 54.2504 69.1084C54.0859 68.9794 53.9542 68.8251 53.8627 68.6542C53.7712 68.4833 53.7218 68.2993 53.7174 68.1128C53.7129 67.9262 53.7535 67.7407 53.8368 67.5671C54.0033 67.2159 54.3328 66.9331 54.753 66.7806C55.1732 66.6282 55.65 66.6184 56.079 66.7535C63.7977 69.2006 63.8211 76.6703 61.954 81.0906C61.6883 81.68 61.0165 82.0516 60.2977 82.0516V82.0516Z" fill="#B89278"/>
<path d="M66.4768 81.5711C66.1521 81.57 65.8343 81.4944 65.5592 81.3528C65.2842 81.2112 65.063 81.0093 64.9208 80.7699C64.7785 80.5306 64.7207 80.2633 64.7541 79.9985C64.7875 79.7336 64.9107 79.4817 65.1097 79.2713C68.0706 76.1578 66.5706 73.8836 63.68 70.1231C62.5003 68.5856 61.2425 67.2659 59.9456 66.1833C59.2737 65.6195 59.2815 64.7227 59.9612 64.1717C60.6487 63.6208 61.7425 63.6272 62.4143 64.1845C63.8831 65.4145 65.2972 66.9008 66.6097 68.6048C69.3362 72.1475 72.43 76.1706 67.844 81.0138C67.5003 81.3789 66.9925 81.5711 66.4768 81.5711Z" fill="#B89278"/>
<path d="M78.1327 77.2085L77.0546 77.0804C76.4218 76.9843 75.9296 76.6191 75.7265 76.1515C75.4999 75.9208 75.3202 75.6966 75.1484 75.4852L74.9218 75.2033C74.539 74.7549 73.8671 74.3769 73.1484 73.9797L72.8437 73.8132C72.1327 73.4096 71.7265 73.1021 71.453 72.8138C71.203 72.7626 70.8437 72.6921 70.3124 72.5832L69.2968 72.3846C69.1796 72.3654 68.953 72.3526 68.703 72.3269C67.0859 72.1924 65.4218 72.0515 64.8593 70.8983C64.5077 70.168 64.9374 69.3416 65.8359 69.0533C66.4765 68.8419 67.1952 68.9765 67.664 69.3416C68.0234 69.4121 68.703 69.4697 69.0546 69.5018C69.5155 69.5402 69.9062 69.5851 70.1171 69.6235L71.1249 69.8221C73.2655 70.2449 73.828 70.3602 74.2499 71.1162C74.3202 71.1674 74.4843 71.2827 74.8046 71.4685L75.0859 71.6222C75.9843 72.1219 76.9999 72.6921 77.7577 73.5762L78.039 73.9285C78.2734 74.2232 78.4062 74.3769 78.578 74.4922L78.9999 74.7677L79.4296 75.9529L78.1327 77.2085V77.2085Z" fill="#B89278"/>
<path d="M82.8284 75.6646C82.3518 75.6646 81.8831 75.5108 81.5393 75.2033C81.0159 74.7357 80.7893 74.1975 80.6174 73.7683C80.5471 73.5953 80.4377 73.3327 80.3674 73.2686C78.3049 71.3275 75.8674 69.7836 73.5002 68.9316C71.3674 68.1628 68.9299 68.1757 66.344 68.1821H65.4534C64.5002 68.1821 63.7268 67.5414 63.7268 66.7599C63.7268 65.9719 64.5002 65.3441 65.4612 65.3441H66.3284C69.1721 65.3377 72.094 65.3249 74.8987 66.3371C77.7268 67.3557 80.6018 69.1558 82.9924 71.4108C83.5159 71.9041 83.7424 72.4678 83.9065 72.8714C83.969 73.0188 84.0549 73.2366 84.1096 73.3007C84.7581 73.8772 84.7112 74.7613 84.0081 75.2994C83.6643 75.5364 83.2424 75.6646 82.8284 75.6646V75.6646Z" fill="#B89278"/>
<path d="M86.4847 72.0386C86.0868 72.0375 85.7012 71.9251 85.3916 71.7202C85.082 71.5152 84.8668 71.2298 84.7815 70.9111C84.5706 70.0719 83.3362 69.0597 82.9378 68.7266C81.9925 67.945 80.7034 67.3172 79.0003 66.7919C77.844 66.4396 76.6487 66.3947 75.2581 66.3435L74.2972 66.305C73.7425 66.2794 73.1409 66.3563 72.5003 66.4332C71.7894 66.5228 71.0472 66.6253 70.2581 66.5997C70.0302 66.596 69.8054 66.5553 69.5967 66.4801C69.3879 66.405 69.1994 66.2967 69.0419 66.1615C68.8843 66.0264 68.7609 65.8671 68.6787 65.6927C68.5965 65.5184 68.5571 65.3324 68.5628 65.1455C68.5862 64.3575 69.3987 63.7489 70.3362 63.7553C70.8362 63.7617 71.3831 63.6913 71.969 63.6208C72.719 63.5183 73.5784 63.4094 74.5081 63.4607L75.4222 63.4991C76.9612 63.5567 78.5472 63.6208 80.2112 64.1269C82.3909 64.7932 84.094 65.6388 85.3987 66.715C86.4925 67.6183 87.805 68.8483 88.1722 70.3153C88.3753 71.0841 87.7659 71.84 86.8362 72.0002C86.719 72.0258 86.594 72.0386 86.4847 72.0386V72.0386Z" fill="#B89278"/>
<path d="M82.1641 62.9161C80.8907 62.9161 79.6016 62.8713 78.3282 62.7047C77.6797 62.6214 77.0469 62.4869 76.4219 62.3524C76.0313 62.2691 75.6485 62.1858 75.2422 62.1153C74.7916 62.0397 74.396 61.8204 74.1425 61.5056C73.8891 61.1909 73.7985 60.8064 73.8907 60.4369C73.9829 60.0674 74.2503 59.743 74.6342 59.5351C75.0181 59.3273 75.4869 59.253 75.9375 59.3286C76.3907 59.4055 76.8516 59.5016 77.3047 59.5977C77.8204 59.7066 78.3282 59.8219 78.8594 59.8924C80.4844 60.1038 82.2657 60.0717 83.9844 60.0461L84.7969 60.0333C86.7032 60.0077 88.75 59.4824 91.2422 58.3869C92.086 58.0153 93.1329 58.2716 93.586 58.9635C94.0391 59.6553 93.7266 60.5202 92.8829 60.8917C89.8829 62.2114 87.3282 62.8457 84.8516 62.8777L84.0625 62.8905C83.4375 62.9033 82.8047 62.9161 82.1641 62.9161V62.9161Z" fill="#B89278"/>
<path d="M81.6327 66.888C81.0624 66.888 80.4218 66.8304 79.8124 66.5741C79.4042 66.4025 79.0954 66.1054 78.9534 65.7477C78.8115 65.39 78.8478 65.0008 79.0546 64.6651C79.2605 64.3326 79.6175 64.0798 80.0486 63.9612C80.4797 63.8426 80.9504 63.8676 81.3593 64.0308C81.5077 64.0565 81.8983 64.0373 82.1483 64.0308C82.3749 64.018 82.5936 64.0116 82.8046 64.0116C84.7655 64.0116 86.2811 63.9732 87.703 63.8963C88.9061 63.8258 90.1171 63.6273 91.3827 63.2685L91.7108 63.1852C91.8436 63.1532 92.1093 63.0891 92.2889 63.0315C92.4831 62.814 92.7481 62.6458 93.0534 62.5461C93.3588 62.4464 93.6922 62.4193 94.0155 62.4677C94.953 62.6151 95.578 63.3582 95.3983 64.1269C95.1249 65.3185 93.6014 65.6901 92.6952 65.9143L92.4999 65.9655C90.9374 66.4012 89.4452 66.651 87.9374 66.7343C86.4218 66.8176 84.8436 66.8624 82.8046 66.8624C82.6639 66.8624 82.5077 66.8688 82.3593 66.8752C82.1249 66.8752 81.8905 66.888 81.6327 66.888V66.888Z" fill="#B89278"/>
<path d="M51.1014 62.0641C49.4998 63.1788 47.7186 64.1525 45.8358 64.6458C40.867 65.9527 39.4608 61.8142 41.0467 58.4638C42.1795 56.0678 43.4842 53.2555 45.1795 51.103C46.2577 49.7384 47.5702 48.502 49.0623 47.4194C52.7108 44.7928 58.8123 43.8575 62.2733 47.2336C62.828 47.7845 63.4373 48.675 63.5467 49.4117C63.9998 52.3394 61.6483 54.6456 59.1483 56.4714C56.5311 58.3869 53.7733 60.1998 51.1014 62.0641Z" fill="#F79329"/>
<path d="M44.0948 66.3114C42.3214 66.3114 40.8136 65.6708 39.8526 64.5112C38.4933 62.8776 38.3292 60.3023 39.4464 57.9512L39.587 57.6565C40.7276 55.2478 42.0167 52.5187 43.7433 50.3342C44.912 48.8563 46.3238 47.5176 47.9386 46.3559C50.2979 44.6519 53.4698 43.6397 56.4151 43.6397C59.3292 43.6397 61.8136 44.575 63.6182 46.3303C64.2745 46.9773 65.1104 48.124 65.2901 49.2323C65.8761 53.0056 62.7354 55.7795 60.3214 57.5348C58.6886 58.7264 56.9932 59.8859 55.2979 61.039C54.2745 61.7373 53.2511 62.4356 52.2433 63.1403C50.212 64.5561 48.2979 65.4914 46.3839 65.9975C45.5714 66.2089 44.8058 66.3114 44.0948 66.3114V66.3114ZM56.4073 46.484C54.2745 46.484 51.962 47.2336 50.212 48.4956C48.8381 49.4857 47.6367 50.626 46.6417 51.8845C45.1104 53.8256 43.8917 56.4073 42.8058 58.6944L42.6651 58.989C41.9698 60.4433 41.9933 62.064 42.7042 62.9161C43.212 63.5247 44.0636 63.6272 45.3058 63.3004C46.7589 62.9225 48.3292 62.1409 49.9776 60.9942C50.9933 60.2831 52.0323 59.5784 53.0714 58.8673C54.7276 57.7334 56.3995 56.5995 58.0089 55.4272C60.9464 53.2811 62.1261 51.4937 61.837 49.6103C61.7823 49.2387 61.3839 48.5917 60.9464 48.1753C59.5401 46.7723 57.6964 46.484 56.4073 46.484V46.484Z" fill="#855C52"/>
<path d="M61.04 62.4228C59.2509 63.3196 57.3056 64.0499 55.3525 64.2998C50.1884 64.9468 49.5947 60.6803 51.8056 57.5796C53.3837 55.3567 55.2119 52.7493 57.2978 50.8467C58.6287 49.6333 60.1559 48.575 61.8369 47.7012C65.9462 45.5807 72.1494 45.4334 74.9228 49.2195C75.3759 49.8345 75.7978 50.789 75.7666 51.5321C75.6494 54.479 72.8837 56.4585 70.0712 57.932C67.1103 59.4887 64.0322 60.9301 61.04 62.4228V62.4228Z" fill="#F79329"/>
<path d="M54.3437 65.7797C52.2578 65.7797 50.5937 65.043 49.6484 63.6977C48.3828 61.8847 48.6328 59.2005 50.3124 56.8558L50.4843 56.5995C52.0781 54.3638 53.8749 51.8333 56.0078 49.8922C57.4453 48.5853 59.0937 47.4386 60.914 46.5033C63.039 45.4014 65.5624 44.7928 68.0156 44.7928C71.6327 44.7928 74.6952 46.1381 76.414 48.4892C76.9452 49.2131 77.5468 50.4495 77.5077 51.5706C77.3593 55.3759 73.7265 57.7078 71.0077 59.13C69.1406 60.1102 67.2187 61.0455 65.2968 61.9808C64.1796 62.5253 63.0546 63.0763 61.9453 63.6272C59.7109 64.7483 57.5781 65.4402 55.6171 65.69C55.164 65.7605 54.7343 65.7797 54.3437 65.7797V65.7797ZM67.9999 47.6372C66.2187 47.6372 64.3124 48.0984 62.7499 48.9056C61.2016 49.7042 59.7973 50.6767 58.5781 51.7948C56.6874 53.5181 54.9765 55.9205 53.4765 58.0345L53.289 58.2972C52.2812 59.7066 52.0156 61.385 52.6484 62.2883C52.8437 62.5702 53.2343 62.9417 54.3359 62.9417C54.5703 62.9417 54.8203 62.9225 55.0781 62.8969C56.5859 62.7047 58.289 62.1345 60.1249 61.212C61.2499 60.6483 62.3749 60.0973 63.5156 59.5464C65.3984 58.6303 67.289 57.7078 69.1249 56.7469C72.4296 55.0108 73.9452 53.39 74.0234 51.4938C74.039 51.1222 73.7656 50.4303 73.4218 49.9563C72.0312 48.0408 69.7031 47.6372 67.9999 47.6372V47.6372Z" fill="#855C52"/>
<path d="M67.2186 66.4139C65.2342 66.984 63.1483 67.362 61.1718 67.2659C55.9608 67.0097 56.4764 62.7431 59.4217 60.0845C61.5389 58.1883 63.9921 55.9525 66.5233 54.447C68.1327 53.4925 69.8983 52.7237 71.7655 52.16C76.3202 50.7954 82.4296 51.7243 84.1639 55.9012C84.453 56.5803 84.6092 57.5861 84.3905 58.3036C83.5233 61.1672 80.3202 62.6278 77.1874 63.5823C73.9061 64.5881 70.5311 65.4658 67.2186 66.4139V66.4139Z" fill="#F79329"/>
<path d="M61.8048 68.7009C61.5626 68.7009 61.3126 68.6945 61.0704 68.6817C57.6329 68.5152 56.3438 66.9328 55.8907 66.0039C54.8985 63.9923 55.8048 61.2312 58.1485 59.1236L58.3595 58.9378C60.4923 57.0159 62.922 54.8378 65.5079 53.2939C67.2501 52.2625 69.1563 51.4297 71.172 50.8211C72.6407 50.3791 74.2501 50.1484 75.836 50.1484C80.6329 50.1484 84.4532 52.1792 85.8048 55.44C86.1329 56.2344 86.4142 57.5541 86.0782 58.6431C84.961 62.3459 80.8126 63.9923 77.7892 64.9148C75.7345 65.5427 73.6407 66.1192 71.547 66.7022C70.2892 67.0481 69.0392 67.3941 67.7892 67.7528C65.6173 68.3806 63.6017 68.7009 61.8048 68.7009V68.7009ZM75.836 52.9928C74.6564 52.9928 73.4532 53.1658 72.3595 53.4925C70.6329 54.0114 69.0157 54.7225 67.5392 55.5937C65.2345 56.9647 62.9454 59.0275 60.9063 60.8533L60.6954 61.0391C59.297 62.2883 58.6095 63.9667 59.0938 64.9341C59.3673 65.4786 60.0938 65.7861 61.2735 65.8437C62.836 65.9206 64.6017 65.658 66.6407 65.0686C67.8985 64.7098 69.172 64.3575 70.4376 64.0052C72.4923 63.435 74.5626 62.8648 76.5782 62.2498C80.2579 61.1223 82.1485 59.8027 82.7032 57.9577C82.8126 57.5925 82.7267 56.875 82.5157 56.3561C81.2267 53.2362 77.086 52.9928 75.836 52.9928V52.9928Z" fill="#855C52"/>
<path d="M33.5863 73.2493C33.0707 69.0853 36.0316 64.665 40.3598 62.6406C47.5707 59.2709 57.7738 62.4548 54.9535 70.2961C53.766 73.6081 49.8832 75.7478 46.0863 76.8753C43.1801 77.7465 39.5941 78.1181 36.7269 76.965C34.6254 76.1193 33.7738 74.7804 33.5863 73.2493V73.2493Z" fill="white"/>
<path d="M48.4616 72.1603C44.8288 72.8458 39.9538 70.5459 40.8288 67.1122C41.6178 63.9987 46.946 62.8456 49.9772 64.2614C53.3756 65.8566 52.9616 70.3537 49.6803 71.7823C49.2975 71.9553 48.8913 72.077 48.4616 72.1603Z" fill="#FBBC40"/>
<path d="M39.1719 21.2626C39.4688 20.5195 39.3438 19.5522 38.3281 19.4625C35.3906 19.219 32.5391 22.6592 31.4687 24.4401C29.9141 27.0603 29.7266 30.2122 31.2109 32.8836C32.125 34.53 33.6172 35.9458 34.4141 37.6306C34.8203 38.4826 35.0156 39.3603 34.9141 40.27C34.8203 41.0643 34.1016 42.1726 34.5781 42.9478C35.5937 44.5814 37.9063 42.3072 38.5625 41.5256C42.2344 37.1822 37.8516 33.1078 37.1094 28.7003C36.7031 26.2723 37.4219 23.7675 38.9453 21.6854C39.0391 21.5573 39.1172 21.4164 39.1719 21.2626V21.2626Z" fill="#40C0E7"/>
<path d="M65.8435 21.2626C66.1404 20.5195 66.0154 19.5522 64.9998 19.4625C62.0623 19.219 59.2029 22.6592 58.1482 24.4401C56.5857 27.0603 56.406 30.2122 57.8826 32.8836C58.7966 34.53 60.2888 35.9458 61.0935 37.6306C61.4919 38.4826 61.6873 39.3603 61.5857 40.27C61.4998 41.0643 60.781 42.1726 61.2576 42.9478C62.2654 44.5814 64.5779 42.3072 65.2341 41.5256C68.906 37.1822 64.5232 33.1078 63.781 28.7003C63.3748 26.2723 64.0935 23.7675 65.6169 21.6854C65.7107 21.5573 65.7888 21.4164 65.8435 21.2626Z" fill="#40C0E7"/>
<path d="M51.9226 21.2626C52.2194 20.5195 52.1022 19.5522 51.0788 19.4625C48.1413 19.219 45.2897 22.6592 44.2272 24.4401C42.6647 27.0603 42.4772 30.2122 43.9538 32.8836C44.8679 34.53 46.3679 35.9458 47.1647 37.6306C47.5632 38.4826 47.7585 39.3603 47.6647 40.27C47.5788 41.0643 46.8522 42.1726 47.3366 42.9478C48.3522 44.5814 50.6491 42.3072 51.3132 41.5256C54.9851 37.1822 50.6101 33.1078 49.8601 28.7003C49.4538 26.2723 50.1804 23.7675 51.7038 21.6854C51.7897 21.5573 51.8601 21.4164 51.9226 21.2626Z" fill="#40C0E7"/>
<path d="M90.914 63.0378C90.914 63.1019 90.9296 63.1531 90.9296 63.2172C90.9296 72.3525 72.7421 79.7581 50.2968 79.7581C27.8593 79.7581 9.67177 72.3525 9.67177 63.2172C9.67177 63.2172 9.4452 61.4042 9.67177 59.3094C9.84364 57.7334 10.4765 55.7283 10.4765 55.7283L6.03895 60.975C6.03895 61.0262 5.86708 61.6669 5.89833 63.0378C5.89833 63.3133 5.96864 64.0884 5.98427 64.3703C6.49989 72.9867 12.2108 80.2194 18.2421 84.787C19.9452 86.0811 21.7186 87.3239 23.578 88.4322C27.1327 90.5526 30.664 92.0325 34.2968 93.1023C34.2733 93.948 34.3515 94.7936 34.7577 95.4726C37.0702 99.4125 44.9296 100.405 49.4608 100.662C54.8905 100.976 68.0155 99.8353 68.2577 93.7045C68.2733 93.2497 68.3436 92.6923 68.3436 92.1286C70.9608 91.1676 73.539 89.9761 76.1327 88.4322C77.9921 87.3303 79.7655 86.0811 81.4686 84.787C87.0936 80.5269 93.0155 72.8906 93.7655 65.6515C93.9765 64.8123 94.0702 63.9347 94.1015 63.0442H90.914V63.0378Z" fill="#4C7C7D"/>
</g>
<path d="M134.202 50.0335C134.226 49.9289 134.238 49.8505 134.237 49.7984C134.262 49.7459 134.222 49.6815 134.116 49.6051C134.061 49.4238 134.098 49.3059 134.227 49.2517C134.357 49.1974 134.486 49.1431 134.615 49.0888C134.719 47.5243 134.955 46.1008 135.324 44.8184C135.719 43.5094 136.14 42.2391 136.588 41.0073C137.062 39.7752 137.523 38.5432 137.971 37.3115C138.444 36.0533 138.825 34.6925 139.113 33.2291C139.446 32.8848 139.712 32.4766 139.913 32.0044C140.139 31.5317 140.352 31.0593 140.553 30.5871C140.779 30.0884 141.031 29.6153 141.31 29.1678C141.615 28.7199 142.025 28.3483 142.541 28.053C142.776 28.0751 142.985 28.1236 143.169 28.1987C143.378 28.2472 143.574 28.309 143.758 28.384C143.942 28.459 144.138 28.5208 144.347 28.5694C144.556 28.6179 144.778 28.6402 145.012 28.6362C145.119 28.7646 145.213 28.9193 145.294 29.1003C145.375 29.2552 145.481 29.3966 145.613 29.5246L146.315 29.3955C146.658 29.6762 146.963 30.0356 147.231 30.4739C147.499 30.8861 147.689 31.3256 147.801 31.7925C147.912 32.2334 147.907 32.6763 147.784 33.1211C147.661 33.5399 147.367 33.8705 146.902 34.1128C146.931 34.2686 146.933 34.3857 146.908 34.4643C146.884 34.5429 146.846 34.6216 146.795 34.7006C146.77 34.7531 146.758 34.8185 146.759 34.8966C146.76 34.9486 146.814 35.0259 146.92 35.1283C146.637 35.3675 146.382 35.6713 146.154 36.0398C145.925 36.3823 145.736 36.7501 145.586 37.1433C145.437 37.5366 145.313 37.9293 145.216 38.3217C145.144 38.7136 145.098 39.079 145.078 39.4179C145.82 38.624 146.693 37.8799 147.697 37.1857C148.701 36.4915 149.575 35.8386 150.32 35.2269C150.912 34.8001 151.426 34.4007 151.863 34.0287C152.325 33.6302 152.787 33.2707 153.251 32.9503C153.714 32.6039 154.19 32.2833 154.68 31.9885C155.195 31.6672 155.71 31.3199 156.225 30.9465C156.484 30.8379 156.678 30.8086 156.81 30.8585C156.967 30.9079 157.111 30.9706 157.243 31.0465C157.265 30.8638 157.225 30.7603 157.12 30.736C157.015 30.6857 156.974 30.5562 156.996 30.3474C157.437 30.2097 157.825 30.0469 158.16 29.8589C158.521 29.6704 158.896 29.4948 159.284 29.3319C159.549 29.6139 159.815 29.922 160.081 30.2561C160.347 30.5641 160.701 30.7274 161.144 30.7459C161.306 31.0818 161.493 31.3391 161.704 31.5178C161.941 31.6701 162.165 31.8225 162.376 31.9752C162.613 32.1275 162.812 32.3195 162.972 32.5511C163.132 32.7568 163.229 33.0938 163.263 33.562C163.162 33.7721 163.036 34.0086 162.884 34.2716C162.758 34.5082 162.646 34.8096 162.548 35.1759C161.932 35.7593 161.303 36.2779 160.66 36.7316C160.042 37.1588 159.398 37.5734 158.727 37.9754C158.083 38.377 157.413 38.7921 156.717 39.2206C156.047 39.6487 155.365 40.1421 154.671 40.7008C154.519 40.9378 154.327 41.1494 154.096 41.3357C153.865 41.5219 153.621 41.7083 153.363 41.895C153.132 42.0552 152.9 42.2284 152.669 42.4147C152.464 42.6005 152.298 42.8247 152.172 43.0873C152.068 43.089 151.977 43.1036 151.9 43.1309C151.822 43.1323 151.731 43.1468 151.627 43.1746C151.526 43.3847 151.373 43.5566 151.167 43.6903C150.987 43.8236 150.859 43.9951 150.785 44.2047C151.271 45.2122 151.896 45.97 152.66 46.4779C153.424 46.9859 154.276 47.3491 155.218 47.5675C156.159 47.786 157.177 47.899 158.271 47.9065C159.365 47.914 160.497 47.9078 161.669 47.8879C161.799 47.8597 161.85 47.7937 161.822 47.69C161.82 47.5598 161.897 47.5064 162.054 47.5298C162.447 47.6534 162.775 47.8041 163.038 47.9819C163.302 48.1598 163.552 48.3509 163.79 48.5552C164.028 48.7595 164.253 48.9771 164.465 49.2079C164.703 49.4122 164.967 49.6292 165.258 49.8586C165.226 51.0833 164.879 52.0919 164.215 52.8846C163.577 53.6507 162.715 54.2774 161.629 54.7646C160.12 54.8423 158.805 54.8255 157.683 54.7143C156.561 54.6031 155.449 54.3354 154.348 53.9113C154.27 53.8866 154.19 53.8098 154.11 53.6809C154.056 53.5516 154.002 53.4614 153.949 53.4102C153.739 53.2835 153.503 53.2354 153.244 53.2659C152.984 53.2963 152.762 53.274 152.578 53.199C152.342 53.0988 151.948 52.8711 151.395 52.5159C150.868 52.1602 150.38 51.8298 149.932 51.5249C149.378 51.0915 148.837 50.6709 148.309 50.2631C147.807 49.8289 147.356 49.3547 146.957 48.8405C146.876 48.7117 146.758 48.6486 146.602 48.6512C146.472 48.6534 146.341 48.6166 146.209 48.5407C145.308 49.1289 144.552 49.858 143.941 50.7279C143.357 51.5712 142.785 52.4404 142.227 53.3354C141.669 54.2044 141.071 55.0349 140.434 55.8271C139.821 56.5928 139.037 57.1921 138.081 57.625C137.794 57.6299 137.546 57.582 137.336 57.4814C137.126 57.4068 136.929 57.293 136.744 57.1398C136.56 57.0127 136.375 56.8856 136.191 56.7585C136.006 56.6314 135.797 56.5438 135.561 56.4957C135.555 56.1312 135.471 55.794 135.31 55.4842C135.174 55.1479 135.026 54.8509 134.865 54.5932C134.73 54.309 134.621 54.0373 134.539 53.7783C134.482 53.5188 134.556 53.2571 134.76 52.9932C134.469 52.7637 134.193 52.573 133.93 52.4212C134.109 52.2359 134.184 52.0653 134.155 51.9095C134.153 51.7533 134.111 51.5977 134.03 51.4428C133.949 51.2879 133.882 51.1328 133.827 50.9774C133.798 50.7956 133.847 50.5994 133.973 50.3889C134.077 50.3611 134.115 50.3084 134.088 50.2307C134.086 50.1526 134.124 50.0869 134.202 50.0335ZM166.757 55.3028C166.545 55.098 166.384 54.8533 166.275 54.5686C166.192 54.2835 165.98 54.0527 165.638 53.8762C165.58 53.4865 165.494 53.0452 165.382 52.5522C165.295 52.0328 165.195 51.5136 165.082 50.9946C164.994 50.4491 164.92 49.9165 164.859 49.3966C164.824 48.8502 164.842 48.3551 164.912 47.9111C164.96 47.6759 165.035 47.4532 165.135 47.2432C165.262 47.0326 165.376 46.8354 165.477 46.6513C165.604 46.4408 165.691 46.231 165.74 46.0218C165.814 45.8122 165.824 45.6036 165.768 45.3962C165.924 45.3675 166.014 45.2879 166.038 45.1573C166.087 45.0001 166.216 44.9459 166.426 44.9944C166.598 44.4185 166.784 43.8814 166.984 43.3831C167.184 42.8849 167.397 42.3994 167.624 41.9268C167.85 41.4541 168.077 40.9815 168.303 40.5088C168.555 40.0097 168.78 39.4589 168.978 38.8565C168.528 38.4474 168.195 38.0103 167.979 37.5451C167.789 37.0535 167.637 36.5612 167.524 36.0682C167.412 35.5753 167.325 35.0819 167.265 34.5881C167.204 34.0682 167.091 33.5492 166.926 33.0311C167.23 32.5571 167.602 32.1731 168.039 31.8792C168.477 31.5593 168.954 31.3037 169.472 31.1127C170.015 30.8951 170.598 30.7289 171.222 30.6142C171.844 30.4734 172.506 30.3189 173.206 30.1508C174.449 29.739 175.564 29.4206 176.55 29.1955C177.535 28.9444 178.496 28.7458 179.431 28.5998C180.366 28.4276 181.34 28.2809 182.353 28.1595C183.367 28.0121 184.535 27.81 185.859 27.5532C185.887 27.6308 185.926 27.6692 185.978 27.6683C186.057 27.667 186.148 27.6655 186.252 27.6637C186.333 27.8446 186.478 27.9334 186.686 27.9298C186.685 27.8517 186.671 27.7868 186.644 27.7352C186.642 27.6571 186.641 27.592 186.64 27.5399C186.693 27.539 186.758 27.5509 186.836 27.5757C186.941 27.5999 187.02 27.6246 187.072 27.6498C187.151 27.6745 187.216 27.6734 187.267 27.6465C187.319 27.5935 187.33 27.5022 187.302 27.3724C187.623 27.9139 188.035 28.3628 188.536 28.7189C189.036 29.049 189.588 29.3392 190.191 29.5894C190.221 29.8233 190.224 29.9925 190.2 30.0971C190.202 30.2013 190.19 30.3057 190.166 30.4103C190.141 30.4888 190.13 30.5932 190.132 30.7234C190.134 30.8275 190.163 30.9833 190.218 31.1907C189.814 31.9008 189.341 32.4558 188.801 32.8556C188.287 33.255 187.732 33.5639 187.137 33.7824C186.542 34.0009 185.906 34.1679 185.231 34.2835C184.582 34.3987 183.907 34.5274 183.206 34.6695C182.531 34.7851 181.843 34.953 181.144 35.1732C180.445 35.3934 179.76 35.7176 179.09 36.1457C178.88 36.0711 178.685 36.0484 178.503 36.0775C178.346 36.0801 178.178 36.1091 177.996 36.1642C177.815 36.2194 177.607 36.275 177.374 36.331C177.167 36.3866 176.906 36.3911 176.593 36.3443C176.388 36.5301 176.143 36.6645 175.857 36.7474C175.598 36.83 175.326 36.9127 175.041 36.9957C175.176 37.2799 175.233 37.5654 175.212 37.8523C175.217 38.1387 175.26 38.3854 175.342 38.5924C176.437 38.678 177.648 38.6575 178.974 38.5308C180.3 38.3781 181.6 38.2649 182.875 38.1912C182.903 38.3209 182.892 38.4123 182.841 38.4653C182.789 38.5182 182.765 38.6098 182.767 38.74C183.004 38.8922 183.229 39.0838 183.441 39.3146C183.653 39.5454 183.866 39.7762 184.078 40.007C184.316 40.2113 184.553 40.3896 184.79 40.5419C185.027 40.6681 185.301 40.7155 185.613 40.6842C185.748 40.9424 185.843 41.2142 185.9 41.4998C185.957 41.7853 185.923 42.0854 185.798 42.4001C185.283 42.7474 184.782 43.1075 184.293 43.4804C183.804 43.8273 183.289 44.1486 182.747 44.4443C182.231 44.7395 181.662 44.9836 181.04 45.1764C180.418 45.3693 179.743 45.4589 179.013 45.4452C178.883 45.4474 178.766 45.4494 178.662 45.4512C178.583 45.4525 178.478 45.4022 178.346 45.3002C178.088 45.4348 177.738 45.4929 177.295 45.4743C176.877 45.4293 176.526 45.4743 176.242 45.6094C175.875 45.4854 175.445 45.4275 174.95 45.4359C174.481 45.4439 174.063 45.3858 173.697 45.2618C173.24 45.9468 172.809 46.6703 172.405 47.4325C172.001 48.1686 171.65 48.9559 171.351 49.7944C172.422 49.9326 173.308 49.9826 174.011 49.9447C174.713 49.9067 175.376 49.8434 176 49.7547C176.623 49.666 177.26 49.5771 177.91 49.4879C178.585 49.3983 179.405 49.3584 180.369 49.3681C181.014 49.0446 181.753 48.8237 182.584 48.7054C183.442 48.5607 184.233 48.365 184.958 48.1183C185.219 48.192 185.443 48.3444 185.63 48.5757C185.815 48.7809 185.988 48.9994 186.149 49.2311C186.334 49.4363 186.52 49.6154 186.705 49.7686C186.89 49.9217 187.125 49.9698 187.41 49.9129C187.543 50.0409 187.624 50.1958 187.653 50.3776C187.708 50.559 187.75 50.7276 187.778 50.8834C187.833 51.0387 187.9 51.1678 187.98 51.2706C188.06 51.3474 188.203 51.371 188.411 51.3414C187.934 52.3653 187.387 53.1559 186.772 53.7133C186.182 54.2703 185.499 54.7116 184.723 55.0373C183.973 55.3365 183.118 55.5724 182.157 55.745C181.222 55.891 180.17 56.0782 179.002 56.3063C178.716 56.3632 178.469 56.3674 178.26 56.3189C178.076 56.2439 177.88 56.2081 177.672 56.2117C176.945 56.3542 176.075 56.4992 175.062 56.6466C174.075 56.7935 173.073 56.8626 172.057 56.8538C171.041 56.845 170.062 56.7313 169.121 56.5129C168.18 56.2944 167.392 55.8911 166.757 55.3028ZM191.868 54.7599C191.762 54.6575 191.669 54.5419 191.589 54.413C191.508 54.2581 191.44 54.0639 191.384 53.8305C191.012 53.394 190.717 52.8911 190.498 52.3218C190.28 51.7525 190.127 51.1691 190.039 50.5716C189.95 49.948 189.927 49.3233 189.968 48.6975C190.01 48.0717 190.091 47.4843 190.212 46.9353C190.286 46.6736 190.346 46.3991 190.393 46.1118C190.515 45.6149 190.637 45.131 190.759 44.6601C190.881 44.1631 191.07 43.7562 191.325 43.4394C191.216 43.1547 191.223 42.842 191.348 42.5013C191.472 42.1606 191.597 41.846 191.722 41.5574C191.773 41.4784 191.811 41.4126 191.836 41.3601C191.861 41.2815 191.886 41.216 191.911 41.1635C192.208 40.2469 192.493 39.3695 192.765 38.5314C193.063 37.6669 193.349 36.8416 193.622 36.0556C194.118 34.6147 194.589 33.2003 195.034 31.8123C195.506 30.4239 195.923 28.9453 196.287 27.3764C196.493 27.2166 196.674 27.1094 196.829 27.0547C196.881 27.0277 196.945 27.0006 197.023 26.9732C197.101 26.9459 197.192 26.9313 197.296 26.9296C197.847 27.2067 198.49 27.4693 199.223 27.7173C199.982 27.9388 200.622 28.0452 201.143 28.0364L201.817 28.611C202.162 28.9958 202.456 29.4076 202.697 29.8462C202.965 30.2584 203.052 30.8039 202.96 31.4827C202.807 31.7196 202.68 31.8651 202.576 31.9189C202.43 32.5204 202.27 33.0571 202.096 33.5288C201.921 33.9746 201.746 34.4073 201.571 34.827C201.37 35.2992 201.183 35.7712 201.009 36.243C200.834 36.7147 200.688 37.2902 200.569 37.9694C200.416 38.1543 200.315 38.3123 200.265 38.4434C200.241 38.574 200.204 38.7049 200.154 38.8359C200.105 38.9931 200.042 39.1634 199.967 39.347C199.892 39.5045 199.777 39.6497 199.623 39.7826C199.533 40.5915 199.388 41.2581 199.188 41.7824C198.988 42.2807 198.788 42.7789 198.589 43.2772C198.239 44.1947 197.916 45.1117 197.619 46.0284C197.322 46.919 197.157 47.9375 197.124 49.0841C197.435 49.0007 197.721 48.9568 197.982 48.9523C198.32 48.9466 198.646 48.9932 198.961 49.092C199.89 48.6074 200.901 48.3038 201.992 48.1811C203.11 48.058 204.216 47.9741 205.309 47.9296C206.22 47.9141 207.066 47.8607 207.846 47.7694C208.109 47.9472 208.28 48.0485 208.359 48.0732C208.437 48.0719 208.567 48.0697 208.749 48.0666C208.827 48.0653 208.906 48.0639 208.984 48.0626C209.062 48.0613 209.166 48.0726 209.297 48.0964C209.667 48.4547 210.023 48.7092 210.365 48.8596C210.705 48.9841 211.072 49.1081 211.465 49.2317C211.805 49.3561 212.133 49.4938 212.448 49.6448C212.789 49.7692 213.118 49.946 213.434 50.175L213.819 52.1609C214.033 52.4438 214.127 52.6376 214.103 52.7422C214.106 52.9505 214.057 53.1336 213.956 53.2916L214.043 53.798C213.55 53.9106 213.226 54.0332 213.072 54.1661C212.918 54.2729 212.751 54.419 212.572 54.6043C212.286 54.6352 212.012 54.6529 211.752 54.6573C211.231 54.6661 210.699 54.7533 210.155 54.9188C209.369 54.6456 208.507 54.5169 207.57 54.5328C207.205 54.539 206.828 54.5584 206.438 54.5911C206.074 54.6233 205.71 54.6685 205.346 54.7268C204.956 54.7855 204.567 54.8442 204.177 54.9029C203.787 54.9355 203.397 54.9552 203.006 54.9618C202.694 55.0192 202.474 55.062 202.344 55.0902C202.214 55.1185 202.085 55.1597 201.955 55.214C201.075 55.5154 200.116 55.8182 199.08 56.1223C198.069 56.4259 197.043 56.5865 196.002 56.6042C194.465 56.6302 193.222 56.2606 192.271 55.4954C192.163 55.2628 192.082 55.1079 192.029 55.0307C191.976 54.9534 191.922 54.8632 191.868 54.7599ZM217.177 54.3309C217.071 54.2285 216.978 54.1129 216.898 53.984C216.817 53.8291 216.748 53.6349 216.692 53.4015C216.32 52.965 216.025 52.4621 215.807 51.8928C215.589 51.3235 215.436 50.7401 215.348 50.1426C215.259 49.519 215.236 48.8943 215.277 48.2685C215.319 47.6427 215.4 47.0553 215.521 46.5063C215.594 46.2446 215.655 45.9701 215.702 45.6828C215.824 45.1859 215.946 44.702 216.068 44.2311C216.19 43.7341 216.378 43.3272 216.633 43.0104C216.524 42.7257 216.532 42.413 216.657 42.0723C216.781 41.7316 216.906 41.417 217.031 41.1284C217.082 41.0494 217.12 40.9836 217.145 40.9311C217.17 40.8525 217.195 40.787 217.22 40.7345C217.517 39.8179 217.802 38.9405 218.074 38.1024C218.372 37.2379 218.657 36.4126 218.931 35.6266C219.427 34.1857 219.898 32.7713 220.343 31.3833C220.815 29.9949 221.232 28.5163 221.596 26.9474C221.802 26.7876 221.982 26.6804 222.138 26.6257C222.189 26.5987 222.254 26.5716 222.332 26.5442C222.409 26.5169 222.5 26.5023 222.605 26.5006C223.156 26.7777 223.799 27.0403 224.532 27.2883C225.291 27.5098 225.931 27.6162 226.452 27.6074L227.126 28.182C227.471 28.5668 227.764 28.9786 228.006 29.4172C228.274 29.8294 228.361 30.3749 228.268 31.0536C228.116 31.2906 227.988 31.4361 227.885 31.4899C227.739 32.0914 227.579 32.6281 227.405 33.0998C227.23 33.5456 227.055 33.9783 226.88 34.398C226.679 34.8702 226.492 35.3422 226.318 35.814C226.143 36.2857 225.997 36.8612 225.878 37.5404C225.725 37.7253 225.623 37.8833 225.574 38.0144C225.55 38.145 225.513 38.2759 225.463 38.4069C225.414 38.5641 225.351 38.7344 225.276 38.918C225.201 39.0755 225.086 39.2207 224.932 39.3536C224.842 40.1625 224.697 40.8291 224.497 41.3534C224.297 41.8517 224.097 42.3499 223.897 42.8482C223.548 43.7657 223.225 44.6827 222.928 45.5994C222.631 46.49 222.466 47.5085 222.433 48.6551C222.744 48.5717 223.03 48.5278 223.29 48.5233C223.629 48.5176 223.955 48.5642 224.269 48.663C225.199 48.1784 226.209 47.8748 227.301 47.7521C228.419 47.629 229.525 47.5451 230.618 47.5006C231.529 47.4851 232.375 47.4317 233.155 47.3404C233.418 47.5182 233.589 47.6195 233.668 47.6442C233.746 47.6429 233.876 47.6407 234.058 47.6376C234.136 47.6363 234.214 47.6349 234.293 47.6336C234.371 47.6323 234.475 47.6436 234.606 47.6674C234.976 48.0257 235.332 48.2802 235.673 48.4306C236.014 48.5551 236.381 48.6791 236.774 48.8027C237.114 48.9271 237.442 49.0648 237.757 49.2158C238.098 49.3402 238.427 49.517 238.743 49.746L239.128 51.7319C239.341 52.0148 239.436 52.2086 239.412 52.3132C239.415 52.5215 239.366 52.7046 239.265 52.8626L239.351 53.369C238.858 53.4816 238.535 53.6042 238.381 53.7371C238.226 53.8439 238.06 53.99 237.88 54.1753C237.594 54.2062 237.321 54.2239 237.061 54.2283C236.54 54.2371 236.008 54.3243 235.464 54.4898C234.678 54.2166 233.816 54.0879 232.879 54.1038C232.514 54.11 232.137 54.1294 231.747 54.1621C231.382 54.1943 231.019 54.2395 230.655 54.2978C230.265 54.3565 229.876 54.4152 229.486 54.4739C229.096 54.5065 228.705 54.5262 228.315 54.5328C228.003 54.5902 227.783 54.633 227.653 54.6612C227.523 54.6895 227.394 54.7307 227.264 54.785C226.384 55.0864 225.425 55.3892 224.389 55.6933C223.378 55.9969 222.352 56.1575 221.31 56.1752C219.774 56.2012 218.531 55.8316 217.58 55.0664C217.472 54.8338 217.391 54.6789 217.338 54.6017C217.284 54.5244 217.231 54.4342 217.177 54.3309ZM244.915 56.5955C242.618 56.3219 241.204 55.1347 240.674 53.0341L240.706 52.6038C240.805 52.2895 240.916 51.936 241.039 51.5433C241.162 51.0984 241.298 50.6664 241.447 50.2471C241.596 49.8018 241.85 49.4068 242.208 49.0622C242.283 48.8265 242.42 48.4726 242.62 48.0003C242.846 47.5017 243.211 46.7662 243.716 45.794C244.12 45.0318 244.435 44.4274 244.662 43.9808C244.915 43.5337 245.117 43.1917 245.269 42.9547C245.001 42.4905 244.629 42.041 244.153 41.6063C243.723 40.8322 243.346 40.0963 243.021 39.3986C242.723 38.6744 242.49 38.0272 242.324 37.457C242.288 36.8325 242.173 36.1963 241.979 35.5485C241.896 35.2113 241.812 34.8741 241.728 34.537C241.644 34.1998 241.599 33.849 241.593 33.4844C241.486 33.3039 241.39 33.0711 241.308 32.786L241.378 32.316C241.504 32.1055 241.526 31.8317 241.442 31.4945C241.384 31.1309 241.299 30.7677 241.189 30.4049C241.105 30.0677 241.021 29.7175 240.937 29.3543C240.878 28.9646 240.859 28.5873 240.879 28.2223C240.898 27.8574 240.984 27.5043 241.134 27.1632C241.311 26.8216 241.605 26.5301 242.018 26.2887L242.404 26.0087L242.798 26.2364C243.088 26.4138 243.364 26.5654 243.626 26.6912C243.889 26.8169 244.152 26.9427 244.414 27.0685C244.729 27.2194 245.045 27.3834 245.36 27.5603C245.675 27.7113 246.017 27.8878 246.385 28.0899L246.78 28.3567L246.748 28.787C246.749 28.8391 246.763 28.9039 246.791 28.9816C246.818 29.0593 246.858 29.1237 246.911 29.1749L247.343 29.2848L247.391 29.8309L247.399 30.2996C247.403 30.534 247.419 30.703 247.447 30.8067C247.474 30.8844 247.528 30.9746 247.608 31.0775L247.811 31.5819C247.819 32.0506 247.866 32.4665 247.95 32.8297C248.034 33.1929 248.131 33.5559 248.242 33.9187C248.378 34.281 248.489 34.6568 248.573 35.046C248.658 35.4092 248.678 35.8126 248.633 36.2561C248.788 36.1754 248.942 36.0555 249.096 35.8967C249.147 35.8437 249.198 35.7908 249.249 35.7378C249.327 35.6844 249.404 35.631 249.481 35.5776L252.152 31.8209L252.066 31.3535L253.027 30.3996C253.283 30.1869 253.527 29.9744 253.758 29.7621C253.988 29.5238 254.179 29.2601 254.331 28.971L254.559 28.6155C255.704 27.0334 257.198 26.0444 259.041 25.6485L259.702 25.481L259.908 26.1026C260.044 26.465 260.297 26.7863 260.666 27.0665C261.061 27.3202 261.482 27.5736 261.93 27.8264L262.364 28.0926C262.525 28.4024 262.607 28.6354 262.61 28.7916C262.613 28.9478 262.602 29.0782 262.578 29.1828L262.782 29.6873C262.508 30.4472 262.205 30.9993 261.872 31.3435C261.539 31.6617 261.192 31.9671 260.833 32.2597C260.55 32.4989 260.294 32.7377 260.063 32.976C259.833 33.2143 259.655 33.4778 259.53 33.7664L259.224 34.1623C258.579 34.5118 258.171 35.0136 257.999 35.6676L257.852 36.2171L257.267 36.227C257.241 36.2274 257.177 36.2936 257.075 36.4256C256.972 36.5315 256.821 36.8075 256.62 37.2537C256.391 37.5702 256.225 37.7813 256.123 37.8872C256.046 37.9667 255.982 38.0329 255.931 38.0858C255.881 38.2169 255.831 38.335 255.78 38.44C255.756 38.5446 255.719 38.6754 255.67 38.8325L255.441 39.149C255.21 39.3613 255.044 39.5724 254.944 39.7825C254.843 39.9665 254.729 40.1898 254.603 40.4524C254.503 40.6885 254.39 40.9379 254.264 41.2005C254.138 41.437 253.96 41.6744 253.73 41.9128L253.815 42.3411L253.507 42.6197C253.302 42.8055 253.124 43.043 252.972 43.332C252.82 43.5951 252.669 43.8711 252.518 44.1602C252.367 44.4753 252.203 44.7906 252.026 45.1062C251.849 45.4217 251.619 45.7121 251.337 45.9773C251.163 46.4491 251 46.8165 250.848 47.0795C250.722 47.3421 250.493 47.6585 250.161 48.0288C249.87 49.2839 249.15 50.6374 248.003 52.0894C247.982 52.3763 247.895 52.6642 247.744 52.9533C247.618 53.2159 247.479 53.4657 247.327 53.7026C247.277 53.8077 247.214 53.926 247.138 54.0575C247.087 54.1625 247.05 54.2413 247.024 54.2938L246.915 54.7254C246.763 55.0145 246.598 55.2517 246.419 55.437C246.266 55.622 246.112 55.7938 245.959 55.9527C245.881 56.0061 245.804 56.0725 245.728 56.152C245.677 56.231 245.626 56.297 245.575 56.3499L244.915 56.5955ZM269.956 31.1674C269.932 31.2981 269.868 31.3773 269.765 31.4051C269.687 31.4064 269.623 31.4726 269.573 31.6037C269.473 31.8919 269.411 32.0752 269.387 32.1538C269.362 32.2063 269.336 32.2458 269.311 32.2723C269.285 32.2727 269.246 32.2994 269.195 32.3524C269.17 32.4049 269.107 32.5622 269.007 32.8244C268.831 33.192 268.603 33.5735 268.324 33.969C268.069 34.3379 267.906 34.7053 267.834 35.0712C267.475 35.3898 267.026 35.8011 266.488 36.3051C265.975 36.7826 265.486 37.1165 265.02 37.3067C264.784 37.2065 264.404 37.0567 263.88 36.8572C263.381 36.6312 262.895 36.379 262.421 36.1005C261.973 35.7956 261.63 35.4889 261.39 35.1804C261.15 34.8459 261.17 34.52 261.452 34.2026C261.912 33.7 262.306 33.1073 262.633 32.4246C262.985 31.7154 263.285 30.968 263.532 30.1824C263.805 29.3704 264.025 28.5462 264.194 27.7099C264.387 26.8471 264.556 26.0239 264.699 25.2401C264.805 25.3425 264.909 25.3798 265.013 25.352C265.142 25.2977 265.245 25.2308 265.322 25.1514C265.425 25.0455 265.514 24.9267 265.59 24.7952C265.692 24.6633 265.768 24.5578 265.819 24.4788C265.977 24.6063 266.24 24.7582 266.608 24.9342C267.001 25.1099 267.408 25.2853 267.828 25.4605C268.247 25.6097 268.64 25.7463 269.007 25.8703C269.374 25.9943 269.635 26.068 269.792 26.0914C270.113 26.5808 270.29 27.0336 270.323 27.4498C270.355 27.8399 270.428 28.2554 270.539 28.6963C270.385 28.8291 270.298 29.052 270.277 29.3649C270.256 29.6517 270.233 29.8605 270.21 29.9911C270.187 30.1999 270.137 30.3309 270.06 30.3843C270.008 30.4112 269.958 30.5163 269.909 30.6994C269.884 30.7519 269.885 30.8301 269.913 30.9338C269.967 31.037 269.981 31.1149 269.956 31.1674ZM266.974 37.3126C267.045 36.9207 267.092 36.6074 267.114 36.3726C267.136 36.1118 267.04 35.8399 266.827 35.5571C266.924 35.1387 266.997 34.8119 267.045 34.5767C267.119 34.341 267.126 34.0153 267.067 33.5996C267.29 32.9186 267.632 32.3398 268.093 31.8632C268.579 31.3861 269.107 30.9865 269.674 30.6643C270.241 30.3161 270.835 30.0326 271.457 29.8137C272.078 29.5688 272.66 29.3635 273.204 29.198C273.203 29.0939 273.15 29.0427 273.046 29.0445C272.941 29.0462 272.914 28.9816 272.964 28.8505C274.366 28.5663 275.765 28.1649 277.163 27.6464C278.587 27.1274 280.037 26.66 281.515 26.2443C282.992 25.8286 284.512 25.5684 286.073 25.4638C287.633 25.3332 289.277 25.5006 291.004 25.9662C291.113 26.2769 291.261 26.5739 291.449 26.8573C291.636 27.1406 291.823 27.4239 292.01 27.7072C292.223 27.9641 292.409 28.2214 292.57 28.4791C292.731 28.7368 292.826 29.0087 292.857 29.2947C293.175 29.5758 293.427 29.8841 293.615 30.2195C293.829 30.5284 293.875 30.9573 293.754 31.5063C293.471 31.7195 293.175 31.9329 292.867 32.1465C292.558 32.3601 292.235 32.5609 291.9 32.7489C290.724 32.4823 289.55 32.398 288.38 32.496C287.209 32.594 286.156 32.703 285.221 32.823C284.929 32.5154 284.588 32.378 284.198 32.4106C283.807 32.4172 283.392 32.4894 282.951 32.6271C282.537 32.7383 282.122 32.8625 281.708 32.9998C281.293 33.111 280.903 33.1437 280.537 33.0978C280.255 33.363 279.881 33.5517 279.414 33.6638C278.946 33.7498 278.453 33.8233 277.933 33.8842C277.909 34.0148 277.937 34.1055 278.016 34.1563C278.095 34.207 278.109 34.311 278.06 34.4681C278.246 34.6993 278.497 34.8644 278.811 34.9632C279.125 35.0361 279.438 35.1089 279.752 35.1817C280.092 35.2541 280.393 35.3662 280.656 35.518C280.919 35.6437 281.092 35.8622 281.175 36.1733C281.644 36.1914 282.05 36.3148 282.393 36.5434C282.735 36.7459 283.026 37.0015 283.265 37.31C283.505 37.6184 283.68 37.9541 283.79 38.3168C283.9 38.6536 283.944 38.9653 283.923 39.2522C284.032 39.5108 284.138 39.6132 284.241 39.5594C284.37 39.5051 284.515 39.5677 284.674 39.7474C284.785 40.1362 285.026 40.5488 285.398 40.9853C285.796 41.3953 286.103 41.8458 286.32 42.337C286.385 43.1173 286.436 43.8196 286.473 44.4441C286.535 45.0681 286.441 45.6818 286.191 46.2851C285.768 47.4383 285.147 48.4776 284.33 49.403C283.512 50.3285 282.575 51.1518 281.52 51.8729C280.49 52.5675 279.393 53.1851 278.23 53.7258C277.067 54.2404 275.915 54.6766 274.775 55.0345C274.671 55.0102 274.541 55.0124 274.385 55.0411C274.255 55.0694 274.228 54.9917 274.303 54.8081C274.072 55.0204 273.801 55.1552 273.489 55.2126C273.204 55.2695 272.878 55.2881 272.513 55.2682C272.175 55.2739 271.823 55.2669 271.458 55.247C271.119 55.2267 270.781 55.2455 270.443 55.3033C270.231 55.0985 270.033 54.8935 269.847 54.6883C269.687 54.4826 269.553 54.2375 269.444 53.9528C269.313 53.929 269.247 53.852 269.244 53.7218C269.268 53.5651 269.214 53.4879 269.084 53.4901C269.082 53.386 269.094 53.3076 269.119 53.2551C269.145 53.2026 269.17 53.1501 269.195 53.0976C269.298 53.0177 269.336 52.9649 269.309 52.9393C269.308 52.8873 269.269 52.8489 269.19 52.8242C269.137 52.773 269.071 52.722 268.992 52.6712C268.939 52.6201 268.925 52.5552 268.95 52.4766C269.076 52.2401 269.111 51.966 269.053 51.6544C269.021 51.3164 268.99 50.9783 268.958 50.6403C268.926 50.3022 268.947 49.9893 269.02 49.7016C269.093 49.3878 269.31 49.1237 269.671 48.9092C270.74 48.9953 271.742 48.9262 272.676 48.702C273.635 48.4774 274.529 48.1757 275.356 47.7971C276.209 47.418 277.009 47.0137 277.758 46.5843C278.531 46.1284 279.279 45.712 280.002 45.3352C280.076 45.0735 280.189 44.8501 280.343 44.6652C280.522 44.4799 280.701 44.3075 280.881 44.1482C281.06 43.9629 281.226 43.7777 281.379 43.5928C281.532 43.3819 281.645 43.1325 281.718 42.8448C281.742 42.7402 281.741 42.6621 281.714 42.6104C281.687 42.5588 281.648 42.5204 281.595 42.4953C281.542 42.4441 281.489 42.3929 281.436 42.3417C281.383 42.2905 281.356 42.2128 281.354 42.1087C281.276 42.0839 281.197 42.0592 281.118 42.0345C281.066 42.0094 281.014 41.9972 280.962 41.9981C280.279 41.6711 279.558 41.3968 278.799 41.1753C278.04 40.9537 277.397 40.7042 276.872 40.4266C276.563 40.6402 276.251 40.6975 275.937 40.5987C275.623 40.4998 275.244 40.4021 274.799 40.3054C273.705 40.2719 272.661 40.1854 271.669 40.0459C270.703 39.906 269.761 39.6485 268.843 39.2734C268.789 39.1181 268.721 38.989 268.641 38.8862C268.561 38.7573 268.378 38.7213 268.093 38.7782C267.906 38.521 267.707 38.2899 267.495 38.0852C267.309 37.8539 267.135 37.5964 266.974 37.3126Z" fill="#4C7C7D"/>
<path d="M156.247 87.5558C156.242 87.2694 156.277 87.0084 156.351 86.7727C156.425 86.537 156.433 86.2374 156.375 85.8737C157.153 84.1416 158.037 82.5378 159.028 81.0625C160.044 79.5606 161.259 78.2378 162.672 77.0939C162.903 76.9076 163.083 76.7223 163.21 76.5378C163.362 76.3269 163.502 76.1291 163.629 75.9447C163.783 75.7598 163.949 75.6007 164.129 75.4674C164.309 75.3081 164.541 75.1999 164.827 75.143C165.465 74.3769 166.234 73.6736 167.135 73.0333C168.036 72.3929 168.976 71.7779 169.956 71.1883C170.936 70.5987 171.915 69.9961 172.894 69.3805C173.9 68.7644 174.8 68.098 175.595 67.3813C175.885 67.5587 176.107 67.62 176.263 67.5653C176.444 67.4841 176.626 67.468 176.809 67.517C177.051 68.0077 177.357 68.3542 177.725 68.5563C178.119 68.7319 178.512 68.9206 178.907 69.1223C179.326 69.2975 179.708 69.5254 180.051 69.8061C180.42 70.0603 180.7 70.4202 180.89 70.8858C180.708 70.8889 180.618 70.9555 180.62 71.0857C180.648 71.2155 180.689 71.358 180.744 71.5133C180.799 71.6687 180.827 71.8115 180.83 71.9416C180.832 72.0718 180.716 72.1389 180.481 72.1429C180.485 72.3252 180.577 72.4147 180.759 72.4117C180.942 72.4086 181.034 72.4982 181.037 72.6804C181.04 72.8366 181.003 72.9675 180.927 73.073C180.876 73.152 180.879 73.2952 180.934 73.5026C180.316 73.9298 179.62 74.3453 178.846 74.7491C178.097 75.1264 177.296 75.5307 176.444 75.9619C175.618 76.3926 174.766 76.8628 173.889 77.3726C173.038 77.8558 172.188 78.4172 171.339 79.0566C170.491 79.6961 169.63 80.4009 168.758 81.171C167.911 81.9407 167.092 82.762 166.299 83.6349C165.506 84.4818 164.766 85.3669 164.078 86.2901C163.39 87.1873 162.806 88.0697 162.326 88.9374C162.38 89.0667 162.447 89.1828 162.527 89.2856C162.633 89.388 162.713 89.5038 162.767 89.6331C163.758 89.6684 164.682 89.6528 165.541 89.5861C166.398 89.4934 167.259 89.531 168.121 89.6987C168.224 89.6188 168.287 89.5135 168.311 89.3829C168.335 89.2523 168.411 89.1598 168.541 89.1055C170.308 88.8932 171.957 88.5788 173.486 88.1622C175.015 87.7195 176.571 87.2764 178.152 86.8329C177.68 86.6586 177.261 86.5225 176.895 86.4245C176.736 86.2709 176.734 86.1407 176.888 86.0339C177.068 85.9006 177.209 85.768 177.311 85.6361C176.891 85.4088 176.534 85.1023 176.241 84.7166C175.974 84.3304 175.809 83.8253 175.746 83.2013C175.926 83.042 176.014 82.8582 176.01 82.6499C176.007 82.4416 175.913 82.2739 175.728 82.1468C175.597 82.0969 175.519 82.0982 175.494 82.1507C175.469 82.2032 175.444 82.2558 175.419 82.3083C175.419 82.3604 175.394 82.4129 175.343 82.4658C175.318 82.5184 175.253 82.5195 175.148 82.4691C175.169 82.1823 175.23 81.9468 175.331 81.7628C175.432 81.5788 175.507 81.3561 175.554 81.0949L178.76 78.8918C179.103 79.1464 179.524 79.4128 180.023 79.6908C180.523 79.9688 181.049 80.2464 181.6 80.5236C182.152 80.8007 182.717 81.0907 183.295 81.3934C183.873 81.6701 184.411 81.9475 184.911 82.2255C185.383 82.4259 185.791 82.6794 186.135 82.9861C186.478 83.2668 186.809 83.5738 187.127 83.9069C187.445 84.2141 187.763 84.5213 188.08 84.8284C188.398 85.1356 188.78 85.3896 189.226 85.5904C189.181 86.0079 189.213 86.3459 189.322 86.6045C189.43 86.8631 189.461 87.1751 189.416 87.5406C188.936 88.4342 188.35 89.1995 187.657 89.8363C186.964 90.4471 186.179 90.9813 185.301 91.439C184.45 91.8962 183.532 92.2894 182.547 92.6186C181.563 92.9218 180.552 93.2254 179.516 93.5295C178.479 93.8076 177.429 94.1118 176.367 94.4424C175.33 94.7465 174.307 95.1024 173.298 95.5102C172.856 95.5177 172.478 95.5371 172.166 95.5684C171.854 95.5998 171.556 95.6439 171.27 95.7008C170.984 95.7578 170.699 95.8147 170.413 95.8716C170.128 95.9286 169.816 95.9729 169.478 96.0047C169.347 95.9809 169.257 96.0084 169.206 96.0874C169.181 96.166 169.13 96.232 169.053 96.2854C168.534 96.3723 168.066 96.4193 167.649 96.4264C167.232 96.4334 166.881 96.4394 166.594 96.4442C166.23 96.4504 165.853 96.5089 165.464 96.6197C165.076 96.7304 164.712 96.7757 164.373 96.7554C162.028 96.6909 160.178 95.8888 158.823 94.3491C157.469 92.8093 156.704 90.6735 156.527 87.9418C156.551 87.8111 156.523 87.7335 156.445 87.7088C156.366 87.658 156.3 87.607 156.247 87.5558ZM188.998 92.9C188.869 92.9282 188.75 92.8391 188.642 92.6325C188.534 92.3999 188.413 92.1806 188.28 91.9745L188.709 91.9672C188.517 91.3975 188.456 90.8776 188.527 90.4076C188.622 89.9111 188.731 89.4404 188.854 88.9956C188.976 88.5247 189.073 88.0803 189.144 87.6624C189.241 87.218 189.194 86.763 189.004 86.2974C189.135 86.3733 189.226 86.3457 189.276 86.2146C189.351 86.0571 189.4 85.8739 189.423 85.6652C189.471 85.4299 189.48 85.1954 189.45 84.9615C189.446 84.7011 189.429 84.493 189.4 84.3372C189.725 83.5243 189.971 82.6867 190.139 81.8244C190.333 80.9616 190.501 80.1122 190.643 79.2764C190.785 78.4145 190.94 77.5914 191.109 76.8072C191.303 75.9965 191.551 75.237 191.852 74.5287C192.215 74.4704 192.594 74.5161 192.987 74.6657C193.406 74.7888 193.682 74.9534 193.816 75.1595C194.612 74.5209 195.316 73.7537 195.925 72.8578C196.535 71.9619 197.146 71.0921 197.756 70.2483C198.393 69.378 199.109 68.6105 199.905 67.9459C200.701 67.2813 201.697 66.8737 202.893 66.7232C203.525 67.1553 204.236 67.6251 205.026 68.1326C205.816 68.6141 206.464 69.2282 206.972 69.9749C207.182 70.1015 207.38 70.2414 207.565 70.3946C207.776 70.5212 207.986 70.6479 208.197 70.7745L208.207 71.3604C208.577 71.6927 208.883 72.0912 209.125 72.5559C209.393 72.9942 209.623 73.4721 209.814 73.9898C210.03 74.481 210.234 74.9854 210.425 75.5031C210.617 76.0207 210.833 76.4989 211.075 76.9376C211.025 77.0947 211.002 77.2383 211.004 77.3685C211.032 77.4722 211.06 77.589 211.088 77.7187C211.142 77.822 211.183 77.9515 211.212 78.1073C211.24 78.237 211.256 78.4061 211.26 78.6144C211.179 79.9962 210.742 81.1235 209.95 81.9964C209.183 82.8429 208.231 83.5492 207.094 84.1154C205.984 84.6552 204.794 85.1311 203.524 85.5433C202.255 85.9295 201.103 86.3527 200.069 86.813C200.071 86.9172 200.124 86.9684 200.228 86.9666C200.358 86.9644 200.398 87.0419 200.349 87.199C201.138 87.6544 201.743 88.0218 202.165 88.3012C202.612 88.5801 203.02 88.8206 203.388 89.0227C203.782 89.1984 204.201 89.3475 204.646 89.4702C205.117 89.5925 205.757 89.7379 206.567 89.9065C207.378 90.075 208.005 90.2207 208.45 90.3434C208.921 90.4396 209.339 90.5236 209.705 90.5956C210.07 90.6415 210.461 90.6869 210.879 90.7319C211.296 90.777 211.857 90.8326 212.562 90.8988C212.853 91.1803 213.093 91.5148 213.282 91.9023C213.471 92.2898 213.608 92.6782 213.692 93.0674C213.777 93.4567 213.797 93.834 213.751 94.1994C213.73 94.5383 213.631 94.8135 213.452 95.0249C213.48 95.1286 213.546 95.1796 213.65 95.1778C213.78 95.1496 213.91 95.1474 214.041 95.1712C213.861 95.3045 213.707 95.4633 213.58 95.6478C213.453 95.8323 213.326 96.0168 213.199 96.2012C213.071 96.3857 212.918 96.5576 212.738 96.7169C212.585 96.8758 212.378 96.9704 212.118 97.0009C211.187 97.3813 209.989 97.4146 208.526 97.1009C207.062 96.7871 205.19 96.2198 202.91 95.3989C201.783 95.0013 200.866 94.6392 200.157 94.3126C199.448 93.986 198.831 93.6709 198.305 93.3673C197.778 93.0376 197.29 92.6943 196.842 92.3373C196.392 91.9542 195.877 91.5071 195.295 90.9961C195.218 91.0235 195.166 91.0764 195.142 91.155C195.143 91.2331 195.105 91.2858 195.027 91.3132C194.915 92.3569 194.721 93.2067 194.445 93.8625C194.196 94.5178 193.817 95.1884 193.307 95.8742C192.889 95.8032 192.604 95.8471 192.45 96.006C192.323 96.1644 192.156 96.3105 191.95 96.4442C191.69 96.5007 191.495 96.491 191.363 96.4151C191.232 96.3652 191.114 96.3021 191.008 96.2258C190.903 96.1494 190.784 96.0733 190.653 95.9974C190.521 95.9215 190.313 95.899 190.027 95.9298C189.944 95.6968 189.863 95.4768 189.781 95.2699C189.699 95.0368 189.489 94.9362 189.151 94.968C189.225 94.7323 189.248 94.5366 189.219 94.3808C189.19 94.199 189.148 94.0434 189.094 93.9141C189.039 93.7588 188.984 93.6034 188.93 93.4481C188.901 93.2923 188.924 93.1096 188.998 92.9ZM201.741 74.8298C201.411 75.3303 201.041 75.7924 200.631 76.216C200.221 76.6137 199.812 77.0373 199.403 77.487C199.019 77.9103 198.676 78.3849 198.372 78.911C198.068 79.411 197.857 80.0136 197.739 80.7188C198.83 80.5701 199.971 80.2513 201.16 79.7623C202.35 79.2472 203.474 78.7594 204.535 78.2986C204.388 77.3374 204.036 76.575 203.48 76.0115C202.923 75.4219 202.343 75.028 201.741 74.8298ZM215.521 76.4715C215.463 76.1339 215.394 75.9267 215.315 75.8499C215.489 75.3782 215.612 74.9203 215.682 74.4763C215.778 74.0059 215.849 73.5619 215.894 73.1444C215.94 72.779 215.986 72.4396 216.033 72.1263C216.106 71.8125 216.192 71.5115 216.291 71.2233C216.732 71.1117 217.055 70.9239 217.258 70.66C217.488 70.3696 217.666 70.1192 217.793 69.9087C218.261 69.8747 218.561 69.9347 218.694 70.0887C218.853 70.2423 219.027 70.4998 219.215 70.8612C219.35 71.1454 219.538 71.4548 219.778 71.7893C220.018 72.0978 220.373 72.3392 220.845 72.5135C220.928 72.7986 221.024 73.0705 221.132 73.3291C221.241 73.5877 221.363 73.8591 221.498 74.1433C221.741 74.6862 221.972 75.2552 222.191 75.8506C222.409 76.4199 222.535 76.9647 222.57 77.485C222.268 78.0892 222.032 78.7834 221.863 79.5676C221.72 80.3514 221.63 81.1473 221.591 81.9554C221.578 82.737 221.617 83.4916 221.708 84.2194C221.798 84.9471 221.939 85.5568 222.129 86.0484L222.374 86.6693L223.232 86.5767C224.166 86.3264 225.007 86.0517 225.758 85.7525C226.507 85.4272 227.204 85.0508 227.848 84.6232C228.492 84.1955 229.109 83.7162 229.699 83.1853C230.289 82.6284 230.903 81.9799 231.541 81.2398C232.154 80.5001 232.7 79.6704 233.179 78.7507C233.658 77.805 234.045 76.8347 234.341 75.84C234.663 74.8448 234.906 73.8509 235.072 72.8584C235.237 71.8659 235.339 70.9395 235.376 70.0794C235.867 69.8367 236.134 69.4545 236.177 68.9329L236.051 68.4271C235.971 68.2982 235.93 68.1817 235.928 68.0776C235.952 67.947 235.989 67.8291 236.04 67.7241C236.238 67.1217 236.673 66.6715 237.345 66.3736C237.819 66.6782 238.254 67.0094 238.651 67.3673C239.074 67.7247 239.458 68.0829 239.802 68.4417C239.866 69.1438 239.981 69.7539 240.146 70.272C240.31 70.7641 240.488 71.243 240.678 71.7085C240.868 72.1481 241.031 72.5751 241.169 72.9895C241.332 73.4034 241.445 73.9094 241.507 74.5074C241.26 75.293 241.077 76.0383 240.959 76.7436C240.866 77.4223 240.774 78.1401 240.683 78.897L240.612 79.3279C240.157 80.1431 239.702 80.9842 239.248 81.8514C238.82 82.6921 238.467 83.4274 238.192 84.0571C238.038 84.216 237.898 84.4007 237.771 84.6112C237.671 84.8213 237.57 85.0314 237.469 85.2414C237.419 85.3204 237.343 85.4519 237.242 85.636C237.167 85.8196 237.091 85.9511 237.014 86.0305L236.071 85.6949L235.857 86.9096L235.235 87.0764L234.775 87.6312C234.194 88.6829 233.571 89.5659 232.906 90.2804C232.267 90.9945 231.535 91.632 230.711 92.1929C229.913 92.7534 228.998 93.2898 227.965 93.8022C226.957 94.2881 225.794 94.8157 224.475 95.385C223.953 95.3157 223.497 95.2844 223.106 95.291C222.741 95.2711 222.376 95.2513 222.012 95.2314C221.647 95.2376 221.295 95.2305 220.956 95.2102C220.617 95.1899 220.226 95.1575 219.783 95.1129C219.674 94.8803 219.528 94.7135 219.344 94.6125C219.16 94.5114 218.99 94.4622 218.834 94.4648C218.309 94.2133 217.912 93.8554 217.644 93.3911C217.375 92.9268 217.093 92.4107 216.797 91.8427C216.662 91.5325 216.513 91.2225 216.352 90.9127C216.216 90.6024 216.042 90.3058 215.829 90.023L216.606 89.7754L215.57 88.6209C215.491 88.5441 215.399 88.4675 215.293 88.3912C215.214 88.3144 215.134 88.2246 215.054 88.1217L215.041 87.3797C214.901 85.2463 214.816 83.2813 214.785 81.4847C214.78 79.6616 215.001 78.0561 215.446 76.6681L215.521 76.4715ZM243.767 76.4616C242.666 76.0375 241.744 75.428 241.001 74.6332C240.284 73.8379 239.695 72.8972 239.234 71.8112C239.483 71.1037 239.889 70.5108 240.454 70.0324C241.019 69.528 241.65 69.1006 242.347 68.7501C243.07 68.3993 243.834 68.1129 244.637 67.8909C245.441 67.6689 246.219 67.4734 246.971 67.3044C247.129 67.3538 247.207 67.3525 247.206 67.3004C247.205 67.2483 247.27 67.2733 247.402 67.3752C248.335 67.0729 249.411 66.7812 250.63 66.5001C251.849 66.1929 253.149 66.0667 254.531 66.1214C254.711 66.0142 254.932 65.9583 255.192 65.9539C255.452 65.9235 255.725 65.9058 256.011 65.901C256.298 65.8961 256.571 65.8915 256.832 65.8871C257.092 65.8566 257.312 65.8008 257.493 65.7196C257.652 65.8992 257.889 66.0124 258.202 66.0592C258.515 66.0799 258.843 66.2046 259.185 66.4332C259.29 66.4575 259.289 66.4184 259.183 66.316C259.077 66.1876 259.088 66.0962 259.217 66.042C259.556 66.0362 259.857 66.1093 260.12 66.2611C260.383 66.4129 260.62 66.5912 260.832 66.796C261.069 66.9742 261.281 67.14 261.466 67.2931C261.676 67.4458 261.899 67.5202 262.133 67.5162C262.373 67.7986 262.651 68.0674 262.968 68.3225C263.31 68.5511 263.627 68.7931 263.918 69.0487C264.234 69.3038 264.487 69.586 264.674 69.8953C264.888 70.2043 264.998 70.554 265.004 70.9446C264.981 71.1013 265.035 71.1915 265.165 71.2153C265.296 71.2392 265.388 71.3157 265.443 71.445C265.485 72.408 265.343 73.2439 265.016 73.9526C264.716 74.6609 264.323 75.3187 263.839 75.926C263.354 76.5072 262.829 77.0631 262.265 77.5935C261.727 78.1236 261.229 78.692 260.77 79.2988C261.09 79.6841 261.447 80.0426 261.844 80.3745C262.265 80.6799 262.687 80.9853 263.109 81.2907C263.531 81.5961 263.927 81.928 264.298 82.2863C264.694 82.6182 265.027 83.0032 265.294 83.4415C265.375 83.5964 265.546 83.6976 265.807 83.7453C265.891 84.0564 266.001 84.3801 266.137 84.7164C266.298 85.0262 266.447 85.3363 266.582 85.6465C266.717 85.9307 266.8 86.1898 266.83 86.4237C266.86 86.6576 266.798 86.854 266.644 87.0128C266.828 87.1139 266.935 87.2814 266.965 87.5153C266.995 87.7232 266.998 87.8924 266.974 88.023C266.413 88.7358 266.031 89.2371 265.827 89.5271C265.624 89.817 265.471 90.028 265.369 90.1599C265.267 90.2919 265.165 90.4108 265.063 90.5167C264.96 90.6226 264.73 90.8349 264.37 91.1535C263.004 92.0101 261.572 92.7897 260.073 93.4923C258.6 94.1684 257.059 94.6373 255.448 94.899C255.321 95.0835 255.128 95.23 254.87 95.3386C254.637 95.4728 254.366 95.5816 254.055 95.665C253.744 95.7484 253.406 95.8192 253.043 95.8775C252.705 95.9353 252.393 95.9926 252.108 96.0496C251.977 95.9997 251.897 95.9099 251.869 95.7801C251.867 95.676 251.801 95.599 251.67 95.5491C251.649 95.862 251.508 96.0207 251.248 96.0251C251.014 96.0551 250.714 96.0081 250.347 95.8841C249.98 95.7601 249.6 95.5842 249.205 95.3565C248.81 95.1288 248.468 94.9132 248.178 94.7097C248.052 94.9463 247.887 95.1965 247.683 95.4604C247.505 95.7239 247.313 95.9095 247.107 96.0171C246.741 95.9712 246.467 95.9368 246.284 95.9139C246.128 95.8905 245.973 95.9582 245.819 96.1171C245.609 96.0165 245.451 95.902 245.344 95.7735C245.238 95.6712 245.132 95.5557 245.026 95.4273C244.92 95.3249 244.801 95.2358 244.67 95.1599C244.538 95.0579 244.341 94.9701 244.079 94.8964C244.129 94.7653 244.087 94.5707 243.952 94.3125C243.817 94.0283 243.632 93.8622 243.397 93.8141C243.523 93.6036 243.467 93.3441 243.227 93.0356C242.987 92.7011 242.799 92.3266 242.661 91.9122C242.684 91.7295 242.694 91.547 242.691 91.3647C242.714 91.156 242.737 90.9733 242.76 90.8166C242.809 90.6335 242.871 90.4761 242.947 90.3446C243.023 90.2131 243.152 90.1198 243.333 90.0646C243.301 89.7266 243.192 89.4029 243.004 89.0935C243.235 88.9073 243.388 88.6833 243.462 88.4216C243.535 88.1338 243.595 87.8463 243.642 87.559C243.716 87.2713 243.802 86.9963 243.902 86.7342C244.001 86.446 244.166 86.2088 244.398 86.0226C244.344 85.9453 244.291 85.8811 244.238 85.8299C244.185 85.7787 244.158 85.688 244.155 85.5578C244.535 84.9003 244.799 84.3488 244.948 83.9036C245.096 83.4322 245.206 82.9876 245.277 82.5697C245.373 82.1253 245.47 81.6548 245.565 81.1583C245.661 80.6618 245.859 80.0334 246.159 79.273C246.125 78.8048 246.17 78.3873 246.294 78.0205C246.418 77.6538 246.542 77.3001 246.666 76.9594C246.816 76.5922 246.927 76.2127 246.999 75.8208C247.07 75.4289 247.049 74.9734 246.936 74.4544C246.495 74.514 246.172 74.6758 245.968 74.9397C245.79 75.2031 245.679 75.5566 245.634 76.0002C245.403 76.2124 245.106 76.3217 244.741 76.3278C244.376 76.308 244.051 76.3526 243.767 76.4616ZM261.08 83.7082C260.081 83.1782 259.164 82.8682 258.329 82.7782C257.52 82.6877 256.739 82.714 255.986 82.8569C255.259 82.9735 254.559 83.1416 253.885 83.3614C253.212 83.5812 252.537 83.7489 251.862 83.8645C251.539 84.7555 251.204 85.7379 250.857 86.8116C250.511 87.8854 250.177 88.9328 249.856 89.9541C250.791 89.808 251.647 89.5981 252.424 89.3245C253.2 89.0509 253.951 88.7517 254.674 88.4269C255.398 88.076 256.108 87.7384 256.806 87.414C257.503 87.0636 258.227 86.7388 258.977 86.4396C259.05 86.1258 259.215 85.8756 259.472 85.6889C259.73 85.5022 259.987 85.3286 260.245 85.1679C260.502 84.9812 260.72 84.7822 260.899 84.5708C261.078 84.3594 261.138 84.0719 261.08 83.7082ZM258.138 71.5298C256.523 71.5051 254.937 71.6752 253.381 72.0402C251.824 72.4052 250.518 72.9222 249.461 73.5912C249.989 74.025 250.53 74.4065 251.082 74.7358C251.661 75.0646 252.098 75.5129 252.394 76.0809C253.636 75.565 254.719 74.9216 255.643 74.1506C256.568 73.3535 257.399 72.4799 258.138 71.5298Z" fill="#353535"/>
<defs>
<clipPath id="clip0_7_128">
<rect width="100" height="82" fill="white" transform="translate(0 19.0781)"/>
</clipPath>
</defs>
</svg>
