<svg width="310" height="82" viewBox="0 0 310 82" fill="none" xmlns="http://www.w3.org/2000/svg">
<g clip-path="url(#clip0_7_128)">
<path d="M94.9465 43.9596C94.7825 39.8212 93.9622 37.1114 93.0247 35.1062C91.6028 32.0889 89.0169 29.0907 85.9778 27.0472C74.0794 19.0137 57.3528 16.4384 42.3762 18.2129C29.72 19.712 13.7278 24.4078 8.69653 35.0998C7.75122 37.105 6.93091 39.8212 6.76685 43.9532C6.76685 43.9532 18.9075 69.8025 52.9231 69.8025C86.9465 69.8089 94.9465 43.9596 94.9465 43.9596V43.9596Z" fill="white"/>
<path d="M51.4778 20.2373C64.0559 20.2373 75.6028 23.3572 83.9934 29.0203C86.5872 30.7692 88.8762 33.3894 90.1106 36.0287C91.095 38.1172 91.6497 40.622 91.8137 43.665C90.7434 46.6823 82.3762 67.2528 52.9309 67.2528C23.5872 67.2528 11.72 46.9578 9.91528 43.5048C10.0872 40.5323 10.6497 38.0851 11.6106 36.0287C16.8215 24.9652 35.1731 21.6595 42.8294 20.7498C45.6731 20.4103 48.5715 20.2373 51.4778 20.2373V20.2373ZM51.4778 17.6812C48.4075 17.6812 45.3606 17.8606 42.384 18.2194C29.7278 19.7184 13.7356 24.4142 8.70435 35.1062C7.75903 37.1114 6.93872 39.8277 6.77466 43.9597C6.77466 43.9597 18.9153 69.8089 52.9309 69.8089C86.9466 69.8089 94.9466 43.9597 94.9466 43.9597C94.7825 39.8212 93.9622 37.1114 93.0247 35.1062C91.6028 32.0889 89.0169 29.0908 85.9778 27.0472C76.4544 20.6153 63.8215 17.6812 51.4778 17.6812V17.6812Z" fill="#4C7C7D"/>
<path d="M51.0938 60.7248C73.5303 60.7248 91.7188 53.3249 91.7188 44.1967C91.7188 35.0685 73.5303 27.6686 51.0938 27.6686C28.6572 27.6686 10.4688 35.0685 10.4688 44.1967C10.4688 53.3249 28.6572 60.7248 51.0938 60.7248Z" fill="#FCD4B5"/>
<path d="M22.7665 59.2322C21.8759 59.2322 21.1181 58.6684 21.04 57.9253C20.9697 57.2399 21.1337 56.5544 21.2822 55.9586L21.3915 55.5166C22.5634 49.8919 30.7744 44.9847 36.2665 45.2922C37.2275 45.3434 37.9462 46.0225 37.8759 46.8041C37.8134 47.592 36.9775 48.1686 36.0244 48.1302C32.4697 47.9188 25.6962 51.6664 24.7978 55.9906C24.7665 56.1636 24.7275 56.3366 24.6728 56.5159C24.5712 56.9324 24.454 57.4 24.4853 57.6819C24.5634 58.4635 23.8603 59.1553 22.8994 59.2194C22.8681 59.2322 22.8212 59.2322 22.7665 59.2322V59.2322Z" fill="#B89278"/>
<path d="M19.2435 57.6691C18.7435 57.6691 18.2513 57.4897 17.9075 57.1502C15.8763 55.1514 15.7357 52.102 17.5013 48.7772C18.9857 45.9841 22.0638 42.9091 25.3138 42.7617C26.2825 42.7297 27.0872 43.3191 27.1419 44.1006C27.1556 44.2871 27.1242 44.474 27.0494 44.6505C26.9746 44.827 26.858 44.9896 26.7062 45.129C26.5544 45.2683 26.3705 45.3817 26.165 45.4624C25.9596 45.5432 25.7366 45.5899 25.5091 45.5997C24.2513 45.6573 22.0091 47.4062 20.6732 49.9111C19.47 52.1789 19.431 54.2097 20.5716 55.3308C21.181 55.933 21.0794 56.8298 20.345 57.3295C20.0247 57.5602 19.6263 57.6691 19.2435 57.6691V57.6691Z" fill="#B89278"/>
<path d="M11.9152 52.4865C11.4933 52.4865 11.0714 52.3647 10.7355 52.1149C9.03236 50.8721 9.41517 48.5018 10.048 46.7272C10.2667 46.1058 11.1027 45.0808 15.1964 41L14.8917 40.7502L16.4777 39.77C16.9152 39.501 18.5089 38.6554 19.8605 38.649C20.8136 38.6618 21.5792 39.3024 21.5636 40.0904C21.5563 40.4628 21.3715 40.8181 21.0489 41.0803C20.7262 41.3424 20.2913 41.4907 19.837 41.4933H19.8058C19.6808 41.5125 19.1652 41.7047 18.6964 41.9738C18.5167 42.1724 18.3058 42.3774 18.0949 42.5952C15.212 45.4652 13.6105 47.1565 13.3449 47.6177C12.8605 49.0079 12.962 49.8535 13.087 50.0264C13.798 50.5518 13.8449 51.4294 13.212 52.0124C12.8605 52.3263 12.3917 52.4865 11.9152 52.4865Z" fill="#B89278"/>
<path d="M36.0174 47.1693C35.9471 47.1693 35.8768 47.1693 35.8064 47.1629C34.408 47.0283 33.0096 46.8554 31.6111 46.6824C30.7361 46.5735 29.8533 46.471 28.9783 46.3749C25.8533 46.0225 23.1893 45.0296 21.0486 43.428C19.3689 42.1596 16.5799 36.0608 17.7518 33.4407C17.8302 33.2653 17.9501 33.1042 18.1045 32.9668C18.2588 32.8294 18.4447 32.7182 18.6515 32.6397C18.8582 32.5612 19.0818 32.5168 19.3095 32.5092C19.5371 32.5015 19.7644 32.5307 19.9783 32.595C20.1922 32.6594 20.3886 32.7577 20.5562 32.8843C20.7238 33.0108 20.8593 33.1633 20.9551 33.3328C21.0508 33.5023 21.1049 33.6857 21.1143 33.8724C21.1236 34.059 21.0881 34.2454 21.0096 34.4208C20.4393 35.6893 22.4314 40.5388 23.4002 41.3396C24.9939 42.5375 27.033 43.2871 29.4471 43.5625C30.3377 43.665 31.2283 43.7675 32.1111 43.8764C33.4783 44.043 34.8455 44.2096 36.2049 44.3441C37.158 44.4338 37.8377 45.1449 37.7283 45.92C37.6783 46.2637 37.4767 46.5804 37.1616 46.8105C36.8464 47.0407 36.4394 47.1682 36.0174 47.1693V47.1693Z" fill="#B89278"/>
<path d="M31.1579 41.378H31.0642C29.8689 41.3268 24.0876 39.3088 22.9157 36.5989C22.361 35.3177 21.4001 31.0191 23.4001 29.2253C24.0485 28.6488 25.1423 28.6039 25.8532 29.1357C26.5564 29.6674 26.611 30.5643 25.9626 31.1408C25.4626 31.6469 25.5954 34.2991 26.1735 35.6444C26.6657 36.7847 30.3454 38.3478 31.4079 38.5528C32.3689 38.5913 33.0173 39.2575 32.9704 40.0391C32.9235 40.8014 32.0798 41.378 31.1579 41.378V41.378Z" fill="#B89278"/>
<path d="M30.1265 46.3236C29.6812 46.3236 29.2358 46.1827 28.8999 45.9072C28.228 45.3499 28.228 44.453 28.8999 43.8957C30.3608 42.7041 31.5171 39.4113 31.0015 37.925C30.4702 36.4068 28.7671 34.5233 26.6577 33.1268C26.4077 32.9602 26.1187 32.8193 25.8296 32.6783C25.4858 32.5054 25.1421 32.326 24.814 32.1338L24.5171 31.9416C24.3608 31.8391 24.1343 31.6918 24.0483 31.6725C23.1577 31.4163 22.6343 30.6155 22.9233 29.8852C23.2046 29.1485 24.1187 28.7257 25.0249 28.9499C25.7515 29.1229 26.2749 29.4688 26.6655 29.725L26.8921 29.8724C27.1265 30.0133 27.3765 30.1415 27.6343 30.2632C28.0483 30.4682 28.4624 30.6796 28.8374 30.9294C30.9312 32.3132 33.4702 34.6771 34.3374 37.1627C35.2046 39.6483 33.7202 43.9918 31.353 45.9265C31.0093 46.1891 30.564 46.3236 30.1265 46.3236V46.3236Z" fill="#B89278"/>
<path d="M36.1578 48.1366C35.7672 48.1366 35.3766 48.0341 35.0484 47.8099C34.6958 47.5691 34.4739 47.2235 34.4314 46.8489C34.3889 46.4742 34.5294 46.101 34.8219 45.8111C36.775 43.8828 37.0484 42.0634 37.0719 41.3652C37.275 35.5483 36.1031 32.9409 29.15 29.8723L29.0094 29.8339C28.5016 29.6802 27.3375 29.3214 27.0875 28.29C26.9078 27.5213 27.525 26.7717 28.4625 26.6244C29.1266 26.5219 29.7828 26.7397 30.1656 27.1497C30.1891 27.1561 30.2047 27.1625 30.2203 27.1689C30.4391 27.233 30.6422 27.3034 30.7906 27.3675C39.3063 31.1216 40.7516 35.055 40.525 41.4484C40.4859 42.6784 40.025 45.1192 37.4703 47.6305C37.1422 47.9636 36.65 48.1366 36.1578 48.1366V48.1366Z" fill="#B89278"/>
<path d="M44.0953 37.6432C43.1422 37.6432 42.361 37.0025 42.361 36.221C42.361 32.1594 42.1188 30.9102 36.6344 28.9563C36.4391 28.8922 36.236 28.7961 36.0172 28.6936C35.9547 28.6616 35.8844 28.6232 35.8141 28.5911C35.3815 28.5845 34.9675 28.4455 34.6535 28.2015C34.3394 27.9575 34.1479 27.626 34.1166 27.2721C34.0853 26.9182 34.2164 26.5676 34.4842 26.2889C34.752 26.0102 35.1372 25.8237 35.5641 25.766C36.525 25.6314 37.3141 26.0094 37.775 26.24C37.861 26.2785 37.9313 26.3233 38.0094 26.3489C45.0797 28.8602 45.8141 31.2817 45.8141 36.2146C45.8297 37.0025 45.0563 37.6432 44.0953 37.6432V37.6432Z" fill="#B89278"/>
<path d="M27.1804 61.1669C26.9851 61.1669 26.7742 61.1413 26.5789 61.0772C26.3652 61.0127 26.1692 60.9143 26.0021 60.7875C25.8349 60.6608 25.6999 60.5082 25.6048 60.3386C25.5098 60.169 25.4565 59.9856 25.448 59.7991C25.4395 59.6125 25.476 59.4264 25.5554 59.2515C26.9382 56.1829 32.9226 52.7876 34.8445 52.416C34.9617 52.3968 35.1492 52.3647 35.3601 52.3327C35.5476 52.3071 35.9226 52.2558 36.1492 52.211C36.6648 51.8907 37.3914 51.8266 38.0008 52.0957C38.8445 52.4672 39.1648 53.3257 38.7195 54.0176C38.1961 54.8183 37.0554 54.9785 35.9539 55.1322C35.8211 55.1515 35.7195 55.1643 35.6414 55.1771C34.5476 55.4205 29.7039 58.2521 28.8132 60.2252C28.6925 60.501 28.4709 60.7395 28.1786 60.908C27.8864 61.0766 27.5377 61.167 27.1804 61.1669V61.1669Z" fill="#B89278"/>
<path d="M54.2511 62.493C53.7277 62.493 53.2043 62.2944 52.8683 61.9229C52.7302 61.7739 52.6296 61.6039 52.5721 61.4229C52.5146 61.2418 52.5015 61.0532 52.5334 60.8679C52.5654 60.6826 52.6418 60.5044 52.7583 60.3435C52.8748 60.1826 53.029 60.0422 53.2121 59.9305C54.6808 59.0208 54.4699 57.6243 54.3058 57.0733C53.9777 55.9266 52.7902 54.4724 50.5558 54.1393C50.332 54.1067 50.1182 54.0383 49.9267 53.9379C49.7352 53.8375 49.5697 53.7071 49.4398 53.5541C49.3099 53.4012 49.2181 53.2287 49.1696 53.0466C49.1211 52.8645 49.117 52.6763 49.1574 52.4929C49.1968 52.3086 49.2804 52.1326 49.4033 51.975C49.5262 51.8174 49.686 51.6813 49.8734 51.5747C50.0609 51.468 50.2722 51.3929 50.4953 51.3537C50.7184 51.3145 50.9487 51.3119 51.173 51.3461C54.3683 51.8202 56.923 53.8061 57.673 56.4135C58.3214 58.6749 57.4152 60.8914 55.2902 62.2047C54.9777 62.3969 54.6105 62.493 54.2511 62.493V62.493Z" fill="#B89278"/>
<path d="M61.1656 62.9735C60.9859 62.9735 60.7828 62.9478 60.6031 62.8902C60.3875 62.83 60.1885 62.7354 60.0177 62.6118C59.8469 62.4882 59.7077 62.3381 59.6082 62.1701C59.5087 62.002 59.4507 61.8195 59.4378 61.633C59.4249 61.4465 59.4572 61.2598 59.5328 61.0836C60.9625 57.7011 61.1188 52.0508 55.6891 50.3275C55.4768 50.2602 55.2828 50.1592 55.1184 50.0303C54.9539 49.9013 54.8221 49.7469 54.7306 49.5761C54.6391 49.4052 54.5897 49.2212 54.5853 49.0346C54.5808 48.8481 54.6214 48.6626 54.7047 48.4889C54.8713 48.1378 55.2007 47.855 55.6209 47.7025C56.0411 47.55 56.5179 47.5403 56.9469 47.6753C64.6656 50.1225 64.6891 57.5922 62.8219 62.0125C62.5563 62.6019 61.8844 62.9735 61.1656 62.9735V62.9735Z" fill="#B89278"/>
<path d="M67.3448 62.493C67.02 62.4919 66.7022 62.4163 66.4272 62.2747C66.1521 62.1331 65.931 61.9312 65.7887 61.6918C65.6464 61.4525 65.5887 61.1852 65.6221 60.9203C65.6554 60.6555 65.7786 60.4036 65.9776 60.1931C68.9385 57.0797 67.4385 54.8055 64.5479 51.045C63.3682 49.5075 62.1104 48.1878 60.8135 47.1052C60.1416 46.5414 60.1495 45.6445 60.8291 45.0936C61.5166 44.5427 62.6104 44.5491 63.2823 45.1064C64.751 46.3364 66.1651 47.8227 67.4776 49.5267C70.2041 53.0694 73.2979 57.0925 68.712 61.9356C68.3682 62.3008 67.8604 62.493 67.3448 62.493Z" fill="#B89278"/>
<path d="M79.0007 58.1304L77.9225 58.0022C77.2897 57.9062 76.7975 57.541 76.5944 57.0733C76.3678 56.8427 76.1882 56.6185 76.0163 56.4071L75.7897 56.1252C75.4069 55.6768 74.735 55.2988 74.0163 54.9016L73.7116 54.7351C73.0006 54.3315 72.5944 54.024 72.321 53.7357C72.071 53.6844 71.7116 53.614 71.1803 53.5051L70.1647 53.3065C70.0475 53.2872 69.821 53.2744 69.571 53.2488C67.9538 53.1143 66.2897 52.9733 65.7272 51.8202C65.3757 51.0899 65.8053 50.2635 66.7038 49.9752C67.3444 49.7638 68.0632 49.8983 68.5319 50.2635C68.8913 50.334 69.571 50.3916 69.9225 50.4237C70.3835 50.4621 70.7741 50.5069 70.985 50.5454L71.9928 50.744C74.1335 51.1668 74.696 51.2821 75.1178 52.038C75.1882 52.0893 75.3522 52.2046 75.6725 52.3904L75.9538 52.5441C76.8522 53.0438 77.8678 53.614 78.6256 54.498L78.9069 54.8504C79.1413 55.1451 79.2741 55.2988 79.446 55.4141L79.8678 55.6896L80.2975 56.8747L79.0007 58.1304V58.1304Z" fill="#B89278"/>
<path d="M83.6963 56.5864C83.2197 56.5864 82.751 56.4327 82.4072 56.1252C81.8838 55.6575 81.6572 55.1194 81.4854 54.6902C81.415 54.5172 81.3057 54.2546 81.2354 54.1905C79.1729 52.2494 76.7354 50.7055 74.3682 49.8535C72.2354 49.0847 69.7979 49.0975 67.2119 49.1039H66.3213C65.3682 49.1039 64.5947 48.4633 64.5947 47.6818C64.5947 46.8938 65.3682 46.266 66.3291 46.266H67.1963C70.04 46.2596 72.9619 46.2467 75.7666 47.2589C78.5947 48.2775 81.4697 50.0777 83.8604 52.3327C84.3838 52.826 84.6104 53.3897 84.7744 53.7933C84.8369 53.9407 84.9229 54.1585 84.9775 54.2225C85.626 54.7991 85.5791 55.6832 84.876 56.2213C84.5322 56.4583 84.1104 56.5864 83.6963 56.5864V56.5864Z" fill="#B89278"/>
<path d="M87.3526 52.9605C86.9547 52.9593 86.5691 52.847 86.2595 52.642C85.9499 52.4371 85.7347 52.1517 85.6495 51.833C85.4385 50.9938 84.2042 49.9816 83.8057 49.6485C82.8604 48.8669 81.5713 48.2391 79.8682 47.7138C78.712 47.3614 77.5167 47.3166 76.126 47.2653L75.1651 47.2269C74.6104 47.2013 74.0088 47.2782 73.3682 47.355C72.6573 47.4447 71.9151 47.5472 71.126 47.5216C70.8981 47.5179 70.6733 47.4772 70.4646 47.402C70.2559 47.3268 70.0673 47.2185 69.9098 47.0834C69.7522 46.9483 69.6288 46.789 69.5466 46.6146C69.4644 46.4402 69.425 46.2543 69.4307 46.0674C69.4542 45.2794 70.2667 44.6708 71.2042 44.6772C71.7042 44.6836 72.251 44.6132 72.837 44.5427C73.587 44.4402 74.4463 44.3313 75.376 44.3825L76.2901 44.421C77.8292 44.4786 79.4151 44.5427 81.0792 45.0488C83.2588 45.715 84.962 46.5607 86.2667 47.6369C87.3604 48.5402 88.6729 49.7702 89.0401 51.2372C89.2432 52.006 88.6338 52.7619 87.7042 52.9221C87.587 52.9477 87.462 52.9605 87.3526 52.9605V52.9605Z" fill="#B89278"/>
<path d="M83.032 43.838C81.7586 43.838 80.4695 43.7931 79.1961 43.6266C78.5477 43.5433 77.9148 43.4088 77.2898 43.2742C76.8992 43.191 76.5164 43.1077 76.1102 43.0372C75.6595 42.9616 75.2639 42.7423 75.0105 42.4275C74.757 42.1128 74.6664 41.7283 74.7586 41.3588C74.8508 40.9892 75.1183 40.6649 75.5021 40.457C75.886 40.2492 76.3548 40.1749 76.8055 40.2505C77.2586 40.3274 77.7195 40.4235 78.1727 40.5196C78.6883 40.6285 79.1961 40.7438 79.7273 40.8142C81.3523 41.0256 83.1336 40.9936 84.8523 40.968L85.6648 40.9552C87.5711 40.9296 89.618 40.4042 92.1102 39.3088C92.9539 38.9372 94.0008 39.1935 94.4539 39.8853C94.907 40.5772 94.5945 41.4421 93.7508 41.8136C90.7508 43.1333 88.1961 43.7675 85.7195 43.7996L84.9305 43.8124C84.3055 43.8252 83.6727 43.838 83.032 43.838V43.838Z" fill="#B89278"/>
<path d="M82.5006 47.8099C81.9303 47.8099 81.2897 47.7523 80.6803 47.496C80.2721 47.3244 79.9633 47.0273 79.8214 46.6696C79.6794 46.3119 79.7157 45.9227 79.9225 45.5869C80.1284 45.2545 80.4854 45.0017 80.9165 44.8831C81.3477 44.7644 81.8184 44.7895 82.2272 44.9527C82.3756 44.9783 82.7662 44.9591 83.0162 44.9527C83.2428 44.9399 83.4616 44.9335 83.6725 44.9335C85.6334 44.9335 87.1491 44.8951 88.5709 44.8182C89.7741 44.7477 90.985 44.5491 92.2506 44.1904L92.5787 44.1071C92.7115 44.0751 92.9772 44.011 93.1569 43.9534C93.351 43.7359 93.616 43.5677 93.9213 43.468C94.2267 43.3683 94.5601 43.3411 94.8834 43.3896C95.8209 43.5369 96.4459 44.2801 96.2662 45.0488C95.9928 46.2404 94.4694 46.6119 93.5631 46.8362L93.3678 46.8874C91.8053 47.323 90.3131 47.5729 88.8053 47.6562C87.2897 47.7394 85.7115 47.7843 83.6725 47.7843C83.5319 47.7843 83.3756 47.7907 83.2272 47.7971C82.9928 47.7971 82.7584 47.8099 82.5006 47.8099V47.8099Z" fill="#B89278"/>
<path d="M51.9693 42.9859C50.3678 44.1006 48.5865 45.0744 46.7037 45.5677C41.735 46.8745 40.3287 42.7361 41.9146 39.3856C43.0475 36.9897 44.3521 34.1773 46.0475 32.0248C47.1256 30.6603 48.4381 29.4239 49.9303 28.3413C53.5787 25.7147 59.6803 24.7794 63.1412 28.1555C63.6959 28.7064 64.3053 29.5969 64.4146 30.3336C64.8678 33.2613 62.5162 35.5675 60.0162 37.3933C57.399 39.3088 54.6412 41.1217 51.9693 42.9859Z" fill="#F79329"/>
<path d="M44.9625 47.2333C43.1891 47.2333 41.6812 46.5926 40.7203 45.4331C39.3609 43.7995 39.1969 41.2242 40.3141 38.8731L40.4547 38.5784C41.5953 36.1697 42.8844 33.4406 44.6109 31.2561C45.7797 29.7782 47.1914 28.4395 48.8062 27.2778C51.1656 25.5737 54.3375 24.5615 57.2828 24.5615C60.1969 24.5615 62.6812 25.4969 64.4859 27.2522C65.1422 27.8992 65.9781 29.0459 66.1578 30.1542C66.7437 33.9275 63.6031 36.7014 61.189 38.4567C59.5562 39.6483 57.8609 40.8078 56.1656 41.9609C55.1422 42.6592 54.1187 43.3575 53.1109 44.0622C51.0797 45.4779 49.1656 46.4133 47.2516 46.9194C46.4391 47.1308 45.6734 47.2333 44.9625 47.2333V47.2333ZM57.275 27.4059C55.1422 27.4059 52.8297 28.1554 51.0797 29.4175C49.7057 30.4076 48.5044 31.5479 47.5094 32.8064C45.9781 34.7475 44.7594 37.3292 43.6734 39.6162L43.5328 39.9109C42.8375 41.3651 42.8609 42.9859 43.5719 43.838C44.0797 44.4465 44.9312 44.549 46.1734 44.2223C47.6266 43.8444 49.1969 43.0628 50.8453 41.9161C51.8609 41.205 52.9 40.5003 53.9391 39.7892C55.5953 38.6553 57.2672 37.5214 58.8766 36.349C61.8141 34.2029 62.9937 32.4156 62.7047 30.5322C62.65 30.1606 62.2516 29.5136 61.8141 29.0972C60.4078 27.6942 58.564 27.4059 57.275 27.4059V27.4059Z" fill="#855C52"/>
<path d="M61.9079 43.3446C60.1188 44.2415 58.1735 44.9718 56.2204 45.2217C51.0563 45.8687 50.4626 41.6021 52.6735 38.5015C54.2517 36.2785 56.0798 33.6712 58.1657 31.7685C59.4967 30.5552 61.0238 29.4968 62.7048 28.6231C66.8142 26.5026 73.0173 26.3553 75.7907 30.1413C76.2438 30.7563 76.6657 31.7109 76.6345 32.454C76.5173 35.4009 73.7517 37.3804 70.9392 38.8538C67.9782 40.4106 64.9001 41.852 61.9079 43.3446V43.3446Z" fill="#F79329"/>
<path d="M55.2116 46.7016C53.1257 46.7016 51.4616 45.9648 50.5163 44.6195C49.2507 42.8066 49.5007 40.1223 51.1804 37.7777L51.3522 37.5214C52.946 35.2856 54.7429 32.7552 56.8757 30.8141C58.3132 29.5072 59.9616 28.3605 61.7819 27.4252C63.9069 26.3233 66.4304 25.7147 68.8835 25.7147C72.5007 25.7147 75.5632 27.06 77.2819 29.4111C77.8132 30.135 78.4147 31.3714 78.3757 32.4925C78.2272 36.2978 74.5944 38.6297 71.8757 40.0519C70.0085 41.032 68.0866 41.9673 66.1647 42.9027C65.0475 43.4472 63.9225 43.9981 62.8132 44.5491C60.5788 45.6702 58.446 46.362 56.4851 46.6119C56.0319 46.6823 55.6022 46.7016 55.2116 46.7016V46.7016ZM68.8679 28.5591C67.0866 28.5591 65.1804 29.0203 63.6179 29.8275C62.0695 30.6261 60.6652 31.5986 59.446 32.7167C57.5554 34.44 55.8444 36.8423 54.3444 38.9564L54.1569 39.2191C53.1491 40.6284 52.8835 42.3069 53.5163 43.2102C53.7116 43.492 54.1022 43.8636 55.2038 43.8636C55.4382 43.8636 55.6882 43.8444 55.946 43.8188C57.4538 43.6266 59.1569 43.0564 60.9929 42.1339C62.1179 41.5702 63.2429 41.0192 64.3835 40.4683C66.2663 39.5522 68.1569 38.6297 69.9929 37.6688C73.2975 35.9327 74.8132 34.3119 74.8913 32.4156C74.9069 32.0441 74.6335 31.3522 74.2897 30.8781C72.8991 28.9627 70.571 28.5591 68.8679 28.5591V28.5591Z" fill="#855C52"/>
<path d="M68.0865 47.3358C66.1022 47.9059 64.0162 48.2839 62.0397 48.1878C56.8287 47.9315 57.3444 43.665 60.2897 41.0064C62.4069 39.1101 64.86 36.8743 67.3912 35.3689C69.0006 34.4143 70.7662 33.6456 72.6334 33.0818C77.1881 31.7173 83.2975 32.6462 85.0319 36.8231C85.3209 37.5022 85.4772 38.5079 85.2584 39.2254C84.3912 42.089 81.1881 43.5497 78.0553 44.5042C74.774 45.51 71.399 46.3876 68.0865 47.3358V47.3358Z" fill="#F79329"/>
<path d="M62.6727 49.6228C62.4305 49.6228 62.1805 49.6164 61.9383 49.6036C58.5008 49.437 57.2118 47.8547 56.7586 46.9258C55.7665 44.9142 56.6727 42.1531 59.0165 40.0455L59.2274 39.8597C61.3602 37.9378 63.7899 35.7597 66.3758 34.2158C68.118 33.1844 70.0243 32.3516 72.0399 31.743C73.5086 31.3009 75.118 31.0703 76.704 31.0703C81.5008 31.0703 85.3212 33.1011 86.6727 36.3619C87.0008 37.1562 87.2821 38.4759 86.9461 39.565C85.829 43.2678 81.6805 44.9142 78.6571 45.8367C76.6024 46.4645 74.5086 47.0411 72.4149 47.6241C71.1571 47.97 69.9071 48.3159 68.6571 48.6747C66.4852 49.3025 64.4696 49.6228 62.6727 49.6228V49.6228ZM76.704 33.9147C75.5243 33.9147 74.3211 34.0877 73.2274 34.4144C71.5008 34.9333 69.8836 35.6444 68.4071 36.5156C66.1024 37.8866 63.8133 39.9494 61.7743 41.7752L61.5633 41.9609C60.1649 43.2102 59.4774 44.8886 59.9618 45.8559C60.2352 46.4005 60.9618 46.708 62.1415 46.7656C63.704 46.8425 65.4696 46.5798 67.5086 45.9905C68.7665 45.6317 70.0399 45.2794 71.3055 44.927C73.3602 44.3569 75.4305 43.7867 77.4461 43.1717C81.1258 42.0442 83.0165 40.7245 83.5711 38.8795C83.6805 38.5144 83.5946 37.7969 83.3837 37.278C82.0946 34.1581 77.954 33.9147 76.704 33.9147V33.9147Z" fill="#855C52"/>
<path d="M34.4542 54.1712C33.9386 50.0072 36.8996 45.5868 41.2277 43.5625C48.4386 40.1928 58.6417 43.3767 55.8214 51.2179C54.6339 54.53 50.7511 56.6697 46.9542 57.7972C44.048 58.6684 40.4621 59.04 37.5949 57.8868C35.4933 57.0412 34.6417 55.7023 34.4542 54.1712V54.1712Z" fill="white"/>
<path d="M49.3295 53.0822C45.6967 53.7676 40.8217 51.4678 41.6967 48.0341C42.4857 44.9206 47.8139 43.7675 50.8451 45.1833C54.2436 46.7784 53.8295 51.2756 50.5482 52.7042C50.1654 52.8772 49.7592 52.9989 49.3295 53.0822Z" fill="#FBBC40"/>
<path d="M40.0398 2.18451C40.3367 1.44138 40.2117 0.474039 39.196 0.384352C36.2585 0.140914 33.407 3.58107 32.3367 5.36201C30.782 7.98216 30.5945 11.134 32.0789 13.8054C32.9929 15.4518 34.4851 16.8676 35.282 18.5525C35.6882 19.4045 35.8835 20.2822 35.782 21.1918C35.6882 21.9862 34.9695 23.0945 35.446 23.8697C36.4617 25.5033 38.7742 23.229 39.4304 22.4475C43.1023 18.104 38.7195 14.0297 37.9773 9.62216C37.571 7.19419 38.2898 4.68935 39.8132 2.60732C39.907 2.4792 39.9851 2.33826 40.0398 2.18451V2.18451Z" fill="#40C0E7"/>
<path d="M66.7114 2.18451C67.0083 1.44138 66.8833 0.474039 65.8677 0.384352C62.9302 0.140914 60.0708 3.58107 59.0161 5.36201C57.4536 7.98216 57.2739 11.134 58.7505 13.8054C59.6645 15.4518 61.1567 16.8676 61.9614 18.5525C62.3599 19.4045 62.5552 20.2822 62.4536 21.1918C62.3677 21.9862 61.6489 23.0945 62.1255 23.8697C63.1333 25.5033 65.4458 23.229 66.102 22.4475C69.7739 18.104 65.3911 14.0297 64.6489 9.62216C64.2427 7.19419 64.9614 4.68935 66.4849 2.60732C66.5786 2.4792 66.6567 2.33826 66.7114 2.18451Z" fill="#40C0E7"/>
<path d="M52.7905 2.18451C53.0873 1.44138 52.9702 0.474039 51.9467 0.384352C49.0092 0.140914 46.1577 3.58107 45.0952 5.36201C43.5327 7.98216 43.3452 11.134 44.8217 13.8054C45.7358 15.4518 47.2358 16.8676 48.0327 18.5525C48.4311 19.4045 48.6264 20.2822 48.5327 21.1918C48.4467 21.9862 47.7202 23.0945 48.2045 23.8697C49.2202 25.5033 51.517 23.229 52.1811 22.4475C55.853 18.104 51.478 14.0297 50.728 9.62216C50.3217 7.19419 51.0483 4.68935 52.5717 2.60732C52.6577 2.4792 52.728 2.33826 52.7905 2.18451Z" fill="#40C0E7"/>
<path d="M91.7819 43.9597C91.7819 44.0237 91.7975 44.075 91.7975 44.139C91.7975 53.2744 73.61 60.68 51.1647 60.68C28.7272 60.68 10.5397 53.2744 10.5397 44.139C10.5397 44.139 10.3131 42.3261 10.5397 40.2312C10.7116 38.6553 11.3444 36.6501 11.3444 36.6501L6.90687 41.8969C6.90687 41.9481 6.735 42.5887 6.76625 43.9597C6.76625 44.2351 6.83656 45.0103 6.85219 45.2922C7.36781 53.9086 13.0787 61.1412 19.11 65.7089C20.8131 67.003 22.5866 68.2458 24.4459 69.354C28.0006 71.4745 31.5319 72.9544 35.1647 74.0242C35.1412 74.8698 35.2194 75.7155 35.6256 76.3945C37.9381 80.3344 45.7975 81.3273 50.3287 81.5836C55.7584 81.8975 68.8834 80.7572 69.1256 74.6264C69.1413 74.1715 69.2116 73.6142 69.2116 73.0505C71.8288 72.0895 74.4069 70.898 77.0006 69.354C78.86 68.2522 80.6334 67.003 82.3366 65.7089C87.9616 61.4487 93.8834 53.8125 94.6334 46.5734C94.8444 45.7342 94.9381 44.8565 94.9694 43.9661H91.7819V43.9597Z" fill="#4C7C7D"/>
</g>
<path d="M115.617 29.9867C115.643 29.8825 115.656 29.8043 115.656 29.7523C115.682 29.7001 115.643 29.6351 115.538 29.5572C115.486 29.375 115.525 29.2577 115.655 29.2054C115.785 29.1531 115.915 29.1008 116.045 29.0485C116.173 27.4857 116.431 26.066 116.819 24.7893C117.234 23.4865 117.674 22.2227 118.141 20.9979C118.633 19.7731 119.113 18.5483 119.58 17.3235C120.072 16.0727 120.473 14.7178 120.783 13.2589C121.121 12.9198 121.394 12.5156 121.602 12.0465C121.835 11.5774 122.056 11.1082 122.263 10.6391C122.497 10.1439 122.756 9.67472 123.042 9.23152C123.354 8.78826 123.77 8.42295 124.29 8.13558C124.525 8.16122 124.733 8.21294 124.915 8.29074C125.124 8.34246 125.319 8.40723 125.502 8.48503C125.684 8.56284 125.88 8.6276 126.088 8.67932C126.296 8.73104 126.518 8.75669 126.752 8.75629C126.857 8.88631 126.948 9.0424 127.026 9.22456C127.105 9.38067 127.209 9.52372 127.34 9.6537L128.043 9.53528C128.382 9.82115 128.682 10.1852 128.943 10.6275C129.204 11.0437 129.387 11.4861 129.492 11.9546C129.597 12.3972 129.585 12.8399 129.455 13.2828C129.326 13.6997 129.027 14.0258 128.559 14.261C128.585 14.4172 128.585 14.5343 128.559 14.6125C128.533 14.6907 128.494 14.7689 128.442 14.8471C128.417 14.8992 128.404 14.9643 128.404 15.0425C128.404 15.0946 128.456 15.1726 128.56 15.2766C128.274 15.5114 128.014 15.8114 127.781 16.1764C127.547 16.5153 127.352 16.8802 127.197 17.2711C127.041 17.662 126.912 18.0529 126.808 18.4437C126.731 18.8345 126.679 19.1991 126.654 19.5377C127.408 18.7552 128.292 18.0244 129.306 17.3456C130.321 16.6667 131.205 16.0272 131.959 15.4269C132.557 15.0092 133.078 14.6176 133.52 14.2523C133.988 13.8608 134.456 13.5085 134.924 13.1951C135.392 12.8558 135.873 12.5424 136.368 12.2551C136.888 11.9417 137.408 11.6023 137.928 11.2368C138.189 11.1321 138.384 11.1058 138.514 11.1576C138.671 11.2094 138.814 11.2743 138.944 11.3522C138.97 11.1698 138.931 11.0657 138.826 11.0399C138.722 10.988 138.683 10.8578 138.709 10.6495C139.151 10.5185 139.541 10.3616 139.88 10.1787C140.244 9.99574 140.621 9.82581 141.012 9.66888C141.273 9.95488 141.533 10.2669 141.794 10.605C142.055 10.9171 142.407 11.0857 142.85 11.111C143.007 11.4493 143.19 11.7094 143.398 11.8913C143.633 12.0471 143.855 12.203 144.063 12.3589C144.298 12.5147 144.493 12.7097 144.65 12.9438C144.807 13.1518 144.898 13.4902 144.925 13.9589C144.822 14.1674 144.692 14.402 144.536 14.6627C144.406 14.8973 144.289 15.197 144.186 15.5618C143.562 16.1358 142.925 16.6447 142.275 17.0886C141.65 17.5063 141 17.9111 140.324 18.3029C139.673 18.6947 138.997 19.0995 138.294 19.5174C137.618 19.9352 136.929 20.4182 136.227 20.9663C136.071 21.201 135.876 21.4096 135.642 21.5923C135.408 21.775 135.161 21.9578 134.901 22.1405C134.666 22.2972 134.432 22.4669 134.198 22.6496C133.99 22.8322 133.821 23.0539 133.692 23.3145C133.587 23.3147 133.496 23.3279 133.418 23.354C133.34 23.3542 133.249 23.3674 133.145 23.3936C133.041 23.6021 132.885 23.7716 132.677 23.9022C132.495 24.0327 132.365 24.2022 132.287 24.4107C132.758 25.4255 133.371 26.1927 134.127 26.7122C134.883 27.2317 135.73 27.6078 136.668 27.8406C137.606 28.0733 138.622 28.2017 139.716 28.2259C140.81 28.25 141.942 28.261 143.114 28.259C143.245 28.2327 143.297 28.1675 143.27 28.0634C143.27 27.9332 143.348 27.881 143.504 27.9067C143.895 28.0363 144.221 28.1919 144.482 28.3738C144.742 28.5556 144.99 28.7505 145.225 28.9584C145.46 29.1663 145.681 29.3873 145.89 29.6213C146.125 29.8293 146.386 30.0502 146.673 30.284C146.623 31.5081 146.26 32.5113 145.584 33.2937C144.934 34.0501 144.063 34.6636 142.97 35.1342C141.46 35.189 140.145 35.1522 139.025 35.024C137.905 34.8957 136.797 34.6112 135.703 34.1704C135.625 34.1445 135.546 34.0665 135.468 33.9364C135.416 33.8063 135.363 33.7152 135.311 33.6632C135.103 33.5334 134.868 33.4817 134.608 33.5082C134.348 33.5347 134.126 33.5091 133.944 33.4313C133.709 33.3275 133.318 33.0938 132.771 32.7302C132.249 32.3665 131.767 32.0288 131.324 31.7171C130.776 31.2753 130.241 30.8466 129.72 30.4308C129.224 29.989 128.781 29.508 128.389 28.9878C128.311 28.8578 128.193 28.7929 128.037 28.7931C127.907 28.7934 127.777 28.7545 127.646 28.6766C126.736 29.2511 125.969 29.9686 125.345 30.8291C124.748 31.6635 124.163 32.5239 123.592 33.4103C123.021 34.2707 122.41 35.092 121.76 35.8744C121.137 36.6307 120.344 37.218 119.381 37.6364C119.094 37.6369 118.847 37.5852 118.638 37.4814C118.43 37.4037 118.234 37.2868 118.052 37.1309C117.869 37.001 117.687 36.8711 117.504 36.7412C117.322 36.6113 117.113 36.5206 116.879 36.4689C116.878 36.1043 116.799 35.7659 116.643 35.4537C116.512 35.1154 116.368 34.8161 116.211 34.556C116.081 34.2698 115.976 33.9965 115.897 33.7362C115.845 33.4759 115.922 33.2153 116.13 32.9546C115.843 32.7207 115.57 32.5259 115.309 32.3701C115.491 32.1874 115.569 32.018 115.542 31.8618C115.542 31.7056 115.503 31.5494 115.424 31.3933C115.346 31.2372 115.281 31.081 115.228 30.9249C115.202 30.7426 115.254 30.5472 115.384 30.3387C115.488 30.3125 115.527 30.2603 115.501 30.1822C115.5 30.1041 115.539 30.0389 115.617 29.9867ZM148.088 35.7503C147.88 35.5423 147.723 35.2952 147.618 35.0089C147.54 34.7226 147.331 34.4886 146.992 34.3069C146.939 33.9164 146.86 33.4738 146.755 32.9792C146.676 32.4585 146.584 31.9378 146.479 31.4172C146.4 30.8704 146.334 30.3367 146.281 29.816C146.254 29.2691 146.279 28.7743 146.357 28.3314C146.408 28.097 146.486 27.8755 146.59 27.667C146.72 27.4584 146.837 27.2629 146.94 27.0804C147.07 26.8719 147.161 26.6634 147.213 26.455C147.291 26.2465 147.303 26.0381 147.251 25.8299C147.407 25.8036 147.498 25.7253 147.524 25.595C147.576 25.4387 147.706 25.3864 147.914 25.4381C148.095 24.8649 148.29 24.3307 148.497 23.8355C148.705 23.3404 148.925 22.8582 149.159 22.389C149.392 21.9199 149.626 21.4507 149.859 20.9816C150.119 20.4863 150.352 19.939 150.56 19.3397C150.116 18.9238 149.79 18.4817 149.581 18.0133C149.398 17.5188 149.254 17.0243 149.149 16.5297C149.044 16.0351 148.965 15.5404 148.912 15.0457C148.859 14.525 148.754 14.0043 148.596 13.4838C148.908 13.0145 149.285 12.6362 149.727 12.349C150.169 12.0357 150.651 11.7875 151.171 11.6043C151.718 11.395 152.303 11.2377 152.928 11.1324C153.553 11.0011 154.217 10.8568 154.92 10.6993C156.169 10.3065 157.288 10.005 158.277 9.79498C159.267 9.55887 160.23 9.3749 161.167 9.24305C162.104 9.08517 163.081 8.95325 164.096 8.84731C165.112 8.71533 166.283 8.53099 167.611 8.2943C167.637 8.37238 167.676 8.41137 167.728 8.41128C167.806 8.41114 167.897 8.41098 168.002 8.4108C168.08 8.59296 168.223 8.68385 168.432 8.68349C168.432 8.60536 168.419 8.54028 168.392 8.48824C168.392 8.41012 168.392 8.34502 168.392 8.29293C168.444 8.29284 168.509 8.30575 168.587 8.33165C168.692 8.35751 168.77 8.38342 168.822 8.40937C168.9 8.43527 168.965 8.43516 169.017 8.40903C169.069 8.35685 169.082 8.26568 169.056 8.13552C169.369 8.68185 169.774 9.13687 170.269 9.50059C170.765 9.83827 171.312 10.1368 171.911 10.3962C171.938 10.6305 171.938 10.7998 171.912 10.904C171.912 11.0081 171.9 11.1123 171.874 11.2165C171.848 11.2947 171.835 11.3989 171.835 11.5291C171.835 11.6333 171.862 11.7895 171.914 11.9977C171.499 12.7016 171.018 13.2493 170.472 13.6409C169.952 14.0324 169.392 14.3329 168.794 14.5422C168.195 14.7516 167.557 14.909 166.88 15.0143C166.229 15.1196 165.553 15.238 164.85 15.3694C164.173 15.4748 163.483 15.6322 162.78 15.8418C162.077 16.0514 161.388 16.3651 160.712 16.7829C160.503 16.7052 160.308 16.6795 160.125 16.7058C159.969 16.7061 159.8 16.7324 159.618 16.7848C159.436 16.8372 159.227 16.8897 158.993 16.9422C158.785 16.9946 158.524 16.9951 158.212 16.9435C158.004 17.1262 157.757 17.2568 157.47 17.3355C157.21 17.414 156.937 17.4926 156.65 17.5713C156.781 17.8575 156.834 18.1439 156.808 18.4304C156.809 18.7168 156.848 18.9642 156.927 19.1723C158.021 19.2746 159.232 19.2725 160.559 19.166C161.887 19.0335 163.189 18.9401 164.465 18.8857C164.491 19.0159 164.479 19.1071 164.427 19.1592C164.375 19.2114 164.349 19.3026 164.349 19.4328C164.584 19.5887 164.805 19.7836 165.014 20.0176C165.223 20.2516 165.432 20.4856 165.64 20.7196C165.875 20.9276 166.11 21.1094 166.344 21.2653C166.579 21.3951 166.853 21.4467 167.165 21.4201C167.296 21.6803 167.387 21.9536 167.44 22.2399C167.492 22.5263 167.454 22.8258 167.324 23.1386C166.804 23.478 166.297 23.8305 165.803 24.1959C165.308 24.5353 164.788 24.8487 164.242 25.1361C163.721 25.4235 163.149 25.6589 162.524 25.8423C161.9 26.0257 161.223 26.105 160.493 26.0802C160.363 26.0804 160.246 26.0806 160.142 26.0808C160.064 26.0809 159.959 26.029 159.829 25.9251C159.569 26.0558 159.217 26.1085 158.775 26.0832C158.358 26.0318 158.006 26.0715 157.72 26.2022C157.355 26.0727 156.926 26.0083 156.431 26.0092C155.962 26.01 155.545 25.9456 155.18 25.816C154.713 26.4939 154.271 27.2109 153.856 27.9668C153.441 28.6967 153.077 29.4786 152.766 30.3124C153.834 30.4668 154.72 30.5304 155.423 30.5031C156.126 30.4758 156.79 30.4226 157.415 30.3434C158.04 30.2642 158.678 30.1849 159.329 30.1057C160.006 30.0264 160.826 29.9989 161.789 30.0232C162.44 29.7096 163.182 29.5 164.015 29.3944C164.874 29.2626 165.668 29.079 166.397 28.8433C166.657 28.921 166.879 29.0769 167.062 29.3109C167.244 29.5189 167.414 29.74 167.571 29.9741C167.753 30.1821 167.936 30.3641 168.118 30.52C168.301 30.6759 168.535 30.7276 168.822 30.675C168.952 30.805 169.031 30.9611 169.057 31.1434C169.109 31.3256 169.149 31.4948 169.175 31.651C169.227 31.8071 169.293 31.9372 169.371 32.0413C169.449 32.1192 169.593 32.145 169.801 32.1186C169.308 33.1351 168.749 33.9173 168.125 34.4653C167.527 35.0132 166.838 35.4441 166.057 35.758C165.302 36.0458 164.443 36.2686 163.48 36.4266C162.543 36.5584 161.489 36.7295 160.317 36.9399C160.031 36.9925 159.783 36.9929 159.575 36.9412C159.392 36.8634 159.197 36.8247 158.989 36.825C158.26 36.9565 157.388 37.0882 156.372 37.2202C155.383 37.3522 154.38 37.406 153.365 37.3817C152.349 37.3575 151.372 37.229 150.434 36.9962C149.496 36.7635 148.714 36.3482 148.088 35.7503ZM173.205 35.5893C173.101 35.4853 173.01 35.3682 172.931 35.2382C172.853 35.0821 172.787 34.8869 172.735 34.6526C172.37 34.2105 172.082 33.7032 171.873 33.1306C171.664 32.5581 171.519 31.9724 171.44 31.3736C171.361 30.7487 171.347 30.1237 171.398 29.4987C171.449 28.8736 171.539 28.2875 171.668 27.7404C171.746 27.4798 171.81 27.2063 171.862 26.9197C171.991 26.4247 172.121 25.9427 172.25 25.4737C172.38 24.9787 172.574 24.5747 172.834 24.2618C172.729 23.9755 172.742 23.663 172.871 23.3242C173.001 22.9854 173.131 22.6727 173.26 22.386C173.312 22.3078 173.351 22.2426 173.377 22.1905C173.403 22.1123 173.429 22.0472 173.455 21.995C173.766 21.083 174.064 20.2101 174.349 19.3763C174.66 18.5164 174.958 17.6955 175.243 16.9138C175.761 15.4806 176.254 14.0735 176.72 12.6925C177.212 11.3114 177.653 9.83926 178.04 8.27608C178.249 8.11947 178.431 8.01498 178.587 7.96263C178.639 7.93649 178.704 7.91034 178.782 7.88416C178.86 7.85798 178.951 7.8448 179.055 7.84462C179.603 8.13012 180.241 8.40244 180.971 8.66159C181.726 8.89464 182.365 9.01072 182.885 9.00981L183.551 9.59458C183.89 9.98462 184.177 10.4008 184.412 10.8431C184.673 11.2593 184.752 11.806 184.649 12.4833C184.494 12.7179 184.364 12.8614 184.26 12.9137C184.104 13.5129 183.936 14.047 183.754 14.5161C183.573 14.9591 183.391 15.3891 183.21 15.8061C183.002 16.2752 182.808 16.7443 182.626 17.2134C182.445 17.6825 182.29 18.2557 182.161 18.933C182.005 19.1155 181.901 19.272 181.849 19.4023C181.823 19.5325 181.784 19.6628 181.732 19.7931C181.681 19.9494 181.616 20.1188 181.538 20.3012C181.46 20.4576 181.343 20.6011 181.187 20.7315C181.084 21.539 180.929 22.2033 180.722 22.7245C180.514 23.2197 180.307 23.7149 180.1 24.21C179.737 25.1221 179.4 26.0341 179.089 26.9462C178.778 27.8321 178.597 28.8481 178.547 29.994C178.86 29.9153 179.146 29.8757 179.406 29.8753C179.745 29.8747 180.07 29.9262 180.383 30.0298C181.32 29.5594 182.335 29.2712 183.429 29.1651C184.548 29.059 185.655 28.992 186.748 28.964C187.66 28.9624 188.506 28.9219 189.287 28.8424C189.548 29.0242 189.718 29.1281 189.796 29.154C189.874 29.1539 190.004 29.1537 190.186 29.1533C190.264 29.1532 190.343 29.1531 190.421 29.1529C190.499 29.1528 190.603 29.1656 190.733 29.1914C191.098 29.5554 191.45 29.8152 191.789 29.9708C192.128 30.1005 192.493 30.23 192.884 30.3596C193.223 30.4892 193.548 30.6318 193.861 30.7875C194.2 30.9172 194.526 31.0989 194.839 31.3327L195.194 33.3243C195.402 33.6104 195.494 33.8055 195.468 33.9097C195.468 34.1181 195.417 34.3005 195.313 34.4569L195.392 34.9646C194.897 35.0696 194.572 35.1874 194.416 35.3178C194.26 35.4223 194.091 35.5658 193.909 35.7484C193.622 35.7749 193.349 35.7884 193.089 35.7889C192.568 35.7898 192.034 35.8689 191.487 36.0261C190.706 35.741 189.846 35.5993 188.909 35.6009C188.544 35.6015 188.166 35.6152 187.776 35.6419C187.411 35.6686 187.047 35.7083 186.682 35.761C186.292 35.8138 185.901 35.8666 185.511 35.9193C185.12 35.946 184.729 35.9598 184.339 35.9604C184.026 36.0131 183.805 36.0525 183.675 36.0788C183.545 36.105 183.415 36.1443 183.285 36.1967C182.4 36.4847 181.437 36.7728 180.395 37.0611C179.38 37.3493 178.352 37.4943 177.31 37.4961C175.774 37.4988 174.536 37.1104 173.597 36.3308C173.493 36.0966 173.414 35.9405 173.362 35.8624C173.31 35.7844 173.258 35.6933 173.205 35.5893ZM198.518 35.545C198.413 35.4411 198.322 35.324 198.244 35.194C198.165 35.0378 198.1 34.8426 198.047 34.6084C197.682 34.1663 197.395 33.659 197.185 33.0864C196.976 32.5139 196.832 31.9282 196.753 31.3294C196.673 30.7045 196.659 30.0795 196.71 29.4544C196.761 28.8294 196.851 28.2433 196.981 27.6962C197.058 27.4356 197.123 27.162 197.175 26.8755C197.304 26.3805 197.433 25.8985 197.563 25.4295C197.692 24.9345 197.887 24.5305 198.146 24.2175C198.042 23.9313 198.054 23.6188 198.184 23.28C198.313 22.9412 198.443 22.6285 198.573 22.3418C198.625 22.2636 198.664 22.1984 198.69 22.1463C198.716 22.0681 198.742 22.003 198.767 21.9508C199.078 21.0388 199.376 20.1659 199.661 19.3321C199.972 18.4722 200.27 17.6513 200.556 16.8696C201.074 15.4364 201.566 14.0293 202.033 12.6482C202.525 11.2672 202.965 9.79505 203.353 8.23187C203.561 8.07526 203.743 7.97077 203.899 7.91841C203.951 7.89228 204.016 7.86613 204.094 7.83995C204.173 7.81377 204.264 7.80059 204.368 7.80041C204.915 8.08591 205.554 8.35823 206.283 8.61738C207.039 8.85043 207.677 8.96651 208.198 8.9656L208.863 9.55037C209.202 9.94041 209.489 10.3566 209.725 10.7989C209.986 11.2151 210.065 11.7618 209.962 12.4391C209.806 12.6737 209.676 12.8172 209.572 12.8695C209.417 13.4687 209.248 14.0028 209.067 14.4719C208.885 14.9149 208.704 15.3449 208.522 15.7619C208.315 16.231 208.12 16.7001 207.939 17.1692C207.757 17.6383 207.602 18.2114 207.473 18.8888C207.317 19.0713 207.213 19.2277 207.161 19.358C207.136 19.4883 207.097 19.6186 207.045 19.7489C206.993 19.9052 206.928 20.0746 206.85 20.257C206.773 20.4134 206.656 20.5568 206.5 20.6873C206.397 21.4948 206.242 22.1591 206.034 22.6803C205.827 23.1755 205.619 23.6706 205.412 24.1658C205.049 25.0779 204.712 25.9899 204.401 26.9019C204.09 27.7879 203.91 28.8038 203.86 29.9498C204.172 29.8711 204.458 29.8315 204.719 29.8311C205.057 29.8305 205.383 29.882 205.696 29.9856C206.632 29.5152 207.647 29.227 208.741 29.1209C209.861 29.0148 210.967 28.9478 212.061 28.9198C212.972 28.9182 213.819 28.8777 214.6 28.7982C214.861 28.98 215.03 29.0839 215.108 29.1098C215.186 29.1097 215.316 29.1094 215.499 29.1091C215.577 29.109 215.655 29.1089 215.733 29.1087C215.811 29.1086 215.915 29.1214 216.046 29.1472C216.411 29.5112 216.763 29.771 217.102 29.9266C217.441 30.0563 217.805 30.1858 218.196 30.3154C218.535 30.445 218.861 30.5876 219.174 30.7433C219.512 30.873 219.838 31.0547 220.151 31.2885L220.506 33.2801C220.715 33.5662 220.806 33.7613 220.781 33.8655C220.781 34.0739 220.729 34.2562 220.625 34.4127L220.704 34.9204C220.21 35.0254 219.884 35.1431 219.728 35.2736C219.572 35.3781 219.403 35.5216 219.221 35.7042C218.935 35.7307 218.661 35.7442 218.401 35.7447C217.88 35.7456 217.346 35.8247 216.8 35.9819C216.018 35.6968 215.158 35.555 214.221 35.5567C213.856 35.5573 213.479 35.571 213.088 35.5977C212.724 35.6244 212.359 35.6641 211.995 35.7168C211.604 35.7696 211.214 35.8223 210.823 35.8751C210.433 35.9018 210.042 35.9155 209.651 35.9162C209.339 35.9689 209.118 36.0083 208.987 36.0346C208.857 36.0608 208.727 36.1001 208.597 36.1524C207.712 36.4404 206.749 36.7286 205.708 37.0169C204.693 37.3051 203.664 37.4501 202.623 37.4519C201.086 37.4546 199.849 37.0662 198.91 36.2865C198.805 36.0524 198.727 35.8962 198.675 35.8182C198.622 35.7402 198.57 35.6491 198.518 35.545ZM226.218 38.231C223.926 37.9225 222.53 36.714 222.032 34.6055L222.07 34.1758C222.174 33.8631 222.29 33.5113 222.42 33.1205C222.549 32.6775 222.692 32.2476 222.847 31.8307C223.003 31.3877 223.263 30.9966 223.626 30.6574C223.704 30.4229 223.847 30.0711 224.054 29.602C224.288 29.1068 224.664 28.377 225.183 27.4125C225.599 26.6566 225.923 26.0571 226.157 25.6139C226.416 25.1708 226.624 24.8319 226.78 24.5972C226.519 24.1289 226.153 23.6738 225.684 23.232C225.266 22.4514 224.9 21.7099 224.586 21.0073C224.298 20.2786 224.076 19.628 223.919 19.0553C223.892 18.4304 223.786 17.7925 223.603 17.1418C223.524 16.8034 223.445 16.465 223.367 16.1266C223.288 15.7882 223.248 15.4367 223.248 15.0721C223.143 14.89 223.052 14.6558 222.973 14.3695L223.05 13.9006C223.18 13.692 223.206 13.4186 223.127 13.0802C223.074 12.7157 222.996 12.3512 222.891 11.9868C222.812 11.6484 222.733 11.297 222.655 10.9325C222.602 10.542 222.588 10.1644 222.613 9.79979C222.639 9.43517 222.729 9.08344 222.885 8.74463C223.067 8.40577 223.366 8.11879 223.782 7.88369L224.172 7.60957L224.563 7.84326C224.85 8.02505 225.124 8.18082 225.384 8.31058C225.645 8.44033 225.906 8.57008 226.166 8.69984C226.479 8.85554 226.792 9.02427 227.105 9.20601C227.417 9.36172 227.756 9.54342 228.121 9.75111L228.512 10.0239L228.474 10.4536C228.474 10.5057 228.487 10.5708 228.513 10.6489C228.54 10.7269 228.579 10.792 228.631 10.844L229.061 10.9604L229.101 11.5072L229.102 11.976C229.102 12.2103 229.115 12.3796 229.142 12.4837C229.168 12.5618 229.22 12.6528 229.298 12.7569L229.495 13.2643C229.495 13.7331 229.535 14.1497 229.614 14.5141C229.693 14.8786 229.784 15.243 229.889 15.6074C230.02 15.9718 230.125 16.3492 230.204 16.7397C230.283 17.1041 230.296 17.5077 230.245 17.9505C230.401 17.8721 230.557 17.7547 230.713 17.5982C230.765 17.546 230.817 17.4938 230.869 17.4416C230.947 17.3894 231.025 17.3372 231.103 17.285L233.831 13.5693L233.752 13.1007L234.727 12.1615C234.987 11.9527 235.234 11.7439 235.468 11.5352C235.702 11.3004 235.897 11.0396 236.053 10.7529L236.286 10.4009C237.456 8.83637 238.964 7.87019 240.813 7.50238L241.476 7.34497L241.673 7.96963C241.804 8.33398 242.052 8.65907 242.417 8.94489C242.808 9.20463 243.225 9.46431 243.668 9.72396L244.098 9.99664C244.255 10.3089 244.334 10.5431 244.334 10.6994C244.334 10.8556 244.321 10.9858 244.295 11.0901L244.492 11.5975C244.207 12.3532 243.895 12.9006 243.557 13.2398C243.219 13.5529 242.868 13.853 242.504 14.1401C242.218 14.3749 241.958 14.6098 241.724 14.8445C241.49 15.0793 241.308 15.3401 241.178 15.6268L240.867 16.0179C240.216 16.3576 239.8 16.8531 239.619 17.5045L239.464 18.0516L238.878 18.0526C238.852 18.0527 238.787 18.1179 238.683 18.2483C238.579 18.3527 238.423 18.6264 238.216 19.0694C237.982 19.3823 237.813 19.591 237.709 19.6953C237.631 19.7736 237.566 19.8388 237.514 19.891C237.462 20.0213 237.41 20.1385 237.358 20.2428C237.332 20.347 237.294 20.4773 237.242 20.6336L237.008 20.9465C236.774 21.1553 236.605 21.3639 236.501 21.5724C236.397 21.7549 236.281 21.9765 236.151 22.2371C236.047 22.4717 235.93 22.7193 235.801 22.9799C235.671 23.2145 235.489 23.4492 235.255 23.684L235.334 24.1135L235.022 24.3875C234.814 24.5702 234.632 24.8049 234.476 25.0916C234.32 25.3523 234.165 25.626 234.009 25.9127C233.853 26.2255 233.684 26.5383 233.503 26.8511C233.321 27.1639 233.087 27.4508 232.801 27.7117C232.62 28.1808 232.451 28.5457 232.295 28.8063C232.165 29.067 231.932 29.3799 231.594 29.7451C231.283 30.9956 230.544 32.3381 229.374 33.7724C229.349 34.0589 229.258 34.3455 229.102 34.6322C228.972 34.8929 228.83 35.1405 228.674 35.3752C228.622 35.4794 228.557 35.5967 228.479 35.7271C228.427 35.8313 228.388 35.9095 228.362 35.9617L228.246 36.3916C228.09 36.6783 227.921 36.913 227.739 37.0956C227.583 37.2781 227.427 37.4477 227.271 37.6042C227.193 37.6564 227.115 37.7217 227.037 37.7999C226.985 37.8781 226.933 37.9433 226.882 37.9955L226.218 38.231ZM251.643 13.1866C251.617 13.3168 251.552 13.3951 251.448 13.4213C251.37 13.4214 251.305 13.4867 251.253 13.617C251.149 13.9036 251.085 14.086 251.059 14.1642C251.033 14.2163 251.007 14.2554 250.981 14.2815C250.955 14.2815 250.916 14.3077 250.864 14.3598C250.838 14.412 250.773 14.5683 250.669 14.8289C250.488 15.1938 250.254 15.5718 249.968 15.963C249.708 16.328 249.54 16.6929 249.462 17.0576C249.098 17.3707 248.643 17.7752 248.097 18.2709C247.577 18.7406 247.083 19.067 246.614 19.2501C246.38 19.1463 246.002 18.9907 245.481 18.7833C244.986 18.5498 244.503 18.2902 244.034 18.0046C243.591 17.6929 243.252 17.3809 243.017 17.0689C242.782 16.7307 242.807 16.4052 243.093 16.0922C243.561 15.5965 243.964 15.0099 244.301 14.3322C244.664 13.6285 244.976 12.8857 245.235 12.104C245.52 11.2962 245.753 10.4755 245.934 9.64188C246.14 8.78214 246.321 7.96151 246.476 7.17999C246.581 7.28397 246.685 7.32285 246.789 7.29663C246.919 7.24432 247.023 7.17903 247.101 7.10077C247.205 6.99642 247.296 6.87908 247.374 6.74873C247.478 6.61834 247.556 6.51404 247.608 6.43582C247.764 6.56576 248.025 6.72155 248.39 6.90321C248.781 7.08482 249.185 7.2664 249.602 7.44797C250.019 7.60349 250.409 7.74603 250.774 7.87561C251.139 8.00518 251.4 8.08285 251.556 8.10862C251.869 8.60286 252.039 9.05829 252.066 9.47491C252.093 9.86549 252.159 10.282 252.264 10.7246C252.108 10.8551 252.017 11.0766 251.991 11.3891C251.966 11.6756 251.94 11.884 251.914 12.0142C251.889 12.2226 251.837 12.3529 251.759 12.4051C251.707 12.4313 251.655 12.5355 251.603 12.7179C251.577 12.77 251.577 12.8482 251.603 12.9523C251.656 13.0564 251.669 13.1345 251.643 13.1866ZM248.568 19.2857C248.645 18.895 248.697 18.5824 248.722 18.348C248.748 18.0875 248.656 17.8142 248.447 17.5281C248.551 17.1113 248.628 16.7856 248.68 16.5512C248.758 16.3166 248.77 15.9911 248.717 15.5745C248.951 14.897 249.301 14.3235 249.769 13.8539C250.263 13.3843 250.796 12.9928 251.369 12.6793C251.941 12.3397 252.539 12.0652 253.164 11.8558C253.789 11.6203 254.374 11.424 254.921 11.2668C254.921 11.1626 254.868 11.1106 254.764 11.1108C254.66 11.111 254.634 11.046 254.686 10.9157C256.092 10.6528 257.497 10.2727 258.903 9.77547C260.334 9.27818 261.792 8.83293 263.275 8.43971C264.759 8.04649 266.282 7.80946 267.844 7.7286C269.407 7.62171 271.048 7.81415 272.767 8.30594C272.872 8.61826 273.016 8.91749 273.198 9.20363C273.381 9.48977 273.564 9.77591 273.747 10.062C273.956 10.3221 274.138 10.5822 274.295 10.8423C274.452 11.1025 274.543 11.3758 274.57 11.6622C274.883 11.9481 275.131 12.2602 275.314 12.5984C275.523 12.9105 275.562 13.3401 275.433 13.8872C275.147 14.0961 274.848 14.3049 274.536 14.5138C274.224 14.7227 273.899 14.9186 273.56 15.1014C272.388 14.817 271.216 14.7149 270.044 14.7951C268.872 14.8753 267.818 14.9682 266.881 15.074C266.594 14.762 266.255 14.6194 265.864 14.6461C265.474 14.6468 265.057 14.7126 264.615 14.8436C264.198 14.9485 263.782 15.0664 263.365 15.1974C262.949 15.3023 262.558 15.329 262.193 15.2775C261.907 15.5385 261.53 15.7214 261.062 15.8264C260.593 15.9053 260.098 15.9713 259.578 16.0243C259.552 16.1546 259.578 16.2457 259.656 16.2976C259.734 16.3496 259.748 16.4537 259.696 16.61C259.878 16.8441 260.126 17.0129 260.439 17.1166C260.751 17.1941 261.064 17.2717 261.377 17.3493C261.715 17.4268 262.015 17.5435 262.276 17.6993C262.536 17.829 262.706 18.0501 262.785 18.3625C263.254 18.3877 263.657 18.5172 263.996 18.751C264.335 18.9587 264.622 19.2186 264.857 19.5307C265.092 19.8428 265.262 20.181 265.367 20.5455C265.471 20.8838 265.511 21.1962 265.486 21.4827C265.59 21.743 265.695 21.847 265.799 21.7947C265.929 21.7424 266.072 21.8072 266.229 21.9893C266.333 22.3797 266.569 22.796 266.934 23.238C267.325 23.654 267.626 24.1092 267.835 24.6036C267.888 25.3848 267.928 26.0879 267.956 26.7128C268.009 27.3377 267.906 27.9499 267.646 28.5493C267.206 29.6959 266.569 30.7257 265.738 31.6386C264.906 32.5515 263.957 33.3604 262.89 34.0654C261.85 34.7443 260.744 35.3452 259.573 35.8681C258.402 36.3649 257.244 36.7836 256.099 37.1242C255.995 37.0983 255.864 37.0985 255.708 37.1248C255.578 37.1511 255.552 37.073 255.63 36.8906C255.396 37.0993 255.122 37.23 254.81 37.2827C254.524 37.3352 254.198 37.3488 253.834 37.3234C253.495 37.324 253.143 37.3116 252.779 37.2862C252.44 37.2608 252.102 37.2744 251.763 37.327C251.554 37.1191 251.359 36.9111 251.176 36.7031C251.02 36.495 250.889 36.2478 250.784 35.9616C250.654 35.9358 250.589 35.8577 250.589 35.7275C250.614 35.5712 250.562 35.4932 250.432 35.4934C250.432 35.3893 250.445 35.3111 250.471 35.259C250.496 35.2069 250.522 35.1547 250.548 35.1026C250.652 35.0243 250.691 34.9721 250.665 34.9461C250.665 34.8941 250.626 34.8551 250.548 34.8292C250.496 34.7772 250.431 34.7252 250.352 34.6733C250.3 34.6213 250.287 34.5562 250.313 34.478C250.443 34.2434 250.481 33.9699 250.429 33.6575C250.402 33.319 250.375 32.9805 250.349 32.642C250.322 32.3035 250.348 31.991 250.425 31.7044C250.503 31.3917 250.724 31.1309 251.088 30.922C252.156 31.0243 253.158 30.9704 254.095 30.7605C255.059 30.5504 255.957 30.2624 256.789 29.8964C257.648 29.5303 258.455 29.1383 259.209 28.7203C259.99 28.2762 260.744 27.8712 261.473 27.5054C261.55 27.2448 261.667 27.0233 261.823 26.8407C262.005 26.6581 262.187 26.4885 262.369 26.3319C262.551 26.1493 262.72 25.9667 262.876 25.7842C263.032 25.5756 263.149 25.328 263.226 25.0414C263.252 24.9372 263.252 24.859 263.226 24.807C263.2 24.755 263.16 24.716 263.108 24.69C263.056 24.638 263.004 24.586 262.952 24.534C262.9 24.4821 262.873 24.404 262.873 24.2998C262.795 24.2739 262.717 24.248 262.639 24.2221C262.587 24.1961 262.535 24.1832 262.482 24.1833C261.805 23.8459 261.088 23.5607 260.333 23.3277C259.577 23.0946 258.938 22.8353 258.417 22.5498C258.105 22.7587 257.793 22.8113 257.48 22.7077C257.167 22.604 256.789 22.5005 256.346 22.3971C255.253 22.347 254.211 22.2446 253.221 22.0901C252.257 21.9355 251.319 21.6637 250.407 21.2747C250.355 21.1185 250.289 20.9885 250.211 20.8844C250.133 20.7543 249.95 20.7156 249.664 20.7682C249.481 20.5081 249.285 20.2741 249.077 20.0661C248.894 19.832 248.724 19.5719 248.568 19.2857Z" fill="#4C7C7D"/>
<path d="M137.09 67.8399C137.089 67.5534 137.128 67.2929 137.206 67.0584C137.283 66.8239 137.296 66.5244 137.243 66.1599C138.047 64.4398 138.956 62.8496 139.969 61.3895C141.008 59.9033 142.243 58.5991 143.673 57.4768C143.907 57.2941 144.089 57.1115 144.219 56.929C144.375 56.7204 144.518 56.5248 144.648 56.3423C144.804 56.1597 144.973 56.0032 145.155 55.8727C145.337 55.7161 145.571 55.6115 145.857 55.5589C146.507 54.8026 147.287 54.1111 148.198 53.4845C149.108 52.8579 150.057 52.2573 151.046 51.6827C152.035 51.108 153.023 50.5204 154.012 49.9197C155.026 49.3189 155.936 48.6663 156.743 47.9618C157.029 48.1436 157.251 48.2083 157.407 48.1559C157.589 48.0775 157.771 48.0641 157.954 48.1159C158.189 48.6103 158.489 48.9613 158.854 49.169C159.245 49.3506 159.636 49.5453 160.027 49.7529C160.444 49.9345 160.822 50.1682 161.161 50.4541C161.526 50.7138 161.8 51.0779 161.983 51.5464C161.801 51.5467 161.71 51.612 161.71 51.7422C161.736 51.8723 161.776 52.0155 161.828 52.1716C161.88 52.3278 161.907 52.471 161.907 52.6012C161.907 52.7314 161.79 52.7967 161.556 52.7971C161.556 52.9794 161.647 53.0704 161.83 53.0701C162.012 53.0698 162.103 53.1608 162.104 53.343C162.104 53.4993 162.065 53.6296 161.987 53.7339C161.935 53.8121 161.935 53.9553 161.988 54.1636C161.363 54.5813 160.661 54.9862 159.881 55.3782C159.126 55.7441 158.319 56.1361 157.461 56.5543C156.628 56.9724 155.77 57.4296 154.885 57.926C154.026 58.3962 153.168 58.9446 152.31 59.5711C151.451 60.1976 150.58 60.8892 149.696 61.646C148.838 62.4027 148.006 63.2114 147.2 64.0722C146.395 64.907 145.641 65.7807 144.939 66.6934C144.238 67.58 143.64 68.4534 143.147 69.3137C143.199 69.4438 143.265 69.5609 143.343 69.6649C143.447 69.7689 143.526 69.8859 143.578 70.0161C144.568 70.0664 145.492 70.0648 146.351 70.0112C147.211 69.9316 148.07 69.9822 148.93 70.163C149.034 70.0846 149.099 69.9804 149.125 69.8501C149.15 69.7199 149.228 69.6286 149.358 69.5763C151.129 69.3909 152.782 69.1015 154.318 68.7082C155.854 68.2889 157.415 67.8695 159.003 67.45C158.534 67.2686 158.117 67.1261 157.752 67.0225C157.596 66.8666 157.596 66.7364 157.752 66.6319C157.934 66.5014 158.077 66.3709 158.181 66.2405C157.764 66.0069 157.412 65.695 157.124 65.3049C156.863 64.9147 156.706 64.4072 156.653 63.7823C156.835 63.6257 156.926 63.4432 156.925 63.2349C156.925 63.0266 156.834 62.8575 156.651 62.7276C156.521 62.6757 156.443 62.6759 156.417 62.728C156.391 62.7801 156.365 62.8322 156.339 62.8844C156.339 62.9365 156.313 62.9886 156.261 63.0408C156.235 63.0929 156.17 63.093 156.066 63.0411C156.091 62.7546 156.156 62.5201 156.26 62.3376C156.364 62.1552 156.441 61.9337 156.493 61.6732L159.731 59.5191C160.07 59.7789 160.488 60.0516 160.983 60.3372C161.478 60.6228 162 60.9083 162.547 61.1938C163.094 61.4793 163.655 61.7778 164.228 62.0893C164.802 62.3748 165.336 62.6603 165.831 62.9459C166.3 63.1534 166.704 63.4131 167.044 63.7251C167.383 64.0109 167.709 64.3229 168.022 64.6609C168.335 64.9728 168.648 65.2848 168.961 65.5967C169.274 65.9087 169.652 66.1684 170.095 66.376C170.044 66.7927 170.07 67.1312 170.175 67.3915C170.28 67.6517 170.306 67.9642 170.255 68.3288C169.761 69.2151 169.164 69.9714 168.462 70.5976C167.76 71.1978 166.966 71.72 166.082 72.1643C165.223 72.6085 164.299 72.9877 163.31 73.3019C162.321 73.5901 161.306 73.8783 160.265 74.1666C159.224 74.4288 158.169 74.7171 157.102 75.0315C156.061 75.3198 155.033 75.6601 154.018 76.0525C153.575 76.0533 153.198 76.067 152.885 76.0936C152.573 76.1201 152.274 76.1597 151.987 76.2123C151.701 76.2649 151.414 76.3175 151.128 76.3701C150.842 76.4226 150.529 76.4623 150.191 76.4889C150.061 76.4631 149.969 76.4893 149.918 76.5675C149.892 76.6457 149.84 76.7109 149.762 76.7631C149.241 76.8421 148.772 76.882 148.356 76.8827C147.939 76.8834 147.587 76.8841 147.301 76.8846C146.936 76.8852 146.559 76.9379 146.168 77.0428C145.778 77.1476 145.413 77.1873 145.075 77.1619C142.731 77.0618 140.893 76.2317 139.563 74.6715C138.232 73.1113 137.499 70.9642 137.364 68.23C137.39 68.0998 137.363 68.0217 137.285 67.9958C137.207 67.9438 137.142 67.8919 137.09 67.8399ZM169.756 73.6813C169.626 73.7075 169.509 73.6166 169.404 73.4084C169.3 73.1743 169.182 72.9531 169.051 72.745L169.481 72.7443C169.298 72.1717 169.245 71.6509 169.322 71.182C169.425 70.6871 169.542 70.2181 169.671 69.7752C169.801 69.3062 169.904 68.8633 169.981 68.4465C170.085 68.0036 170.045 67.5479 169.862 67.0795C169.992 67.1574 170.083 67.1312 170.135 67.0009C170.213 66.8445 170.265 66.6621 170.29 66.4538C170.342 66.2193 170.355 65.9849 170.328 65.7506C170.328 65.4902 170.314 65.2818 170.288 65.1256C170.625 64.3178 170.884 63.484 171.065 62.6243C171.272 61.7645 171.453 60.9179 171.607 60.0843C171.762 59.2246 171.93 58.404 172.111 57.6224C172.318 56.8148 172.577 56.0591 172.888 55.3555C173.253 55.3027 173.63 55.3542 174.021 55.5097C174.438 55.6392 174.712 55.808 174.843 56.0161C175.649 55.3897 176.364 54.6332 176.987 53.7467C177.611 52.8602 178.234 51.9998 178.858 51.1653C179.507 50.3048 180.235 49.5484 181.041 48.8959C181.847 48.2434 182.849 47.8511 184.047 47.7188C184.673 48.1604 185.377 48.6409 186.159 49.1604C186.941 49.6538 187.58 50.2777 188.076 51.0321C188.285 51.1619 188.48 51.3048 188.663 51.4607C188.871 51.5906 189.08 51.7204 189.288 51.8502L189.289 52.4362C189.655 52.7741 189.955 53.1772 190.19 53.6456C190.451 54.0878 190.673 54.5692 190.857 55.0897C191.066 55.5841 191.262 56.0916 191.445 56.6121C191.628 57.1326 191.838 57.614 192.073 58.0563C192.021 58.2127 191.995 58.3559 191.995 58.4862C192.022 58.5903 192.048 58.7074 192.074 58.8376C192.126 58.9417 192.166 59.0718 192.192 59.228C192.218 59.3582 192.232 59.5274 192.232 59.7357C192.13 61.1161 191.676 62.2367 190.871 63.0975C190.091 63.9322 189.128 64.624 187.984 65.1729C186.865 65.6956 185.668 66.1535 184.392 66.5463C183.117 66.9131 181.959 67.3188 180.918 67.7633C180.918 67.8675 180.97 67.9195 181.074 67.9193C181.205 67.9191 181.244 67.9971 181.192 68.1535C181.974 68.6209 182.574 68.9974 182.991 69.2832C183.434 69.5688 183.838 69.8155 184.203 70.0232C184.594 70.2048 185.011 70.3604 185.454 70.4898C185.923 70.6192 186.561 70.7743 187.369 70.9552C188.176 71.1361 188.802 71.2912 189.245 71.4207C189.713 71.524 190.13 71.6144 190.495 71.6919C190.86 71.7434 191.25 71.7948 191.667 71.8461C192.084 71.8975 192.644 71.9616 193.347 72.0385C193.634 72.3245 193.869 72.6626 194.052 73.0529C194.235 73.4432 194.366 73.8336 194.445 74.2241C194.524 74.6146 194.537 74.9922 194.486 75.3568C194.46 75.6954 194.357 75.969 194.175 76.1777C194.201 76.2818 194.266 76.3338 194.37 76.3336C194.5 76.3073 194.631 76.3071 194.761 76.3329C194.579 76.4634 194.423 76.62 194.293 76.8025C194.163 76.985 194.033 77.1675 193.903 77.35C193.773 77.5326 193.617 77.7021 193.435 77.8587C193.279 78.0152 193.071 78.1067 192.811 78.1332C191.874 78.4994 190.676 78.5145 189.217 78.1785C187.758 77.8425 185.895 77.2468 183.628 76.3914C182.508 75.9767 181.596 75.6007 180.892 75.2634C180.188 74.9261 179.576 74.6016 179.054 74.29C178.533 73.9524 178.05 73.6017 177.607 73.2379C177.164 72.848 176.655 72.3932 176.081 71.8733C176.003 71.8995 175.951 71.9517 175.925 72.0299C175.925 72.108 175.886 72.1601 175.808 72.1863C175.68 73.2282 175.473 74.0749 175.188 74.7265C174.928 75.378 174.539 76.0427 174.019 76.7207C173.603 76.6433 173.316 76.6829 173.16 76.8394C173.03 76.9959 172.861 77.1394 172.653 77.27C172.393 77.3225 172.197 77.3098 172.067 77.2319C171.937 77.1801 171.82 77.1152 171.715 77.0372C171.611 76.9593 171.494 76.8814 171.363 76.8035C171.233 76.7256 171.025 76.6999 170.738 76.7264C170.66 76.4922 170.581 76.271 170.503 76.0628C170.424 75.8285 170.216 75.7247 169.877 75.7514C169.955 75.5169 169.98 75.3215 169.954 75.1653C169.928 74.9831 169.888 74.8269 169.836 74.6968C169.784 74.5406 169.731 74.3844 169.679 74.2283C169.653 74.0721 169.678 73.8897 169.756 73.6813ZM182.772 55.8069C182.434 56.3023 182.057 56.7587 181.641 57.1761C181.226 57.5675 180.81 57.9849 180.394 58.4283C180.004 58.8456 179.653 59.315 179.341 59.8364C179.03 60.3317 178.81 60.9311 178.681 61.6344C179.774 61.5023 180.919 61.2008 182.116 60.73C183.314 60.2331 184.445 59.7624 185.512 59.3178C185.381 58.3545 185.041 57.5868 184.493 57.0149C183.945 56.4169 183.371 56.0142 182.772 55.8069ZM196.525 57.6579C196.472 57.3195 196.407 57.1113 196.329 57.0333C196.51 56.5642 196.64 56.1082 196.717 55.6654C196.82 55.1965 196.898 54.7536 196.949 54.3369C197.001 53.9722 197.052 53.6336 197.104 53.321C197.181 53.0083 197.272 52.7087 197.375 52.4221C197.818 52.3171 198.143 52.1343 198.351 51.8735C198.585 51.5866 198.767 51.3389 198.897 51.1303C199.365 51.1035 199.665 51.1681 199.795 51.3241C199.952 51.4801 200.122 51.7402 200.305 52.1044C200.435 52.3907 200.618 52.7029 200.853 53.041C201.088 53.3531 201.44 53.5999 201.909 53.7813C201.988 54.0677 202.079 54.3409 202.184 54.6012C202.289 54.8614 202.406 55.1346 202.537 55.4209C202.772 55.9673 202.995 56.5399 203.204 57.1385C203.413 57.711 203.531 58.2577 203.558 58.7785C203.247 59.378 203.001 60.0685 202.82 60.8501C202.665 61.6316 202.562 62.426 202.511 63.2334C202.487 64.0147 202.514 64.7699 202.594 65.4989C202.673 66.2279 202.804 66.8397 202.987 67.3342L203.223 67.9587L204.082 67.8791C205.019 67.6431 205.865 67.3812 206.62 67.0934C207.374 66.7796 208.077 66.4138 208.727 65.996C209.378 65.5782 210.002 65.1084 210.6 64.5865C211.198 64.0386 211.822 63.3995 212.471 62.6691C213.095 61.9389 213.654 61.1176 214.147 60.2053C214.64 59.2669 215.042 58.3027 215.353 57.3125C215.69 56.3224 215.948 55.3323 216.129 54.3424C216.309 53.3525 216.425 52.4279 216.476 51.5684C216.97 51.3332 217.243 50.9551 217.294 50.4341L217.176 49.9265C217.097 49.7965 217.058 49.6793 217.058 49.5752C217.084 49.4449 217.123 49.3277 217.175 49.2234C217.382 48.6241 217.824 48.1806 218.5 47.893C218.97 48.2047 219.4 48.5424 219.791 48.9063C220.208 49.2702 220.587 49.6341 220.926 49.9981C220.979 50.7011 221.084 51.3129 221.242 51.8335C221.399 52.328 221.569 52.8095 221.752 53.2779C221.935 53.7203 222.092 54.1497 222.223 54.5662C222.38 54.9826 222.485 55.4902 222.538 56.0891C222.279 56.8708 222.085 57.6133 221.956 58.3166C221.853 58.9939 221.75 59.7102 221.647 60.4656L221.57 60.8954C221.103 61.7036 220.635 62.5377 220.168 63.3979C219.727 64.232 219.363 64.9618 219.078 65.5873C218.922 65.7438 218.779 65.9264 218.649 66.1349C218.546 66.3434 218.442 66.552 218.338 66.7605C218.286 66.8387 218.208 66.969 218.104 67.1515C218.026 67.3339 217.949 67.4643 217.871 67.5425L216.932 67.1926L216.7 68.404L216.075 68.5613L215.608 69.109C215.011 70.1517 214.374 71.0252 213.698 71.7295C213.048 72.4338 212.307 73.0601 211.475 73.6084C210.669 74.1567 209.745 74.6791 208.704 75.1757C207.689 75.6463 206.518 76.1561 205.191 76.7053C204.67 76.6281 204.215 76.5898 203.824 76.5905C203.459 76.5651 203.095 76.5397 202.73 76.5143C202.365 76.5149 202.014 76.5025 201.675 76.4771C201.337 76.4516 200.946 76.4133 200.503 76.3619C200.399 76.1278 200.255 75.9587 200.073 75.8549C199.89 75.751 199.721 75.6993 199.565 75.6995C199.043 75.44 198.652 75.0761 198.391 74.6078C198.129 74.1395 197.855 73.6192 197.568 73.0468C197.437 72.7345 197.293 72.4222 197.136 72.11C197.006 71.7977 196.836 71.4986 196.627 71.2125L197.408 70.9767L196.39 69.8066C196.312 69.7286 196.221 69.6507 196.116 69.5727C196.038 69.4947 195.96 69.4037 195.881 69.2997L195.88 68.5575C195.772 66.4223 195.717 64.4562 195.714 62.6594C195.736 60.8364 195.981 59.2344 196.447 57.8534L196.525 57.6579ZM224.768 58.0774C223.674 57.6366 222.761 57.0131 222.03 56.2071C221.326 55.4011 220.751 54.4516 220.307 53.3586C220.566 52.655 220.982 52.0683 221.554 51.5986C222.126 51.1028 222.763 50.685 223.466 50.3452C224.194 50.0054 224.962 49.7306 225.769 49.5209C226.576 49.3112 227.357 49.1275 228.112 48.9699C228.268 49.0217 228.346 49.0216 228.346 48.9695C228.346 48.9174 228.411 48.9434 228.541 49.0473C229.478 48.7592 230.559 48.4839 231.782 48.2213C233.006 47.9327 234.308 47.8263 235.688 47.902C235.87 47.7975 236.091 47.7451 236.352 47.7446C236.612 47.7181 236.885 47.7046 237.172 47.7041C237.458 47.7036 237.732 47.7031 237.992 47.7027C238.253 47.6762 238.474 47.6237 238.656 47.5453C238.813 47.7273 239.047 47.8441 239.36 47.8956C239.672 47.9211 239.998 48.0507 240.337 48.2845C240.441 48.3104 240.441 48.2713 240.337 48.1673C240.232 48.0373 240.245 47.9461 240.375 47.8938C240.714 47.8932 241.014 47.9708 241.274 48.1266C241.535 48.2824 241.77 48.4643 241.978 48.6723C242.213 48.8542 242.422 49.0231 242.604 49.179C242.813 49.3349 243.034 49.4126 243.269 49.4122C243.504 49.6983 243.777 49.9712 244.09 50.2311C244.429 50.4649 244.742 50.7117 245.029 50.9716C245.342 51.2315 245.59 51.5175 245.773 51.8297C245.982 52.1419 246.087 52.4932 246.087 52.8839C246.061 53.0402 246.114 53.1312 246.244 53.157C246.374 53.1828 246.465 53.2608 246.518 53.3909C246.546 54.3544 246.391 55.188 246.053 55.8917C245.742 56.5954 245.34 57.2472 244.846 57.847C244.352 58.4208 243.819 58.9686 243.247 59.4904C242.701 60.0122 242.194 60.573 241.727 61.1727C242.04 61.5628 242.392 61.9268 242.783 62.2646C243.201 62.5764 243.618 62.8882 244.035 63.2C244.452 63.5117 244.843 63.8496 245.209 64.2135C245.6 64.5514 245.926 64.9415 246.187 65.3837C246.266 65.5398 246.435 65.6437 246.696 65.6953C246.774 66.0077 246.879 66.333 247.01 66.6713C247.167 66.9836 247.31 67.2958 247.441 67.6081C247.572 67.8943 247.65 68.1546 247.677 68.3889C247.703 68.6232 247.638 68.8187 247.483 68.9752C247.665 69.079 247.769 69.2481 247.796 69.4825C247.822 69.6908 247.823 69.86 247.797 69.9903C247.225 70.6944 246.835 71.1899 246.628 71.4767C246.42 71.7635 246.264 71.9721 246.16 72.1025C246.056 72.2329 245.952 72.3503 245.848 72.4546C245.744 72.559 245.51 72.7677 245.146 73.0808C243.767 73.9166 242.323 74.6743 240.814 75.354C239.331 76.0077 237.782 76.4531 236.168 76.6903C236.038 76.8728 235.843 77.0164 235.583 77.121C235.349 77.2516 235.075 77.3563 234.763 77.4349C234.451 77.5136 234.112 77.5793 233.748 77.632C233.409 77.6847 233.097 77.7373 232.81 77.7899C232.68 77.738 232.602 77.647 232.576 77.5169C232.575 77.4127 232.51 77.3347 232.38 77.2828C232.354 77.5954 232.211 77.7519 231.951 77.7523C231.717 77.7788 231.417 77.7272 231.052 77.5977C230.687 77.4681 230.31 77.2865 229.918 77.0528C229.527 76.8191 229.189 76.5983 228.902 76.3905C228.772 76.6251 228.603 76.8728 228.395 77.1335C228.213 77.3943 228.018 77.5769 227.81 77.6814C227.446 77.63 227.172 77.5914 226.99 77.5657C226.833 77.5399 226.677 77.6053 226.521 77.7618C226.313 77.658 226.156 77.5411 226.052 77.4111C225.948 77.3071 225.843 77.1901 225.739 77.0601C225.634 76.9561 225.517 76.8651 225.387 76.7872C225.256 76.6833 225.061 76.5925 224.8 76.5148C224.852 76.3845 224.813 76.1893 224.682 75.9291C224.551 75.6429 224.369 75.4739 224.134 75.4222C224.264 75.2137 224.212 74.9534 223.977 74.6413C223.742 74.3031 223.559 73.9258 223.428 73.5094C223.454 73.3271 223.466 73.1448 223.466 72.9625C223.492 72.7541 223.517 72.5717 223.543 72.4155C223.595 72.2331 223.66 72.0767 223.738 71.9464C223.816 71.816 223.946 71.7246 224.128 71.6722C224.101 71.3337 223.996 71.0084 223.814 70.6962C224.048 70.5135 224.204 70.2919 224.281 70.0313C224.359 69.7448 224.423 69.4582 224.475 69.1716C224.553 68.885 224.643 68.6114 224.747 68.3508C224.851 68.0642 225.02 67.8295 225.254 67.6468C225.201 67.5688 225.149 67.5038 225.097 67.4518C225.045 67.3998 225.019 67.3087 225.018 67.1785C225.408 66.5268 225.68 65.9794 225.836 65.5364C225.991 65.0674 226.108 64.6245 226.185 64.2077C226.288 63.7648 226.392 63.2959 226.495 62.8009C226.598 62.3059 226.806 61.6806 227.117 60.9248C227.09 60.4561 227.141 60.0394 227.271 59.6745C227.401 59.3097 227.53 58.9579 227.66 58.6192C227.815 58.2543 227.932 57.8765 228.009 57.4858C228.087 57.095 228.073 56.6393 227.968 56.1186C227.525 56.1715 227.2 56.3283 226.992 56.5891C226.81 56.8498 226.694 57.2016 226.642 57.6444C226.408 57.8531 226.109 57.9578 225.744 57.9585C225.38 57.9331 225.054 57.9727 224.768 58.0774ZM241.969 65.5864C240.978 65.0412 240.066 64.7173 239.233 64.6146C238.425 64.5118 237.644 64.5262 236.889 64.6578C236.16 64.7632 235.457 64.9207 234.78 65.1302C234.104 65.3397 233.427 65.4971 232.75 65.6025C232.413 66.4885 232.063 67.4657 231.7 68.534C231.338 69.6024 230.988 70.6446 230.651 71.6608C231.589 71.529 232.448 71.3322 233.228 71.0704C234.009 70.8086 234.764 70.5209 235.492 70.2071C236.221 69.8673 236.937 69.5405 237.639 69.2268C238.342 68.887 239.07 68.5732 239.825 68.2854C239.903 67.9728 240.071 67.7251 240.332 67.5424C240.592 67.3596 240.852 67.1899 241.112 67.0332C241.372 66.8504 241.593 66.6548 241.775 66.4461C241.957 66.2374 242.021 65.9509 241.969 65.5864ZM239.213 53.3646C237.598 53.3154 236.01 53.4614 234.448 53.8026C232.886 54.1439 231.572 54.641 230.505 55.2939C231.027 55.7357 231.562 56.1254 232.109 56.463C232.683 56.8005 233.113 57.2555 233.401 57.8279C234.65 57.3309 235.742 56.704 236.678 55.9472C237.615 55.1643 238.459 54.3034 239.213 53.3646Z" fill="#353535"/>
<defs>
<clipPath id="clip0_7_128">
<rect width="100" height="82" fill="white" transform="translate(0.86792)"/>
</clipPath>
</defs>
</svg>
